<?xml version="1.0" standalone="no"?>
<!DOCTYPE svg PUBLIC "-//W3C//DTD SVG 1.1//EN" "http://www.w3.org/Graphics/SVG/1.1/DTD/svg11.dtd" >
<svg>
<metadata>
Created by FontForge 20120731 at Fri Jun 30 07:42:47 2017
 By www-data
Copyright 2016 The Rokkit Project Authors (contact@sansoxygen.com)
</metadata>
<defs>
<font id="Rokkitt-Regular" horiz-adv-x="0" >
  <font-face 
    font-family="Rokkitt"
    font-weight="400"
    font-stretch="normal"
    units-per-em="1000"
    panose-1="0 0 5 0 0 0 0 0 0 0"
    ascent="800"
    descent="-200"
    x-height="393"
    cap-height="563"
    bbox="-200 -236 1207 953"
    underline-thickness="0"
    underline-position="0"
    unicode-range="U+000D-FB01"
  />
<missing-glyph horiz-adv-x="518" 
d="M40 0v563h438v-563h-438zM100 70h318v423h-318v-423z" />
    <glyph glyph-name="f_f" unicode="ff" horiz-adv-x="571" 
d="M43 53h75v287h-77v53h77v84q0 56 29.5 87.5t88.5 31.5q44 0 74 -22t33 -70l-57 -16q-4 28 -14.5 42t-33.5 14q-46 0 -46 -68v-83h184v84q0 55 30.5 87t86.5 32q43 0 74 -21.5t34 -70.5l-57 -16q-4 28 -15.5 41.5t-33.5 13.5q-21 0 -33 -16.5t-12 -50.5v-83h96v-53h-96
v-287h91v-53h-234v53h69v287h-184v-287h84v-53h-233v53z" />
    <glyph glyph-name="fi" unicode="fi" horiz-adv-x="564" 
d="M43 53h68v287h-70v53h70v54q0 85 54 128t141 43q72 0 123 -27t51 -70q0 -21 -12 -33t-34 -12t-35 12t-13 31q0 7 3 14.5t8 11.5q-12 14 -38 22t-53 8q-57 0 -89 -31t-32 -98v-53h286v-340h68v-53h-213v53h72v287h-213v-287h87v-53h-229v53z" />
    <glyph glyph-name=".notdef" horiz-adv-x="518" 
d="M40 0v563h438v-563h-438zM100 70h318v423h-318v-423z" />
    <glyph glyph-name="NULL" 
 />
    <glyph glyph-name="NULL" 
 />
    <glyph glyph-name="nonmarkingreturn" unicode="&#xd;" horiz-adv-x="305" 
 />
    <glyph glyph-name="space" unicode=" " horiz-adv-x="305" 
 />
    <glyph glyph-name="A" unicode="A" horiz-adv-x="675" 
d="M28 0v53h72l163 457h-63v53h275v-53h-65l168 -457h68v-53h-229v53h75l-57 164h-204l-56 -164h75v-53h-222zM247 270h172l-82 239h-6z" />
    <glyph glyph-name="Aacute" unicode="&#xc1;" horiz-adv-x="675" 
d="M28 0v53h72l163 457h-63v53h275v-53h-65l168 -457h68v-53h-229v53h75l-57 164h-204l-56 -164h75v-53h-222zM247 270h172l-82 239h-6zM315 647l53 145h84l-90 -145h-47z" />
    <glyph glyph-name="Abreve" unicode="&#x102;" horiz-adv-x="675" 
d="M28 0v53h72l163 457h-63v53h275v-53h-65l168 -457h68v-53h-229v53h75l-57 164h-204l-56 -164h75v-53h-222zM247 270h172l-82 239h-6zM262.5 647q-29.5 27 -34.5 73h49q11 -55 61 -55q23 0 39.5 14.5t20.5 40.5h50q-5 -47 -35 -73.5t-77 -26.5q-44 0 -73.5 27z" />
    <glyph glyph-name="uni1EAE" unicode="&#x1eae;" horiz-adv-x="675" 
d="M28 0v53h72l163 457h-63v53h275v-53h-65l168 -457h68v-53h-229v53h75l-57 164h-204l-56 -164h75v-53h-222zM247 270h172l-82 239h-6zM309 734l39 105h84l-76 -105h-47zM262.5 647q-29.5 27 -34.5 73h49q11 -55 61 -55q23 0 39.5 14.5t20.5 40.5h50q-5 -47 -35 -73.5
t-77 -26.5q-44 0 -73.5 27z" />
    <glyph glyph-name="uni1EB6" unicode="&#x1eb6;" horiz-adv-x="675" 
d="M28 0v53h72l163 457h-63v53h275v-53h-65l168 -457h68v-53h-229v53h75l-57 164h-204l-56 -164h75v-53h-222zM247 270h172l-82 239h-6zM262.5 647q-29.5 27 -34.5 73h49q11 -55 61 -55q23 0 39.5 14.5t20.5 40.5h50q-5 -47 -35 -73.5t-77 -26.5q-44 0 -73.5 27zM300 -126.5
q-14 13.5 -14 31.5q0 19 13.5 32t34.5 13t34 -12t13 -33q1 -18 -12 -31.5t-35 -13.5q-20 0 -34 13.5z" />
    <glyph glyph-name="uni1EB0" unicode="&#x1eb0;" horiz-adv-x="675" 
d="M28 0v53h72l163 457h-63v53h275v-53h-65l168 -457h68v-53h-229v53h75l-57 164h-204l-56 -164h75v-53h-222zM247 270h172l-82 239h-6zM319 734l-76 105h84l39 -105h-47zM262.5 647q-29.5 27 -34.5 73h49q11 -55 61 -55q23 0 39.5 14.5t20.5 40.5h50q-5 -47 -35 -73.5
t-77 -26.5q-44 0 -73.5 27z" />
    <glyph glyph-name="uni1EB2" unicode="&#x1eb2;" horiz-adv-x="675" 
d="M28 0v53h72l163 457h-63v53h275v-53h-65l168 -457h68v-53h-229v53h75l-57 164h-204l-56 -164h75v-53h-222zM247 270h172l-82 239h-6zM317 763q34 11 34 36q0 13 -9.5 20t-24.5 7q-20 0 -43 -13l-15 42q30 17 63 17q36 0 59 -20t23 -51q0 -62 -73 -82zM262.5 647
q-29.5 27 -34.5 73h49q11 -55 61 -55q23 0 39.5 14.5t20.5 40.5h50q-5 -47 -35 -73.5t-77 -26.5q-44 0 -73.5 27z" />
    <glyph glyph-name="uni1EB4" unicode="&#x1eb4;" horiz-adv-x="675" 
d="M28 0v53h72l163 457h-63v53h275v-53h-65l168 -457h68v-53h-229v53h75l-57 164h-204l-56 -164h75v-53h-222zM247 270h172l-82 239h-6zM371.5 761.5q-15.5 4.5 -29 9t-17.5 6.5q-40 17 -57 17q-13 0 -20.5 -7.5t-10.5 -25.5h-31q4 44 23 66t50 22q22 0 70 -20
q42 -17 56 -17q15 0 24 8t13 27h29q-3 -41 -20 -65.5t-50 -24.5q-14 0 -29.5 4.5zM262.5 647q-29.5 27 -34.5 73h49q11 -55 61 -55q23 0 39.5 14.5t20.5 40.5h50q-5 -47 -35 -73.5t-77 -26.5q-44 0 -73.5 27z" />
    <glyph glyph-name="uni01CD" unicode="&#x1cd;" horiz-adv-x="675" 
d="M28 0v53h72l163 457h-63v53h275v-53h-65l168 -457h68v-53h-229v53h75l-57 164h-204l-56 -164h75v-53h-222zM247 270h172l-82 239h-6zM303 618l-81 151h53l64 -109l62 109h52l-79 -151h-71z" />
    <glyph glyph-name="Acircumflex" unicode="&#xc2;" horiz-adv-x="675" 
d="M28 0v53h72l163 457h-63v53h275v-53h-65l168 -457h68v-53h-229v53h75l-57 164h-204l-56 -164h75v-53h-222zM247 270h172l-82 239h-6zM216 619l83 157h78l83 -157h-56l-66 125l-66 -125h-56z" />
    <glyph glyph-name="uni1EA4" unicode="&#x1ea4;" horiz-adv-x="675" 
d="M28 0v53h72l163 457h-63v53h275v-53h-65l168 -457h68v-53h-229v53h75l-57 164h-204l-56 -164h75v-53h-222zM247 270h172l-82 239h-6zM432 710l43 115h74l-70 -115h-47zM216 619l83 127h78l83 -127h-56l-66 95l-66 -95h-56z" />
    <glyph glyph-name="uni1EAC" unicode="&#x1eac;" horiz-adv-x="675" 
d="M28 0v53h72l163 457h-63v53h275v-53h-65l168 -457h68v-53h-229v53h75l-57 164h-204l-56 -164h75v-53h-222zM247 270h172l-82 239h-6zM216 619l83 157h78l83 -157h-56l-66 125l-66 -125h-56zM300 -126.5q-14 13.5 -14 31.5q0 19 13.5 32t34.5 13t34 -12t13 -33
q1 -18 -12 -31.5t-35 -13.5q-20 0 -34 13.5z" />
    <glyph glyph-name="uni1EA6" unicode="&#x1ea6;" horiz-adv-x="675" 
d="M28 0v53h72l163 457h-63v53h275v-53h-65l168 -457h68v-53h-229v53h75l-57 164h-204l-56 -164h75v-53h-222zM247 270h172l-82 239h-6zM499 710h-47l-70 115h74zM216 619l83 127h78l83 -127h-56l-66 95l-66 -95h-56z" />
    <glyph glyph-name="uni1EA8" unicode="&#x1ea8;" horiz-adv-x="675" 
d="M28 0v53h72l163 457h-63v53h275v-53h-65l168 -457h68v-53h-229v53h75l-57 164h-204l-56 -164h75v-53h-222zM247 270h172l-82 239h-6zM422 744q34 11 34 36q0 13 -9.5 20t-24.5 7q-20 0 -43 -13l-15 42q30 17 63 17q36 0 59 -20t23 -51q0 -62 -73 -82zM216 619l83 127h78
l83 -127h-56l-66 95l-66 -95h-56z" />
    <glyph glyph-name="uni1EAA" unicode="&#x1eaa;" horiz-adv-x="675" 
d="M28 0v53h72l163 457h-63v53h275v-53h-65l168 -457h68v-53h-229v53h75l-57 164h-204l-56 -164h75v-53h-222zM247 270h172l-82 239h-6zM371.5 776.5q-15.5 4.5 -29 9t-17.5 6.5q-40 17 -57 17q-13 0 -20.5 -7.5t-10.5 -25.5h-31q4 44 23 66t50 22q22 0 70 -20
q42 -17 56 -17q15 0 24 8t13 27h29q-3 -41 -20 -65.5t-50 -24.5q-14 0 -29.5 4.5zM216 619l83 127h78l83 -127h-56l-66 95l-66 -95h-56z" />
    <glyph glyph-name="uni0200" unicode="&#x200;" horiz-adv-x="675" 
d="M28 0v53h72l163 457h-63v53h275v-53h-65l168 -457h68v-53h-229v53h75l-57 164h-204l-56 -164h75v-53h-222zM247 270h172l-82 239h-6zM235 647l-94 152h84l57 -152h-47zM370 647l-93 152h84l56 -152h-47z" />
    <glyph glyph-name="Adieresis" unicode="&#xc4;" horiz-adv-x="675" 
d="M28 0v53h72l163 457h-63v53h275v-53h-65l168 -457h68v-53h-229v53h75l-57 164h-204l-56 -164h75v-53h-222zM247 270h172l-82 239h-6zM209.5 639q-12.5 12 -12.5 31t12.5 31t32.5 12t32.5 -12t12.5 -31t-12.5 -31t-32.5 -12t-32.5 12zM402 638.5q-12 11.5 -12 31.5
t12 31.5t32 11.5t32.5 -12t12.5 -31t-12.5 -31t-32.5 -12t-32 11.5z" />
    <glyph glyph-name="uni0226" unicode="&#x226;" horiz-adv-x="675" 
d="M28 0v53h72l163 457h-63v53h275v-53h-65l168 -457h68v-53h-229v53h75l-57 164h-204l-56 -164h75v-53h-222zM247 270h172l-82 239h-6zM304 643.5q-14 13.5 -14 31.5q0 19 13.5 32t34.5 13t34 -12t13 -33q1 -18 -12 -31.5t-35 -13.5q-20 0 -34 13.5z" />
    <glyph glyph-name="uni1EA0" unicode="&#x1ea0;" horiz-adv-x="675" 
d="M28 0v53h72l163 457h-63v53h275v-53h-65l168 -457h68v-53h-229v53h75l-57 164h-204l-56 -164h75v-53h-222zM247 270h172l-82 239h-6zM300 -126.5q-14 13.5 -14 31.5q0 19 13.5 32t34.5 13t34 -12t13 -33q1 -18 -12 -31.5t-35 -13.5q-20 0 -34 13.5z" />
    <glyph glyph-name="Agrave" unicode="&#xc0;" horiz-adv-x="675" 
d="M28 0v53h72l163 457h-63v53h275v-53h-65l168 -457h68v-53h-229v53h75l-57 164h-204l-56 -164h75v-53h-222zM247 270h172l-82 239h-6zM314 647l-90 145h84l53 -145h-47z" />
    <glyph glyph-name="uni1EA2" unicode="&#x1ea2;" horiz-adv-x="675" 
d="M28 0v53h72l163 457h-63v53h275v-53h-65l168 -457h68v-53h-229v53h75l-57 164h-204l-56 -164h75v-53h-222zM247 270h172l-82 239h-6zM324 650q34 11 34 36q0 13 -9.5 20t-24.5 7q-20 0 -43 -13l-15 42q30 17 63 17q36 0 59 -20t23 -51q0 -62 -73 -82z" />
    <glyph glyph-name="uni0202" unicode="&#x202;" horiz-adv-x="675" 
d="M28 0v53h72l163 457h-63v53h275v-53h-65l168 -457h68v-53h-229v53h75l-57 164h-204l-56 -164h75v-53h-222zM247 270h172l-82 239h-6zM257.5 698q31.5 29 80.5 29q48 0 79.5 -29t36.5 -78h-59q-5 25 -19.5 38t-37.5 13q-49 0 -58 -51h-59q5 49 36.5 78z" />
    <glyph glyph-name="Amacron" unicode="&#x100;" horiz-adv-x="675" 
d="M28 0v53h72l163 457h-63v53h275v-53h-65l168 -457h68v-53h-229v53h75l-57 164h-204l-56 -164h75v-53h-222zM247 270h172l-82 239h-6zM233 643v45h210v-45h-210z" />
    <glyph glyph-name="Aogonek" unicode="&#x104;" horiz-adv-x="675" 
d="M28 0v53h72l163 457h-63v53h275v-53h-65l168 -457h68v-53h-229v53h75l-57 164h-204l-56 -164h75v-53h-222zM247 270h172l-82 239h-6zM488 -148.5q-23 20.5 -23 53.5q0 24 13 47t40 48h43q-45 -47 -45 -80q0 -21 13 -32t34 -11q22 0 44 13v-40q-17 -10 -31 -14.5t-31 -4.5
q-34 0 -57 20.5z" />
    <glyph glyph-name="Aring" unicode="&#xc5;" horiz-adv-x="675" 
d="M28 0v53h72l163 457h-63v53h275v-53h-65l168 -457h68v-53h-229v53h75l-57 164h-204l-56 -164h75v-53h-222zM247 270h172l-82 239h-6zM280.5 619.5q-21.5 21.5 -21.5 53.5t21 52.5t58 20.5t58 -20.5t21 -52.5t-21.5 -53.5t-57.5 -21.5t-57.5 21.5zM370 641.5
q12 12.5 12 31.5t-12 31t-32 12q-21 0 -33 -12t-12 -31t12.5 -31.5t32.5 -12.5t32 12.5z" />
    <glyph glyph-name="Aringacute" unicode="&#x1fa;" horiz-adv-x="675" 
d="M28 0v53h72l163 457h-63v53h275v-53h-65l168 -457h68v-53h-229v53h75l-57 164h-204l-56 -164h75v-53h-222zM247 270h172l-82 239h-6zM280.5 619.5q-21.5 21.5 -21.5 53.5t21 52.5t58 20.5t58 -20.5t21 -52.5t-21.5 -53.5t-57.5 -21.5t-57.5 21.5zM370 641.5
q12 12.5 12 31.5t-12 31t-32 12q-21 0 -33 -12t-12 -31t12.5 -31.5t32.5 -12.5t32 12.5zM315 782l53 145h84l-90 -145h-47z" />
    <glyph glyph-name="Atilde" unicode="&#xc3;" horiz-adv-x="675" 
d="M28 0v53h72l163 457h-63v53h275v-53h-65l168 -457h68v-53h-229v53h75l-57 164h-204l-56 -164h75v-53h-222zM247 270h172l-82 239h-6zM371.5 644.5q-15.5 4.5 -29 9t-17.5 6.5q-40 17 -57 17q-13 0 -20.5 -7.5t-10.5 -25.5h-31q4 44 23 66t50 22q22 0 70 -20
q42 -17 56 -17q15 0 24 8t13 27h29q-3 -41 -20 -65.5t-50 -24.5q-14 0 -29.5 4.5z" />
    <glyph glyph-name="AE" unicode="&#xc6;" horiz-adv-x="970" 
d="M22 0v53h76l280 457h-61v53h558l9 -178h-62l-9 125h-272l12 -195h178l-4 66h40l12 -190h-41l-6 68h-178l12 -206h282l-8 126h62l10 -179h-503v53h76l-9 152h-205l-87 -152h68v-53h-230zM297 255h178l-15 255h-9z" />
    <glyph glyph-name="AEacute" unicode="&#x1fc;" horiz-adv-x="970" 
d="M22 0v53h76l280 457h-61v53h558l9 -178h-62l-9 125h-272l12 -195h178l-4 66h40l12 -190h-41l-6 68h-178l12 -206h282l-8 126h62l10 -179h-503v53h76l-9 152h-205l-87 -152h68v-53h-230zM297 255h178l-15 255h-9zM557 647l53 145h84l-90 -145h-47z" />
    <glyph glyph-name="uni01E2" unicode="&#x1e2;" horiz-adv-x="970" 
d="M22 0v53h76l280 457h-61v53h558l9 -178h-62l-9 125h-272l12 -195h178l-4 66h40l12 -190h-41l-6 68h-178l12 -206h282l-8 126h62l10 -179h-503v53h76l-9 152h-205l-87 -152h68v-53h-230zM297 255h178l-15 255h-9zM475 643v45h210v-45h-210z" />
    <glyph glyph-name="B" unicode="B" horiz-adv-x="580" 
d="M39 53h78v457h-78v53h279q94 0 143.5 -35.5t49.5 -104.5q0 -46 -23 -78t-62 -45q56 -14 85.5 -51.5t29.5 -89.5q0 -68 -49 -113.5t-153 -45.5h-300v53zM313 323q117 0 117 97q0 49 -31.5 69.5t-103.5 20.5h-96v-187h114zM325 53q133 0 133 109q0 49 -34 77.5t-102 28.5
h-123v-215h126z" />
    <glyph glyph-name="uni1E02" unicode="&#x1e02;" horiz-adv-x="580" 
d="M39 53h78v457h-78v53h279q94 0 143.5 -35.5t49.5 -104.5q0 -46 -23 -78t-62 -45q56 -14 85.5 -51.5t29.5 -89.5q0 -68 -49 -113.5t-153 -45.5h-300v53zM313 323q117 0 117 97q0 49 -31.5 69.5t-103.5 20.5h-96v-187h114zM325 53q133 0 133 109q0 49 -34 77.5t-102 28.5
h-123v-215h126zM221 643.5q-14 13.5 -14 31.5q0 19 13.5 32t34.5 13t34 -12t13 -33q1 -18 -12 -31.5t-35 -13.5q-20 0 -34 13.5z" />
    <glyph glyph-name="C" unicode="C" horiz-adv-x="665" 
d="M608 152q-63 -161 -264 -163q-87 0 -154 37.5t-104 103.5t-37 152q0 84 36.5 150t104 103.5t155.5 37.5q63 0 113 -23.5t78 -64.5v78h60v-170l-54 -2q-31 64 -78 93t-115 29q-65 0 -114.5 -30.5t-76.5 -82.5t-27 -117q0 -70 28 -123t78 -82t112 -29q68 0 121.5 32
t77.5 101z" />
    <glyph glyph-name="Cacute" unicode="&#x106;" horiz-adv-x="665" 
d="M608 152q-63 -161 -264 -163q-87 0 -154 37.5t-104 103.5t-37 152q0 84 36.5 150t104 103.5t155.5 37.5q63 0 113 -23.5t78 -64.5v78h60v-170l-54 -2q-31 64 -78 93t-115 29q-65 0 -114.5 -30.5t-76.5 -82.5t-27 -117q0 -70 28 -123t78 -82t112 -29q68 0 121.5 32
t77.5 101zM326 647l53 145h84l-90 -145h-47z" />
    <glyph glyph-name="Ccaron" unicode="&#x10c;" horiz-adv-x="665" 
d="M608 152q-63 -161 -264 -163q-87 0 -154 37.5t-104 103.5t-37 152q0 84 36.5 150t104 103.5t155.5 37.5q63 0 113 -23.5t78 -64.5v78h60v-170l-54 -2q-31 64 -78 93t-115 29q-65 0 -114.5 -30.5t-76.5 -82.5t-27 -117q0 -70 28 -123t78 -82t112 -29q68 0 121.5 32
t77.5 101zM314 618l-81 151h53l64 -109l62 109h52l-79 -151h-71z" />
    <glyph glyph-name="Ccedilla" unicode="&#xc7;" horiz-adv-x="665" 
d="M351 -11l-13 -47q36 -4 54 -20.5t18 -39.5q0 -29 -19.5 -43t-51.5 -14q-43 0 -87 19v29q35 -10 57 -10q38 0 38 26q0 28 -57 31l27 70q-80 6 -140.5 44.5t-94 102.5t-33.5 145q0 84 36.5 150t104 103.5t155.5 37.5q63 0 113 -23.5t78 -64.5v78h60v-170l-54 -2
q-31 64 -78 93t-115 29q-65 0 -114.5 -30.5t-76.5 -82.5t-27 -117q0 -70 28 -123t78 -82t112 -29q68 0 121.5 32t77.5 101l60 -30q-62 -158 -257 -163z" />
    <glyph glyph-name="uni1E08" unicode="&#x1e08;" horiz-adv-x="665" 
d="M463 792l-90 -145h-47l53 145h84zM351 -11l-13 -47q36 -4 54 -20.5t18 -39.5q0 -29 -19.5 -43t-51.5 -14q-43 0 -87 19v29q35 -10 57 -10q38 0 38 26q0 28 -57 31l27 70q-80 6 -140.5 44.5t-94 102.5t-33.5 145q0 84 36.5 150t104 103.5t155.5 37.5q63 0 113 -23.5
t78 -64.5v78h60v-170l-54 -2q-31 64 -78 93t-115 29q-65 0 -114.5 -30.5t-76.5 -82.5t-27 -117q0 -70 28 -123t78 -82t112 -29q68 0 121.5 32t77.5 101l60 -30q-62 -158 -257 -163z" />
    <glyph glyph-name="Ccircumflex" unicode="&#x108;" horiz-adv-x="665" 
d="M608 152q-63 -161 -264 -163q-87 0 -154 37.5t-104 103.5t-37 152q0 84 36.5 150t104 103.5t155.5 37.5q63 0 113 -23.5t78 -64.5v78h60v-170l-54 -2q-31 64 -78 93t-115 29q-65 0 -114.5 -30.5t-76.5 -82.5t-27 -117q0 -70 28 -123t78 -82t112 -29q68 0 121.5 32
t77.5 101zM227 619l83 157h78l83 -157h-56l-66 125l-66 -125h-56z" />
    <glyph glyph-name="Cdotaccent" unicode="&#x10a;" horiz-adv-x="665" 
d="M608 152q-63 -161 -264 -163q-87 0 -154 37.5t-104 103.5t-37 152q0 84 36.5 150t104 103.5t155.5 37.5q63 0 113 -23.5t78 -64.5v78h60v-170l-54 -2q-31 64 -78 93t-115 29q-65 0 -114.5 -30.5t-76.5 -82.5t-27 -117q0 -70 28 -123t78 -82t112 -29q68 0 121.5 32
t77.5 101zM315 643.5q-14 13.5 -14 31.5q0 19 13.5 32t34.5 13t34 -12t13 -33q1 -18 -12 -31.5t-35 -13.5q-20 0 -34 13.5z" />
    <glyph glyph-name="D" unicode="D" horiz-adv-x="684" 
d="M40 53h78v457h-78v53h306q93 0 158.5 -39t98 -102.5t32.5 -134.5q0 -84 -32.5 -149t-97 -101.5t-158.5 -36.5h-307v53zM339 53q107 0 159.5 64t52.5 168q0 60 -23 111t-70 82.5t-116 31.5h-142v-457h139z" />
    <glyph glyph-name="uni01F1" unicode="&#x1f1;" horiz-adv-x="1260" 
d="M40 53h78v457h-78v53h306q93 0 158.5 -39t98 -102.5t32.5 -134.5q0 -84 -32.5 -149t-97 -101.5t-158.5 -36.5h-307v53zM339 53q107 0 159.5 64t52.5 168q0 60 -23 111t-70 82.5t-116 31.5h-142v-457h139zM746 0v57l355 453h-280v-133h-60v186h439v-51l-358 -459h305v142
h60v-195h-461z" />
    <glyph glyph-name="uni01C4" unicode="&#x1c4;" horiz-adv-x="1260" 
d="M40 53h78v457h-78v53h306q93 0 158.5 -39t98 -102.5t32.5 -134.5q0 -84 -32.5 -149t-97 -101.5t-158.5 -36.5h-307v53zM339 53q107 0 159.5 64t52.5 168q0 60 -23 111t-70 82.5t-116 31.5h-142v-457h139zM746 0v57l355 453h-280v-133h-60v186h439v-51l-358 -459h305v142
h60v-195h-461zM946 618l-81 151h53l64 -109l62 109h52l-79 -151h-71z" />
    <glyph glyph-name="Eth" unicode="&#xd0;" horiz-adv-x="684" 
d="M504.5 524q65.5 -39 98 -102.5t32.5 -134.5q0 -84 -32.5 -149t-97 -101.5t-158.5 -36.5h-307v53h78v208h-78v56h78v193h-78v53h306q93 0 158.5 -39zM498.5 117q52.5 64 52.5 168q0 60 -23 111t-70 82.5t-116 31.5h-142v-193h79v-56h-79v-208h139q107 0 159.5 64z" />
    <glyph glyph-name="Dcaron" unicode="&#x10e;" horiz-adv-x="684" 
d="M40 53h78v457h-78v53h306q93 0 158.5 -39t98 -102.5t32.5 -134.5q0 -84 -32.5 -149t-97 -101.5t-158.5 -36.5h-307v53zM339 53q107 0 159.5 64t52.5 168q0 60 -23 111t-70 82.5t-116 31.5h-142v-457h139zM337 618l-81 151h53l64 -109l62 109h52l-79 -151h-71z" />
    <glyph glyph-name="Dcroat" unicode="&#x110;" horiz-adv-x="684" 
d="M504.5 524q65.5 -39 98 -102.5t32.5 -134.5q0 -84 -32.5 -149t-97 -101.5t-158.5 -36.5h-307v53h78v208h-78v56h78v193h-78v53h306q93 0 158.5 -39zM498.5 117q52.5 64 52.5 168q0 60 -23 111t-70 82.5t-116 31.5h-142v-193h79v-56h-79v-208h139q107 0 159.5 64z" />
    <glyph glyph-name="uni1E0A" unicode="&#x1e0a;" horiz-adv-x="684" 
d="M40 53h78v457h-78v53h306q93 0 158.5 -39t98 -102.5t32.5 -134.5q0 -84 -32.5 -149t-97 -101.5t-158.5 -36.5h-307v53zM339 53q107 0 159.5 64t52.5 168q0 60 -23 111t-70 82.5t-116 31.5h-142v-457h139zM338 643.5q-14 13.5 -14 31.5q0 19 13.5 32t34.5 13t34 -12
t13 -33q1 -18 -12 -31.5t-35 -13.5q-20 0 -34 13.5z" />
    <glyph glyph-name="uni1E0C" unicode="&#x1e0c;" horiz-adv-x="684" 
d="M40 53h78v457h-78v53h306q93 0 158.5 -39t98 -102.5t32.5 -134.5q0 -84 -32.5 -149t-97 -101.5t-158.5 -36.5h-307v53zM339 53q107 0 159.5 64t52.5 168q0 60 -23 111t-70 82.5t-116 31.5h-142v-457h139zM341 -126.5q-14 13.5 -14 31.5q0 19 13.5 32t34.5 13t34 -12
t13 -33q1 -18 -12 -31.5t-35 -13.5q-20 0 -34 13.5z" />
    <glyph glyph-name="uni1E0E" unicode="&#x1e0e;" horiz-adv-x="684" 
d="M40 53h78v457h-78v53h306q93 0 158.5 -39t98 -102.5t32.5 -134.5q0 -84 -32.5 -149t-97 -101.5t-158.5 -36.5h-307v53zM339 53q107 0 159.5 64t52.5 168q0 60 -23 111t-70 82.5t-116 31.5h-142v-457h139zM270 -82v45h210v-45h-210z" />
    <glyph glyph-name="uni01F2" unicode="&#x1f2;" horiz-adv-x="1082" 
d="M40 53h78v457h-78v53h306q93 0 158.5 -39t98 -102.5t32.5 -134.5q0 -84 -32.5 -149t-97 -101.5t-158.5 -36.5h-307v53zM339 53q107 0 159.5 64t52.5 168q0 60 -23 111t-70 82.5t-116 31.5h-142v-457h139zM695 0v52l253 290h-192v-81h-56v132h334v-55l-253 -288h201v90h58
v-140h-345z" />
    <glyph glyph-name="uni01C5" unicode="&#x1c5;" horiz-adv-x="1122" 
d="M40 53h78v457h-78v53h306q93 0 158.5 -39t98 -102.5t32.5 -134.5q0 -84 -32.5 -149t-97 -101.5t-158.5 -36.5h-307v53zM339 53q107 0 159.5 64t52.5 168q0 60 -23 111t-70 82.5t-116 31.5h-142v-457h139zM735 0v52l253 290h-192v-81h-56v132h334v-55l-253 -288h201v90h58
v-140h-345zM877 448l-81 151h53l64 -109l62 109h52l-79 -151h-71z" />
    <glyph glyph-name="E" unicode="E" horiz-adv-x="582" 
d="M39 0v53h78v457h-78v53h490v-167h-63v114h-267v-191h175v66h41v-188h-41v67h-175v-211h272v117h63v-170h-495z" />
    <glyph glyph-name="Eacute" unicode="&#xc9;" horiz-adv-x="582" 
d="M39 0v53h78v457h-78v53h490v-167h-63v114h-267v-191h175v66h41v-188h-41v67h-175v-211h272v117h63v-170h-495zM287 647l53 145h84l-90 -145h-47z" />
    <glyph glyph-name="Ebreve" unicode="&#x114;" horiz-adv-x="582" 
d="M39 0v53h78v457h-78v53h490v-167h-63v114h-267v-191h175v66h41v-188h-41v67h-175v-211h272v117h63v-170h-495zM234.5 647q-29.5 27 -34.5 73h49q11 -55 61 -55q23 0 39.5 14.5t20.5 40.5h50q-5 -47 -35 -73.5t-77 -26.5q-44 0 -73.5 27z" />
    <glyph glyph-name="Ecaron" unicode="&#x11a;" horiz-adv-x="582" 
d="M39 0v53h78v457h-78v53h490v-167h-63v114h-267v-191h175v66h41v-188h-41v67h-175v-211h272v117h63v-170h-495zM275 618l-81 151h53l64 -109l62 109h52l-79 -151h-71z" />
    <glyph glyph-name="uni0228" unicode="&#x228;" horiz-adv-x="582" 
d="M39 0v53h78v457h-78v53h490v-167h-63v114h-267v-191h175v66h41v-188h-41v67h-175v-211h272v117h63v-170h-495zM242 -156v29q35 -10 57 -10q38 0 38 26q0 28 -57 31l31 80h33l-16 -58q36 -4 54 -20.5t18 -39.5q0 -29 -19.5 -43t-51.5 -14q-43 0 -87 19z" />
    <glyph glyph-name="uni1E1C" unicode="&#x1e1c;" horiz-adv-x="582" 
d="M39 0v53h78v457h-78v53h490v-167h-63v114h-267v-191h175v66h41v-188h-41v67h-175v-211h272v117h63v-170h-495zM242 -156v29q35 -10 57 -10q38 0 38 26q0 28 -57 31l31 80h33l-16 -58q36 -4 54 -20.5t18 -39.5q0 -29 -19.5 -43t-51.5 -14q-43 0 -87 19zM234.5 647
q-29.5 27 -34.5 73h49q11 -55 61 -55q23 0 39.5 14.5t20.5 40.5h50q-5 -47 -35 -73.5t-77 -26.5q-44 0 -73.5 27z" />
    <glyph glyph-name="Ecircumflex" unicode="&#xca;" horiz-adv-x="582" 
d="M39 0v53h78v457h-78v53h490v-167h-63v114h-267v-191h175v66h41v-188h-41v67h-175v-211h272v117h63v-170h-495zM188 619l83 157h78l83 -157h-56l-66 125l-66 -125h-56z" />
    <glyph glyph-name="uni1EBE" unicode="&#x1ebe;" horiz-adv-x="582" 
d="M39 0v53h78v457h-78v53h490v-167h-63v114h-267v-191h175v66h41v-188h-41v67h-175v-211h272v117h63v-170h-495zM404 710l43 115h74l-70 -115h-47zM188 619l83 127h78l83 -127h-56l-66 95l-66 -95h-56z" />
    <glyph glyph-name="uni1EC6" unicode="&#x1ec6;" horiz-adv-x="582" 
d="M39 0v53h78v457h-78v53h490v-167h-63v114h-267v-191h175v66h41v-188h-41v67h-175v-211h272v117h63v-170h-495zM188 619l83 157h78l83 -157h-56l-66 125l-66 -125h-56zM293 -126.5q-14 13.5 -14 31.5q0 19 13.5 32t34.5 13t34 -12t13 -33q1 -18 -12 -31.5t-35 -13.5
q-20 0 -34 13.5z" />
    <glyph glyph-name="uni1EC0" unicode="&#x1ec0;" horiz-adv-x="582" 
d="M39 0v53h78v457h-78v53h490v-167h-63v114h-267v-191h175v66h41v-188h-41v67h-175v-211h272v117h63v-170h-495zM471 710h-47l-70 115h74zM188 619l83 127h78l83 -127h-56l-66 95l-66 -95h-56z" />
    <glyph glyph-name="uni1EC2" unicode="&#x1ec2;" horiz-adv-x="582" 
d="M39 0v53h78v457h-78v53h490v-167h-63v114h-267v-191h175v66h41v-188h-41v67h-175v-211h272v117h63v-170h-495zM394 744q34 11 34 36q0 13 -9.5 20t-24.5 7q-20 0 -43 -13l-15 42q30 17 63 17q36 0 59 -20t23 -51q0 -62 -73 -82zM188 619l83 127h78l83 -127h-56l-66 95
l-66 -95h-56z" />
    <glyph glyph-name="uni1EC4" unicode="&#x1ec4;" horiz-adv-x="582" 
d="M39 0v53h78v457h-78v53h490v-167h-63v114h-267v-191h175v66h41v-188h-41v67h-175v-211h272v117h63v-170h-495zM343.5 776.5q-15.5 4.5 -29 9t-17.5 6.5q-40 17 -57 17q-13 0 -20.5 -7.5t-10.5 -25.5h-31q4 44 23 66t50 22q22 0 70 -20q42 -17 56 -17q15 0 24 8t13 27h29
q-3 -41 -20 -65.5t-50 -24.5q-14 0 -29.5 4.5zM188 619l83 127h78l83 -127h-56l-66 95l-66 -95h-56z" />
    <glyph glyph-name="uni0204" unicode="&#x204;" horiz-adv-x="582" 
d="M39 0v53h78v457h-78v53h490v-167h-63v114h-267v-191h175v66h41v-188h-41v67h-175v-211h272v117h63v-170h-495zM207 647l-94 152h84l57 -152h-47zM342 647l-93 152h84l56 -152h-47z" />
    <glyph glyph-name="Edieresis" unicode="&#xcb;" horiz-adv-x="582" 
d="M39 0v53h78v457h-78v53h490v-167h-63v114h-267v-191h175v66h41v-188h-41v67h-175v-211h272v117h63v-170h-495zM181.5 639q-12.5 12 -12.5 31t12.5 31t32.5 12t32.5 -12t12.5 -31t-12.5 -31t-32.5 -12t-32.5 12zM374 638.5q-12 11.5 -12 31.5t12 31.5t32 11.5t32.5 -12
t12.5 -31t-12.5 -31t-32.5 -12t-32 11.5z" />
    <glyph glyph-name="Edotaccent" unicode="&#x116;" horiz-adv-x="582" 
d="M39 0v53h78v457h-78v53h490v-167h-63v114h-267v-191h175v66h41v-188h-41v67h-175v-211h272v117h63v-170h-495zM276 643.5q-14 13.5 -14 31.5q0 19 13.5 32t34.5 13t34 -12t13 -33q1 -18 -12 -31.5t-35 -13.5q-20 0 -34 13.5z" />
    <glyph glyph-name="uni1EB8" unicode="&#x1eb8;" horiz-adv-x="582" 
d="M39 0v53h78v457h-78v53h490v-167h-63v114h-267v-191h175v66h41v-188h-41v67h-175v-211h272v117h63v-170h-495zM293 -126.5q-14 13.5 -14 31.5q0 19 13.5 32t34.5 13t34 -12t13 -33q1 -18 -12 -31.5t-35 -13.5q-20 0 -34 13.5z" />
    <glyph glyph-name="Egrave" unicode="&#xc8;" horiz-adv-x="582" 
d="M39 0v53h78v457h-78v53h490v-167h-63v114h-267v-191h175v66h41v-188h-41v67h-175v-211h272v117h63v-170h-495zM286 647l-90 145h84l53 -145h-47z" />
    <glyph glyph-name="uni1EBA" unicode="&#x1eba;" horiz-adv-x="582" 
d="M39 0v53h78v457h-78v53h490v-167h-63v114h-267v-191h175v66h41v-188h-41v67h-175v-211h272v117h63v-170h-495zM296 650q34 11 34 36q0 13 -9.5 20t-24.5 7q-20 0 -43 -13l-15 42q30 17 63 17q36 0 59 -20t23 -51q0 -62 -73 -82z" />
    <glyph glyph-name="uni0206" unicode="&#x206;" horiz-adv-x="582" 
d="M39 0v53h78v457h-78v53h490v-167h-63v114h-267v-191h175v66h41v-188h-41v67h-175v-211h272v117h63v-170h-495zM229.5 698q31.5 29 80.5 29q48 0 79.5 -29t36.5 -78h-59q-5 25 -19.5 38t-37.5 13q-49 0 -58 -51h-59q5 49 36.5 78z" />
    <glyph glyph-name="Emacron" unicode="&#x112;" horiz-adv-x="582" 
d="M39 0v53h78v457h-78v53h490v-167h-63v114h-267v-191h175v66h41v-188h-41v67h-175v-211h272v117h63v-170h-495zM205 643v45h210v-45h-210z" />
    <glyph glyph-name="uni1E16" unicode="&#x1e16;" horiz-adv-x="582" 
d="M39 0v53h78v457h-78v53h490v-167h-63v114h-267v-191h175v66h41v-188h-41v67h-175v-211h272v117h63v-170h-495zM205 643v45h210v-45h-210zM287 761l53 145h84l-90 -145h-47z" />
    <glyph glyph-name="uni1E14" unicode="&#x1e14;" horiz-adv-x="582" 
d="M39 0v53h78v457h-78v53h490v-167h-63v114h-267v-191h175v66h41v-188h-41v67h-175v-211h272v117h63v-170h-495zM205 643v45h210v-45h-210zM286 761l-90 145h84l53 -145h-47z" />
    <glyph glyph-name="Eogonek" unicode="&#x118;" horiz-adv-x="582" 
d="M39 0v53h78v457h-78v53h490v-167h-63v114h-267v-191h175v66h41v-188h-41v67h-175v-211h272v117h63v-170h-495zM401 -148.5q-23 20.5 -23 53.5q0 24 13 47t40 48h43q-45 -47 -45 -80q0 -21 13 -32t34 -11q22 0 44 13v-40q-17 -10 -31 -14.5t-31 -4.5q-34 0 -57 20.5z" />
    <glyph glyph-name="uni1EBC" unicode="&#x1ebc;" horiz-adv-x="582" 
d="M39 0v53h78v457h-78v53h490v-167h-63v114h-267v-191h175v66h41v-188h-41v67h-175v-211h272v117h63v-170h-495zM343.5 644.5q-15.5 4.5 -29 9t-17.5 6.5q-40 17 -57 17q-13 0 -20.5 -7.5t-10.5 -25.5h-31q4 44 23 66t50 22q22 0 70 -20q42 -17 56 -17q15 0 24 8t13 27h29
q-3 -41 -20 -65.5t-50 -24.5q-14 0 -29.5 4.5z" />
    <glyph glyph-name="F" unicode="F" horiz-adv-x="542" 
d="M39 0v53h78v457h-78v53h481v-171h-63v118h-258v-189h170v61h42v-183h-42v65h-170v-211h78v-53h-238z" />
    <glyph glyph-name="uni1E1E" unicode="&#x1e1e;" horiz-adv-x="542" 
d="M39 0v53h78v457h-78v53h481v-171h-63v118h-258v-189h170v61h42v-183h-42v65h-170v-211h78v-53h-238zM265 643.5q-14 13.5 -14 31.5q0 19 13.5 32t34.5 13t34 -12t13 -33q1 -18 -12 -31.5t-35 -13.5q-20 0 -34 13.5z" />
    <glyph glyph-name="G" unicode="G" horiz-adv-x="684" 
d="M639 284v-30q0 -122 -74 -193t-209 -71q-96 0 -165.5 37t-106 103.5t-36.5 152.5t39 152t108.5 102t158.5 36q63 0 112 -21t81 -60v71h65v-174h-58q-27 60 -78 92.5t-119 32.5q-102 0 -161.5 -61t-59.5 -165q0 -110 60 -174t163 -64q88 2 143 46t57 132h-119v56h199z" />
    <glyph glyph-name="uni01F4" unicode="&#x1f4;" horiz-adv-x="684" 
d="M639 284v-30q0 -122 -74 -193t-209 -71q-96 0 -165.5 37t-106 103.5t-36.5 152.5t39 152t108.5 102t158.5 36q63 0 112 -21t81 -60v71h65v-174h-58q-27 60 -78 92.5t-119 32.5q-102 0 -161.5 -61t-59.5 -165q0 -110 60 -174t163 -64q88 2 143 46t57 132h-119v56h199z
M328 647l53 145h84l-90 -145h-47z" />
    <glyph glyph-name="Gbreve" unicode="&#x11e;" horiz-adv-x="684" 
d="M639 284v-30q0 -122 -74 -193t-209 -71q-96 0 -165.5 37t-106 103.5t-36.5 152.5t39 152t108.5 102t158.5 36q63 0 112 -21t81 -60v71h65v-174h-58q-27 60 -78 92.5t-119 32.5q-102 0 -161.5 -61t-59.5 -165q0 -110 60 -174t163 -64q88 2 143 46t57 132h-119v56h199z
M275.5 647q-29.5 27 -34.5 73h49q11 -55 61 -55q23 0 39.5 14.5t20.5 40.5h50q-5 -47 -35 -73.5t-77 -26.5q-44 0 -73.5 27z" />
    <glyph glyph-name="Gcaron" unicode="&#x1e6;" horiz-adv-x="684" 
d="M639 284v-30q0 -122 -74 -193t-209 -71q-96 0 -165.5 37t-106 103.5t-36.5 152.5t39 152t108.5 102t158.5 36q63 0 112 -21t81 -60v71h65v-174h-58q-27 60 -78 92.5t-119 32.5q-102 0 -161.5 -61t-59.5 -165q0 -110 60 -174t163 -64q88 2 143 46t57 132h-119v56h199z
M316 618l-81 151h53l64 -109l62 109h52l-79 -151h-71z" />
    <glyph glyph-name="Gcircumflex" unicode="&#x11c;" horiz-adv-x="684" 
d="M639 284v-30q0 -122 -74 -193t-209 -71q-96 0 -165.5 37t-106 103.5t-36.5 152.5t39 152t108.5 102t158.5 36q63 0 112 -21t81 -60v71h65v-174h-58q-27 60 -78 92.5t-119 32.5q-102 0 -161.5 -61t-59.5 -165q0 -110 60 -174t163 -64q88 2 143 46t57 132h-119v56h199z
M229 619l83 157h78l83 -157h-56l-66 125l-66 -125h-56z" />
    <glyph glyph-name="Gcommaaccent" unicode="&#x122;" horiz-adv-x="684" 
d="M639 284v-30q0 -122 -74 -193t-209 -71q-96 0 -165.5 37t-106 103.5t-36.5 152.5t39 152t108.5 102t158.5 36q63 0 112 -21t81 -60v71h65v-174h-58q-27 60 -78 92.5t-119 32.5q-102 0 -161.5 -61t-59.5 -165q0 -110 60 -174t163 -64q88 2 143 46t57 132h-119v56h199z
M299 -204q29 5 42.5 21.5t13.5 45.5h-54v87h95v-89q0 -46 -24 -71.5t-73 -25.5v32z" />
    <glyph glyph-name="Gdotaccent" unicode="&#x120;" horiz-adv-x="684" 
d="M639 284v-30q0 -122 -74 -193t-209 -71q-96 0 -165.5 37t-106 103.5t-36.5 152.5t39 152t108.5 102t158.5 36q63 0 112 -21t81 -60v71h65v-174h-58q-27 60 -78 92.5t-119 32.5q-102 0 -161.5 -61t-59.5 -165q0 -110 60 -174t163 -64q88 2 143 46t57 132h-119v56h199z
M317 643.5q-14 13.5 -14 31.5q0 19 13.5 32t34.5 13t34 -12t13 -33q1 -18 -12 -31.5t-35 -13.5q-20 0 -34 13.5z" />
    <glyph glyph-name="uni1E20" unicode="&#x1e20;" horiz-adv-x="684" 
d="M639 284v-30q0 -122 -74 -193t-209 -71q-96 0 -165.5 37t-106 103.5t-36.5 152.5t39 152t108.5 102t158.5 36q63 0 112 -21t81 -60v71h65v-174h-58q-27 60 -78 92.5t-119 32.5q-102 0 -161.5 -61t-59.5 -165q0 -110 60 -174t163 -64q88 2 143 46t57 132h-119v56h199z
M246 643v45h210v-45h-210z" />
    <glyph glyph-name="H" unicode="H" horiz-adv-x="697" 
d="M39 0v53h78v457h-78v53h238v-53h-78v-192h300v192h-79v53h238v-53h-78v-457h78v-53h-238v53h79v208h-300v-208h78v-53h-238z" />
    <glyph glyph-name="Hbar" unicode="&#x126;" horiz-adv-x="697" 
d="M658 510h-78v-70h64v-48h-64v-339h78v-53h-238v53h79v208h-300v-208h78v-53h-238v53h78v339h-62v48h62v70h-78v53h238v-53h-78v-70h300v70h-79v53h238v-53zM499 318v74h-300v-74h300z" />
    <glyph glyph-name="uni1E2A" unicode="&#x1e2a;" horiz-adv-x="697" 
d="M39 0v53h78v457h-78v53h238v-53h-78v-192h300v192h-79v53h238v-53h-78v-457h78v-53h-238v53h79v208h-300v-208h78v-53h-238zM271.5 -123q-29.5 27 -34.5 73h49q11 -55 61 -55q23 0 39.5 14.5t20.5 40.5h50q-5 -47 -35 -73.5t-77 -26.5q-44 0 -73.5 27z" />
    <glyph glyph-name="uni021E" unicode="&#x21e;" horiz-adv-x="697" 
d="M39 0v53h78v457h-78v53h238v-53h-78v-192h300v192h-79v53h238v-53h-78v-457h78v-53h-238v53h79v208h-300v-208h78v-53h-238zM317 618l-81 151h53l64 -109l62 109h52l-79 -151h-71z" />
    <glyph glyph-name="Hcircumflex" unicode="&#x124;" horiz-adv-x="697" 
d="M39 0v53h78v457h-78v53h238v-53h-78v-192h300v192h-79v53h238v-53h-78v-457h78v-53h-238v53h79v208h-300v-208h78v-53h-238zM230 619l83 157h78l83 -157h-56l-66 125l-66 -125h-56z" />
    <glyph glyph-name="uni1E24" unicode="&#x1e24;" horiz-adv-x="697" 
d="M39 0v53h78v457h-78v53h238v-53h-78v-192h300v192h-79v53h238v-53h-78v-457h78v-53h-238v53h79v208h-300v-208h78v-53h-238zM313 -126.5q-14 13.5 -14 31.5q0 19 13.5 32t34.5 13t34 -12t13 -33q1 -18 -12 -31.5t-35 -13.5q-20 0 -34 13.5z" />
    <glyph glyph-name="I" unicode="I" horiz-adv-x="339" 
d="M50 0v53h78v457h-78v53h239v-53h-79v-457h79v-53h-239z" />
    <glyph glyph-name="IJ" unicode="&#x132;" horiz-adv-x="665" 
d="M50 0v53h78v457h-78v53h239v-53h-79v-457h79v-53h-239zM372 -42h60q34 0 45.5 20t11.5 62v470h-77v53h231v-53h-73v-469q0 -76 -29 -111.5t-96 -35.5h-73v64z" />
    <glyph glyph-name="Iacute" unicode="&#xcd;" horiz-adv-x="339" 
d="M50 0v53h78v457h-78v53h239v-53h-79v-457h79v-53h-239zM147 647l53 145h84l-90 -145h-47z" />
    <glyph glyph-name="Ibreve" unicode="&#x12c;" horiz-adv-x="339" 
d="M50 0v53h78v457h-78v53h239v-53h-79v-457h79v-53h-239zM94.5 647q-29.5 27 -34.5 73h49q11 -55 61 -55q23 0 39.5 14.5t20.5 40.5h50q-5 -47 -35 -73.5t-77 -26.5q-44 0 -73.5 27z" />
    <glyph glyph-name="uni01CF" unicode="&#x1cf;" horiz-adv-x="339" 
d="M50 0v53h78v457h-78v53h239v-53h-79v-457h79v-53h-239zM135 618l-81 151h53l64 -109l62 109h52l-79 -151h-71z" />
    <glyph glyph-name="Icircumflex" unicode="&#xce;" horiz-adv-x="339" 
d="M50 0v53h78v457h-78v53h239v-53h-79v-457h79v-53h-239zM48 619l83 157h78l83 -157h-56l-66 125l-66 -125h-56z" />
    <glyph glyph-name="uni0208" unicode="&#x208;" horiz-adv-x="339" 
d="M50 0v53h78v457h-78v53h239v-53h-79v-457h79v-53h-239zM67 647l-94 152h84l57 -152h-47zM202 647l-93 152h84l56 -152h-47z" />
    <glyph glyph-name="Idieresis" unicode="&#xcf;" horiz-adv-x="339" 
d="M50 0v53h78v457h-78v53h239v-53h-79v-457h79v-53h-239zM41.5 639q-12.5 12 -12.5 31t12.5 31t32.5 12t32.5 -12t12.5 -31t-12.5 -31t-32.5 -12t-32.5 12zM234 638.5q-12 11.5 -12 31.5t12 31.5t32 11.5t32.5 -12t12.5 -31t-12.5 -31t-32.5 -12t-32 11.5z" />
    <glyph glyph-name="uni1E2E" unicode="&#x1e2e;" horiz-adv-x="339" 
d="M50 0v53h78v457h-78v53h239v-53h-79v-457h79v-53h-239zM41.5 639q-12.5 12 -12.5 31t12.5 31t32.5 12t32.5 -12t12.5 -31t-12.5 -31t-32.5 -12t-32.5 12zM234 638.5q-12 11.5 -12 31.5t12 31.5t32 11.5t32.5 -12t12.5 -31t-12.5 -31t-32.5 -12t-32 11.5zM147 797l53 145
h84l-90 -145h-47z" />
    <glyph glyph-name="Idotaccent" unicode="&#x130;" horiz-adv-x="339" 
d="M50 0v53h78v457h-78v53h239v-53h-79v-457h79v-53h-239zM136 643.5q-14 13.5 -14 31.5q0 19 13.5 32t34.5 13t34 -12t13 -33q1 -18 -12 -31.5t-35 -13.5q-20 0 -34 13.5z" />
    <glyph glyph-name="uni1ECA" unicode="&#x1eca;" horiz-adv-x="339" 
d="M50 0v53h78v457h-78v53h239v-53h-79v-457h79v-53h-239zM135 -126.5q-14 13.5 -14 31.5q0 19 13.5 32t34.5 13t34 -12t13 -33q1 -18 -12 -31.5t-35 -13.5q-20 0 -34 13.5z" />
    <glyph glyph-name="Igrave" unicode="&#xcc;" horiz-adv-x="339" 
d="M50 0v53h78v457h-78v53h239v-53h-79v-457h79v-53h-239zM146 647l-90 145h84l53 -145h-47z" />
    <glyph glyph-name="uni1EC8" unicode="&#x1ec8;" horiz-adv-x="339" 
d="M50 0v53h78v457h-78v53h239v-53h-79v-457h79v-53h-239zM156 650q34 11 34 36q0 13 -9.5 20t-24.5 7q-20 0 -43 -13l-15 42q30 17 63 17q36 0 59 -20t23 -51q0 -62 -73 -82z" />
    <glyph glyph-name="uni020A" unicode="&#x20a;" horiz-adv-x="339" 
d="M50 0v53h78v457h-78v53h239v-53h-79v-457h79v-53h-239zM89.5 698q31.5 29 80.5 29q48 0 79.5 -29t36.5 -78h-59q-5 25 -19.5 38t-37.5 13q-49 0 -58 -51h-59q5 49 36.5 78z" />
    <glyph glyph-name="Imacron" unicode="&#x12a;" horiz-adv-x="339" 
d="M50 0v53h78v457h-78v53h239v-53h-79v-457h79v-53h-239zM65 643v45h210v-45h-210z" />
    <glyph glyph-name="Iogonek" unicode="&#x12e;" horiz-adv-x="339" 
d="M50 0v53h78v457h-78v53h239v-53h-79v-457h79v-53h-239zM116 -148.5q-23 20.5 -23 53.5q0 24 13 47t40 48h43q-45 -47 -45 -80q0 -21 13 -32t34 -11q22 0 44 13v-40q-17 -10 -31 -14.5t-31 -4.5q-34 0 -57 20.5z" />
    <glyph glyph-name="Itilde" unicode="&#x128;" horiz-adv-x="339" 
d="M50 0v53h78v457h-78v53h239v-53h-79v-457h79v-53h-239zM203.5 644.5q-15.5 4.5 -29 9t-17.5 6.5q-40 17 -57 17q-13 0 -20.5 -7.5t-10.5 -25.5h-31q4 44 23 66t50 22q22 0 70 -20q42 -17 56 -17q15 0 24 8t13 27h29q-3 -41 -20 -65.5t-50 -24.5q-14 0 -29.5 4.5z" />
    <glyph glyph-name="J" unicode="J" horiz-adv-x="326" 
d="M33 -42h60q34 0 45.5 20t11.5 62v470h-77v53h231v-53h-73v-469q0 -76 -29 -111.5t-96 -35.5h-73v64z" />
    <glyph glyph-name="Jcircumflex" unicode="&#x134;" horiz-adv-x="326" 
d="M33 -42h60q34 0 45.5 20t11.5 62v470h-77v53h231v-53h-73v-469q0 -76 -29 -111.5t-96 -35.5h-73v64zM69 619l83 157h78l83 -157h-56l-66 125l-66 -125h-56z" />
    <glyph glyph-name="K" unicode="K" horiz-adv-x="633" 
d="M39 0v53h78v457h-78v53h238v-53h-78v-215l232 215h-64v53h233v-53h-74l-244 -226l248 -231h75v-53h-241v53h66l-231 214v-214h78v-53h-238z" />
    <glyph glyph-name="uni01E8" unicode="&#x1e8;" horiz-adv-x="633" 
d="M39 0v53h78v457h-78v53h238v-53h-78v-215l232 215h-64v53h233v-53h-74l-244 -226l248 -231h75v-53h-241v53h66l-231 214v-214h78v-53h-238zM282 618l-81 151h53l64 -109l62 109h52l-79 -151h-71z" />
    <glyph glyph-name="Kcommaaccent" unicode="&#x136;" horiz-adv-x="633" 
d="M39 0v53h78v457h-78v53h238v-53h-78v-215l232 215h-64v53h233v-53h-74l-244 -226l248 -231h75v-53h-241v53h66l-231 214v-214h78v-53h-238zM269 -204q29 5 42.5 21.5t13.5 45.5h-54v87h95v-89q0 -46 -24 -71.5t-73 -25.5v32z" />
    <glyph glyph-name="L" unicode="L" horiz-adv-x="525" 
d="M39 0v53h78v457h-78v53h238v-53h-78v-457h234v173h66v-226h-460z" />
    <glyph glyph-name="uni01C7" unicode="&#x1c7;" horiz-adv-x="851" 
d="M39 0v53h78v457h-78v53h238v-53h-78v-457h234v173h66v-226h-460zM558 -42h60q34 0 45.5 20t11.5 62v470h-77v53h231v-53h-73v-469q0 -76 -29 -111.5t-96 -35.5h-73v64z" />
    <glyph glyph-name="Lacute" unicode="&#x139;" horiz-adv-x="525" 
d="M39 0v53h78v457h-78v53h238v-53h-78v-457h234v173h66v-226h-460zM135 647l53 145h84l-90 -145h-47z" />
    <glyph glyph-name="Lcaron" unicode="&#x13d;" horiz-adv-x="525" 
d="M39 0v53h78v457h-78v53h238v-53h-78v-457h234v173h66v-226h-460zM402 411q29 5 42 19t13 44h-54v89h96l-1 -90q1 -45 -23 -70t-73 -25v33z" />
    <glyph glyph-name="Lcommaaccent" unicode="&#x13b;" horiz-adv-x="525" 
d="M39 0v53h78v457h-78v53h238v-53h-78v-457h234v173h66v-226h-460zM228 -204q29 5 42.5 21.5t13.5 45.5h-54v87h95v-89q0 -46 -24 -71.5t-73 -25.5v32z" />
    <glyph glyph-name="Ldot" unicode="&#x13f;" horiz-adv-x="525" 
d="M39 0v53h78v457h-78v53h238v-53h-78v-457h234v173h66v-226h-460zM380.5 346q-15.5 15 -15.5 36t15.5 35.5t38.5 14.5t38.5 -14.5t15.5 -35.5t-15.5 -36t-38.5 -15t-38.5 15z" />
    <glyph glyph-name="uni1E36" unicode="&#x1e36;" horiz-adv-x="525" 
d="M39 0v53h78v457h-78v53h238v-53h-78v-457h234v173h66v-226h-460zM242 -126.5q-14 13.5 -14 31.5q0 19 13.5 32t34.5 13t34 -12t13 -33q1 -18 -12 -31.5t-35 -13.5q-20 0 -34 13.5z" />
    <glyph glyph-name="uni01C8" unicode="&#x1c8;" horiz-adv-x="774" 
d="M39 0v53h78v457h-78v53h238v-53h-78v-457h234v173h66v-226h-460zM620.5 494q-15.5 15 -15.5 37q0 21 15.5 35.5t38.5 14.5t38.5 -14.5t15.5 -35.5q0 -22 -15.5 -37t-38.5 -15t-38.5 15zM530 -94h42q39 0 52 18t13 62v354h-80v53h155v-389q0 -52 -9 -84.5t-39.5 -52
t-90.5 -19.5h-43v58z" />
    <glyph glyph-name="uni1E3A" unicode="&#x1e3a;" horiz-adv-x="525" 
d="M39 0v53h78v457h-78v53h238v-53h-78v-457h234v173h66v-226h-460zM171 -82v45h210v-45h-210z" />
    <glyph glyph-name="Lslash" unicode="&#x141;" horiz-adv-x="525" 
d="M433 226h66v-226h-460v53h78v185l-78 -39v51l78 39v221h-78v53h238v-53h-78v-179l139 70v-54l-139 -69v-225h234v173z" />
    <glyph glyph-name="M" unicode="M" horiz-adv-x="824" 
d="M40 0v53h76v457h-76v53h191l184 -395l175 395h194v-53h-76v-457h76v-53h-227v53h73v443l-212 -467h-26l-215 467v-443h73v-53h-210z" />
    <glyph glyph-name="uni1E40" unicode="&#x1e40;" horiz-adv-x="824" 
d="M40 0v53h76v457h-76v53h191l184 -395l175 395h194v-53h-76v-457h76v-53h-227v53h73v443l-212 -467h-26l-215 467v-443h73v-53h-210zM375 643.5q-14 13.5 -14 31.5q0 19 13.5 32t34.5 13t34 -12t13 -33q1 -18 -12 -31.5t-35 -13.5q-20 0 -34 13.5z" />
    <glyph glyph-name="uni1E42" unicode="&#x1e42;" horiz-adv-x="824" 
d="M40 0v53h76v457h-76v53h191l184 -395l175 395h194v-53h-76v-457h76v-53h-227v53h73v443l-212 -467h-26l-215 467v-443h73v-53h-210zM371 -126.5q-14 13.5 -14 31.5q0 19 13.5 32t34.5 13t34 -12t13 -33q1 -18 -12 -31.5t-35 -13.5q-20 0 -34 13.5z" />
    <glyph glyph-name="N" unicode="N" horiz-adv-x="704" 
d="M41 0v53h80v457h-80v53h174l322 -455v402h-80v53h221v-53h-78v-510h-81l-336 479v-426h80v-53h-222z" />
    <glyph glyph-name="uni01CA" unicode="&#x1ca;" horiz-adv-x="1030" 
d="M41 0v53h80v457h-80v53h174l322 -455v402h-80v53h221v-53h-78v-510h-81l-336 479v-426h80v-53h-222zM737 -42h60q34 0 45.5 20t11.5 62v470h-77v53h231v-53h-73v-469q0 -76 -29 -111.5t-96 -35.5h-73v64z" />
    <glyph glyph-name="Nacute" unicode="&#x143;" horiz-adv-x="704" 
d="M41 0v53h80v457h-80v53h174l322 -455v402h-80v53h221v-53h-78v-510h-81l-336 479v-426h80v-53h-222zM328 647l53 145h84l-90 -145h-47z" />
    <glyph glyph-name="Ncaron" unicode="&#x147;" horiz-adv-x="704" 
d="M41 0v53h80v457h-80v53h174l322 -455v402h-80v53h221v-53h-78v-510h-81l-336 479v-426h80v-53h-222zM316 618l-81 151h53l64 -109l62 109h52l-79 -151h-71z" />
    <glyph glyph-name="Ncommaaccent" unicode="&#x145;" horiz-adv-x="704" 
d="M41 0v53h80v457h-80v53h174l322 -455v402h-80v53h221v-53h-78v-510h-81l-336 479v-426h80v-53h-222zM320 -204q29 5 42.5 21.5t13.5 45.5h-54v87h95v-89q0 -46 -24 -71.5t-73 -25.5v32z" />
    <glyph glyph-name="uni1E44" unicode="&#x1e44;" horiz-adv-x="704" 
d="M41 0v53h80v457h-80v53h174l322 -455v402h-80v53h221v-53h-78v-510h-81l-336 479v-426h80v-53h-222zM317 643.5q-14 13.5 -14 31.5q0 19 13.5 32t34.5 13t34 -12t13 -33q1 -18 -12 -31.5t-35 -13.5q-20 0 -34 13.5z" />
    <glyph glyph-name="uni1E46" unicode="&#x1e46;" horiz-adv-x="704" 
d="M41 0v53h80v457h-80v53h174l322 -455v402h-80v53h221v-53h-78v-510h-81l-336 479v-426h80v-53h-222zM334 -126.5q-14 13.5 -14 31.5q0 19 13.5 32t34.5 13t34 -12t13 -33q1 -18 -12 -31.5t-35 -13.5q-20 0 -34 13.5z" />
    <glyph glyph-name="uni01F8" unicode="&#x1f8;" horiz-adv-x="704" 
d="M41 0v53h80v457h-80v53h174l322 -455v402h-80v53h221v-53h-78v-510h-81l-336 479v-426h80v-53h-222zM327 647l-90 145h84l53 -145h-47z" />
    <glyph glyph-name="Eng" unicode="&#x14a;" horiz-adv-x="702" 
d="M391 -130h18q62 0 94.5 30t31.5 86l-354 493v-426h80v-53h-222v53h80v457h-80v53h174l322 -455v402h-80v53h221v-53h-78v-511q0 -91 -52 -137t-135 -46h-20v54z" />
    <glyph glyph-name="uni01CB" unicode="&#x1cb;" horiz-adv-x="953" 
d="M41 0v53h80v457h-80v53h174l322 -455v402h-80v53h221v-53h-78v-510h-81l-336 479v-426h80v-53h-222zM799.5 494q-15.5 15 -15.5 37q0 21 15.5 35.5t38.5 14.5t38.5 -14.5t15.5 -35.5q0 -22 -15.5 -37t-38.5 -15t-38.5 15zM709 -94h42q39 0 52 18t13 62v354h-80v53h155
v-389q0 -52 -9 -84.5t-39.5 -52t-90.5 -19.5h-43v58z" />
    <glyph glyph-name="uni1E48" unicode="&#x1e48;" horiz-adv-x="704" 
d="M41 0v53h80v457h-80v53h174l322 -455v402h-80v53h221v-53h-78v-510h-81l-336 479v-426h80v-53h-222zM263 -82v45h210v-45h-210z" />
    <glyph glyph-name="Ntilde" unicode="&#xd1;" horiz-adv-x="704" 
d="M41 0v53h80v457h-80v53h174l322 -455v402h-80v53h221v-53h-78v-510h-81l-336 479v-426h80v-53h-222zM384.5 644.5q-15.5 4.5 -29 9t-17.5 6.5q-40 17 -57 17q-13 0 -20.5 -7.5t-10.5 -25.5h-31q4 44 23 66t50 22q22 0 70 -20q42 -17 56 -17q15 0 24 8t13 27h29
q-3 -41 -20 -65.5t-50 -24.5q-14 0 -29.5 4.5z" />
    <glyph glyph-name="O" unicode="O" horiz-adv-x="709" 
d="M194.5 28.5q-69.5 39.5 -107.5 106t-38 145.5t38 146.5t107.5 107t159.5 39.5t159.5 -39.5t107.5 -107t38 -146.5t-38 -145.5t-107.5 -106t-159.5 -39.5t-159.5 39.5zM470 80q49 31 75.5 83.5t26.5 116.5q0 65 -26.5 118t-75.5 84.5t-116 31.5t-116 -31.5t-75 -85
t-26 -118.5t26 -117t75 -82.5t116 -30.5t116 31z" />
    <glyph glyph-name="Oacute" unicode="&#xd3;" horiz-adv-x="709" 
d="M194.5 28.5q-69.5 39.5 -107.5 106t-38 145.5t38 146.5t107.5 107t159.5 39.5t159.5 -39.5t107.5 -107t38 -146.5t-38 -145.5t-107.5 -106t-159.5 -39.5t-159.5 39.5zM470 80q49 31 75.5 83.5t26.5 116.5q0 65 -26.5 118t-75.5 84.5t-116 31.5t-116 -31.5t-75 -85
t-26 -118.5t26 -117t75 -82.5t116 -30.5t116 31zM330 647l53 145h84l-90 -145h-47z" />
    <glyph glyph-name="Obreve" unicode="&#x14e;" horiz-adv-x="709" 
d="M194.5 28.5q-69.5 39.5 -107.5 106t-38 145.5t38 146.5t107.5 107t159.5 39.5t159.5 -39.5t107.5 -107t38 -146.5t-38 -145.5t-107.5 -106t-159.5 -39.5t-159.5 39.5zM470 80q49 31 75.5 83.5t26.5 116.5q0 65 -26.5 118t-75.5 84.5t-116 31.5t-116 -31.5t-75 -85
t-26 -118.5t26 -117t75 -82.5t116 -30.5t116 31zM277.5 647q-29.5 27 -34.5 73h49q11 -55 61 -55q23 0 39.5 14.5t20.5 40.5h50q-5 -47 -35 -73.5t-77 -26.5q-44 0 -73.5 27z" />
    <glyph glyph-name="uni01D1" unicode="&#x1d1;" horiz-adv-x="709" 
d="M194.5 28.5q-69.5 39.5 -107.5 106t-38 145.5t38 146.5t107.5 107t159.5 39.5t159.5 -39.5t107.5 -107t38 -146.5t-38 -145.5t-107.5 -106t-159.5 -39.5t-159.5 39.5zM470 80q49 31 75.5 83.5t26.5 116.5q0 65 -26.5 118t-75.5 84.5t-116 31.5t-116 -31.5t-75 -85
t-26 -118.5t26 -117t75 -82.5t116 -30.5t116 31zM318 618l-81 151h53l64 -109l62 109h52l-79 -151h-71z" />
    <glyph glyph-name="Ocircumflex" unicode="&#xd4;" horiz-adv-x="709" 
d="M194.5 28.5q-69.5 39.5 -107.5 106t-38 145.5t38 146.5t107.5 107t159.5 39.5t159.5 -39.5t107.5 -107t38 -146.5t-38 -145.5t-107.5 -106t-159.5 -39.5t-159.5 39.5zM470 80q49 31 75.5 83.5t26.5 116.5q0 65 -26.5 118t-75.5 84.5t-116 31.5t-116 -31.5t-75 -85
t-26 -118.5t26 -117t75 -82.5t116 -30.5t116 31zM231 619l83 157h78l83 -157h-56l-66 125l-66 -125h-56z" />
    <glyph glyph-name="uni1ED0" unicode="&#x1ed0;" horiz-adv-x="709" 
d="M194.5 28.5q-69.5 39.5 -107.5 106t-38 145.5t38 146.5t107.5 107t159.5 39.5t159.5 -39.5t107.5 -107t38 -146.5t-38 -145.5t-107.5 -106t-159.5 -39.5t-159.5 39.5zM470 80q49 31 75.5 83.5t26.5 116.5q0 65 -26.5 118t-75.5 84.5t-116 31.5t-116 -31.5t-75 -85
t-26 -118.5t26 -117t75 -82.5t116 -30.5t116 31zM447 710l43 115h74l-70 -115h-47zM231 619l83 127h78l83 -127h-56l-66 95l-66 -95h-56z" />
    <glyph glyph-name="uni1ED8" unicode="&#x1ed8;" horiz-adv-x="709" 
d="M194.5 28.5q-69.5 39.5 -107.5 106t-38 145.5t38 146.5t107.5 107t159.5 39.5t159.5 -39.5t107.5 -107t38 -146.5t-38 -145.5t-107.5 -106t-159.5 -39.5t-159.5 39.5zM470 80q49 31 75.5 83.5t26.5 116.5q0 65 -26.5 118t-75.5 84.5t-116 31.5t-116 -31.5t-75 -85
t-26 -118.5t26 -117t75 -82.5t116 -30.5t116 31zM321 -126.5q-14 13.5 -14 31.5q0 19 13.5 32t34.5 13t34 -12t13 -33q1 -18 -12 -31.5t-35 -13.5q-20 0 -34 13.5zM231 619l83 157h78l83 -157h-56l-66 125l-66 -125h-56z" />
    <glyph glyph-name="uni1ED2" unicode="&#x1ed2;" horiz-adv-x="709" 
d="M194.5 28.5q-69.5 39.5 -107.5 106t-38 145.5t38 146.5t107.5 107t159.5 39.5t159.5 -39.5t107.5 -107t38 -146.5t-38 -145.5t-107.5 -106t-159.5 -39.5t-159.5 39.5zM470 80q49 31 75.5 83.5t26.5 116.5q0 65 -26.5 118t-75.5 84.5t-116 31.5t-116 -31.5t-75 -85
t-26 -118.5t26 -117t75 -82.5t116 -30.5t116 31zM514 710h-47l-70 115h74zM231 619l83 127h78l83 -127h-56l-66 95l-66 -95h-56z" />
    <glyph glyph-name="uni1ED4" unicode="&#x1ed4;" horiz-adv-x="709" 
d="M194.5 28.5q-69.5 39.5 -107.5 106t-38 145.5t38 146.5t107.5 107t159.5 39.5t159.5 -39.5t107.5 -107t38 -146.5t-38 -145.5t-107.5 -106t-159.5 -39.5t-159.5 39.5zM470 80q49 31 75.5 83.5t26.5 116.5q0 65 -26.5 118t-75.5 84.5t-116 31.5t-116 -31.5t-75 -85
t-26 -118.5t26 -117t75 -82.5t116 -30.5t116 31zM437 744q34 11 34 36q0 13 -9.5 20t-24.5 7q-20 0 -43 -13l-15 42q30 17 63 17q36 0 59 -20t23 -51q0 -62 -73 -82zM231 619l83 127h78l83 -127h-56l-66 95l-66 -95h-56z" />
    <glyph glyph-name="uni1ED6" unicode="&#x1ed6;" horiz-adv-x="709" 
d="M194.5 28.5q-69.5 39.5 -107.5 106t-38 145.5t38 146.5t107.5 107t159.5 39.5t159.5 -39.5t107.5 -107t38 -146.5t-38 -145.5t-107.5 -106t-159.5 -39.5t-159.5 39.5zM470 80q49 31 75.5 83.5t26.5 116.5q0 65 -26.5 118t-75.5 84.5t-116 31.5t-116 -31.5t-75 -85
t-26 -118.5t26 -117t75 -82.5t116 -30.5t116 31zM386.5 776.5q-15.5 4.5 -29 9t-17.5 6.5q-40 17 -57 17q-13 0 -20.5 -7.5t-10.5 -25.5h-31q4 44 23 66t50 22q22 0 70 -20q42 -17 56 -17q15 0 24 8t13 27h29q-3 -41 -20 -65.5t-50 -24.5q-14 0 -29.5 4.5zM231 619l83 127
h78l83 -127h-56l-66 95l-66 -95h-56z" />
    <glyph glyph-name="uni020C" unicode="&#x20c;" horiz-adv-x="709" 
d="M194.5 28.5q-69.5 39.5 -107.5 106t-38 145.5t38 146.5t107.5 107t159.5 39.5t159.5 -39.5t107.5 -107t38 -146.5t-38 -145.5t-107.5 -106t-159.5 -39.5t-159.5 39.5zM470 80q49 31 75.5 83.5t26.5 116.5q0 65 -26.5 118t-75.5 84.5t-116 31.5t-116 -31.5t-75 -85
t-26 -118.5t26 -117t75 -82.5t116 -30.5t116 31zM250 647l-94 152h84l57 -152h-47zM385 647l-93 152h84l56 -152h-47z" />
    <glyph glyph-name="Odieresis" unicode="&#xd6;" horiz-adv-x="709" 
d="M194.5 28.5q-69.5 39.5 -107.5 106t-38 145.5t38 146.5t107.5 107t159.5 39.5t159.5 -39.5t107.5 -107t38 -146.5t-38 -145.5t-107.5 -106t-159.5 -39.5t-159.5 39.5zM470 80q49 31 75.5 83.5t26.5 116.5q0 65 -26.5 118t-75.5 84.5t-116 31.5t-116 -31.5t-75 -85
t-26 -118.5t26 -117t75 -82.5t116 -30.5t116 31zM224.5 639q-12.5 12 -12.5 31t12.5 31t32.5 12t32.5 -12t12.5 -31t-12.5 -31t-32.5 -12t-32.5 12zM417 638.5q-12 11.5 -12 31.5t12 31.5t32 11.5t32.5 -12t12.5 -31t-12.5 -31t-32.5 -12t-32 11.5z" />
    <glyph glyph-name="uni022A" unicode="&#x22a;" horiz-adv-x="709" 
d="M194.5 28.5q-69.5 39.5 -107.5 106t-38 145.5t38 146.5t107.5 107t159.5 39.5t159.5 -39.5t107.5 -107t38 -146.5t-38 -145.5t-107.5 -106t-159.5 -39.5t-159.5 39.5zM470 80q49 31 75.5 83.5t26.5 116.5q0 65 -26.5 118t-75.5 84.5t-116 31.5t-116 -31.5t-75 -85
t-26 -118.5t26 -117t75 -82.5t116 -30.5t116 31zM224.5 639q-12.5 12 -12.5 31t12.5 31t32.5 12t32.5 -12t12.5 -31t-12.5 -31t-32.5 -12t-32.5 12zM417 638.5q-12 11.5 -12 31.5t12 31.5t32 11.5t32.5 -12t12.5 -31t-12.5 -31t-32.5 -12t-32 11.5zM248 793v45h210v-45h-210
z" />
    <glyph glyph-name="uni022E" unicode="&#x22e;" horiz-adv-x="709" 
d="M194.5 28.5q-69.5 39.5 -107.5 106t-38 145.5t38 146.5t107.5 107t159.5 39.5t159.5 -39.5t107.5 -107t38 -146.5t-38 -145.5t-107.5 -106t-159.5 -39.5t-159.5 39.5zM470 80q49 31 75.5 83.5t26.5 116.5q0 65 -26.5 118t-75.5 84.5t-116 31.5t-116 -31.5t-75 -85
t-26 -118.5t26 -117t75 -82.5t116 -30.5t116 31zM319 643.5q-14 13.5 -14 31.5q0 19 13.5 32t34.5 13t34 -12t13 -33q1 -18 -12 -31.5t-35 -13.5q-20 0 -34 13.5z" />
    <glyph glyph-name="uni0230" unicode="&#x230;" horiz-adv-x="709" 
d="M194.5 28.5q-69.5 39.5 -107.5 106t-38 145.5t38 146.5t107.5 107t159.5 39.5t159.5 -39.5t107.5 -107t38 -146.5t-38 -145.5t-107.5 -106t-159.5 -39.5t-159.5 39.5zM470 80q49 31 75.5 83.5t26.5 116.5q0 65 -26.5 118t-75.5 84.5t-116 31.5t-116 -31.5t-75 -85
t-26 -118.5t26 -117t75 -82.5t116 -30.5t116 31zM319 643.5q-14 13.5 -14 31.5q0 19 13.5 32t34.5 13t34 -12t13 -33q1 -18 -12 -31.5t-35 -13.5q-20 0 -34 13.5zM248 790v45h210v-45h-210z" />
    <glyph glyph-name="uni1ECC" unicode="&#x1ecc;" horiz-adv-x="709" 
d="M194.5 28.5q-69.5 39.5 -107.5 106t-38 145.5t38 146.5t107.5 107t159.5 39.5t159.5 -39.5t107.5 -107t38 -146.5t-38 -145.5t-107.5 -106t-159.5 -39.5t-159.5 39.5zM470 80q49 31 75.5 83.5t26.5 116.5q0 65 -26.5 118t-75.5 84.5t-116 31.5t-116 -31.5t-75 -85
t-26 -118.5t26 -117t75 -82.5t116 -30.5t116 31zM321 -126.5q-14 13.5 -14 31.5q0 19 13.5 32t34.5 13t34 -12t13 -33q1 -18 -12 -31.5t-35 -13.5q-20 0 -34 13.5z" />
    <glyph glyph-name="Ograve" unicode="&#xd2;" horiz-adv-x="709" 
d="M194.5 28.5q-69.5 39.5 -107.5 106t-38 145.5t38 146.5t107.5 107t159.5 39.5t159.5 -39.5t107.5 -107t38 -146.5t-38 -145.5t-107.5 -106t-159.5 -39.5t-159.5 39.5zM470 80q49 31 75.5 83.5t26.5 116.5q0 65 -26.5 118t-75.5 84.5t-116 31.5t-116 -31.5t-75 -85
t-26 -118.5t26 -117t75 -82.5t116 -30.5t116 31zM329 647l-90 145h84l53 -145h-47z" />
    <glyph glyph-name="uni1ECE" unicode="&#x1ece;" horiz-adv-x="709" 
d="M194.5 28.5q-69.5 39.5 -107.5 106t-38 145.5t38 146.5t107.5 107t159.5 39.5t159.5 -39.5t107.5 -107t38 -146.5t-38 -145.5t-107.5 -106t-159.5 -39.5t-159.5 39.5zM470 80q49 31 75.5 83.5t26.5 116.5q0 65 -26.5 118t-75.5 84.5t-116 31.5t-116 -31.5t-75 -85
t-26 -118.5t26 -117t75 -82.5t116 -30.5t116 31zM339 650q34 11 34 36q0 13 -9.5 20t-24.5 7q-20 0 -43 -13l-15 42q30 17 63 17q36 0 59 -20t23 -51q0 -62 -73 -82z" />
    <glyph glyph-name="Ohorn" unicode="&#x1a0;" horiz-adv-x="709" 
d="M623 422.5q36 -65.5 36 -142.5q0 -79 -38 -145.5t-107.5 -106t-159.5 -39.5t-159.5 39.5t-107.5 106t-38 145.5q0 80 38 147t107.5 107t159.5 40q23 0 55 -4q8 -1 19.5 -2t26.5 -1q30 0 49 16t22 49h81q-5 -39 -27 -66t-57 -38q64 -40 100 -105.5zM470 80
q49 31 75.5 83.5t26.5 116.5q0 65 -26.5 118.5t-75.5 85t-116 31.5t-116 -31.5t-75 -85t-26 -119.5q0 -65 26 -117t75 -82.5t116 -30.5t116 31z" />
    <glyph glyph-name="uni1EDA" unicode="&#x1eda;" horiz-adv-x="709" 
d="M623 422.5q36 -65.5 36 -142.5q0 -79 -38 -145.5t-107.5 -106t-159.5 -39.5t-159.5 39.5t-107.5 106t-38 145.5q0 80 38 147t107.5 107t159.5 40q23 0 55 -4q8 -1 19.5 -2t26.5 -1q30 0 49 16t22 49h81q-5 -39 -27 -66t-57 -38q64 -40 100 -105.5zM470 80
q49 31 75.5 83.5t26.5 116.5q0 65 -26.5 118.5t-75.5 85t-116 31.5t-116 -31.5t-75 -85t-26 -119.5q0 -65 26 -117t75 -82.5t116 -30.5t116 31zM330 647l53 145h84l-90 -145h-47z" />
    <glyph glyph-name="uni1EE2" unicode="&#x1ee2;" horiz-adv-x="709" 
d="M623 422.5q36 -65.5 36 -142.5q0 -79 -38 -145.5t-107.5 -106t-159.5 -39.5t-159.5 39.5t-107.5 106t-38 145.5q0 80 38 147t107.5 107t159.5 40q23 0 55 -4q8 -1 19.5 -2t26.5 -1q30 0 49 16t22 49h81q-5 -39 -27 -66t-57 -38q64 -40 100 -105.5zM470 80
q49 31 75.5 83.5t26.5 116.5q0 65 -26.5 118.5t-75.5 85t-116 31.5t-116 -31.5t-75 -85t-26 -119.5q0 -65 26 -117t75 -82.5t116 -30.5t116 31zM320 -126.5q-14 13.5 -14 31.5q0 19 13.5 32t34.5 13t34 -12t13 -33q1 -18 -12 -31.5t-35 -13.5q-20 0 -34 13.5z" />
    <glyph glyph-name="uni1EDC" unicode="&#x1edc;" horiz-adv-x="709" 
d="M623 422.5q36 -65.5 36 -142.5q0 -79 -38 -145.5t-107.5 -106t-159.5 -39.5t-159.5 39.5t-107.5 106t-38 145.5q0 80 38 147t107.5 107t159.5 40q23 0 55 -4q8 -1 19.5 -2t26.5 -1q30 0 49 16t22 49h81q-5 -39 -27 -66t-57 -38q64 -40 100 -105.5zM470 80
q49 31 75.5 83.5t26.5 116.5q0 65 -26.5 118.5t-75.5 85t-116 31.5t-116 -31.5t-75 -85t-26 -119.5q0 -65 26 -117t75 -82.5t116 -30.5t116 31zM329 647l-90 145h84l53 -145h-47z" />
    <glyph glyph-name="uni1EDE" unicode="&#x1ede;" horiz-adv-x="709" 
d="M623 422.5q36 -65.5 36 -142.5q0 -79 -38 -145.5t-107.5 -106t-159.5 -39.5t-159.5 39.5t-107.5 106t-38 145.5q0 80 38 147t107.5 107t159.5 40q23 0 55 -4q8 -1 19.5 -2t26.5 -1q30 0 49 16t22 49h81q-5 -39 -27 -66t-57 -38q64 -40 100 -105.5zM470 80
q49 31 75.5 83.5t26.5 116.5q0 65 -26.5 118.5t-75.5 85t-116 31.5t-116 -31.5t-75 -85t-26 -119.5q0 -65 26 -117t75 -82.5t116 -30.5t116 31zM339 650q34 11 34 36q0 13 -9.5 20t-24.5 7q-20 0 -43 -13l-15 42q30 17 63 17q36 0 59 -20t23 -51q0 -62 -73 -82z" />
    <glyph glyph-name="uni1EE0" unicode="&#x1ee0;" horiz-adv-x="709" 
d="M623 422.5q36 -65.5 36 -142.5q0 -79 -38 -145.5t-107.5 -106t-159.5 -39.5t-159.5 39.5t-107.5 106t-38 145.5q0 80 38 147t107.5 107t159.5 40q23 0 55 -4q8 -1 19.5 -2t26.5 -1q30 0 49 16t22 49h81q-5 -39 -27 -66t-57 -38q64 -40 100 -105.5zM470 80
q49 31 75.5 83.5t26.5 116.5q0 65 -26.5 118.5t-75.5 85t-116 31.5t-116 -31.5t-75 -85t-26 -119.5q0 -65 26 -117t75 -82.5t116 -30.5t116 31zM386.5 644.5q-15.5 4.5 -29 9t-17.5 6.5q-40 17 -57 17q-13 0 -20.5 -7.5t-10.5 -25.5h-31q4 44 23 66t50 22q22 0 70 -20
q42 -17 56 -17q15 0 24 8t13 27h29q-3 -41 -20 -65.5t-50 -24.5q-14 0 -29.5 4.5z" />
    <glyph glyph-name="Ohungarumlaut" unicode="&#x150;" horiz-adv-x="709" 
d="M194.5 28.5q-69.5 39.5 -107.5 106t-38 145.5t38 146.5t107.5 107t159.5 39.5t159.5 -39.5t107.5 -107t38 -146.5t-38 -145.5t-107.5 -106t-159.5 -39.5t-159.5 39.5zM470 80q49 31 75.5 83.5t26.5 116.5q0 65 -26.5 118t-75.5 84.5t-116 31.5t-116 -31.5t-75 -85
t-26 -118.5t26 -117t75 -82.5t116 -30.5t116 31zM264 647l56 152h84l-94 -152h-46zM399 647l56 152h84l-93 -152h-47z" />
    <glyph glyph-name="uni020E" unicode="&#x20e;" horiz-adv-x="709" 
d="M194.5 28.5q-69.5 39.5 -107.5 106t-38 145.5t38 146.5t107.5 107t159.5 39.5t159.5 -39.5t107.5 -107t38 -146.5t-38 -145.5t-107.5 -106t-159.5 -39.5t-159.5 39.5zM470 80q49 31 75.5 83.5t26.5 116.5q0 65 -26.5 118t-75.5 84.5t-116 31.5t-116 -31.5t-75 -85
t-26 -118.5t26 -117t75 -82.5t116 -30.5t116 31zM272.5 698q31.5 29 80.5 29q48 0 79.5 -29t36.5 -78h-59q-5 25 -19.5 38t-37.5 13q-49 0 -58 -51h-59q5 49 36.5 78z" />
    <glyph glyph-name="Omacron" unicode="&#x14c;" horiz-adv-x="709" 
d="M194.5 28.5q-69.5 39.5 -107.5 106t-38 145.5t38 146.5t107.5 107t159.5 39.5t159.5 -39.5t107.5 -107t38 -146.5t-38 -145.5t-107.5 -106t-159.5 -39.5t-159.5 39.5zM470 80q49 31 75.5 83.5t26.5 116.5q0 65 -26.5 118t-75.5 84.5t-116 31.5t-116 -31.5t-75 -85
t-26 -118.5t26 -117t75 -82.5t116 -30.5t116 31zM248 643v45h210v-45h-210z" />
    <glyph glyph-name="uni1E52" unicode="&#x1e52;" horiz-adv-x="709" 
d="M194.5 28.5q-69.5 39.5 -107.5 106t-38 145.5t38 146.5t107.5 107t159.5 39.5t159.5 -39.5t107.5 -107t38 -146.5t-38 -145.5t-107.5 -106t-159.5 -39.5t-159.5 39.5zM470 80q49 31 75.5 83.5t26.5 116.5q0 65 -26.5 118t-75.5 84.5t-116 31.5t-116 -31.5t-75 -85
t-26 -118.5t26 -117t75 -82.5t116 -30.5t116 31zM248 643v45h210v-45h-210zM330 761l53 145h84l-90 -145h-47z" />
    <glyph glyph-name="uni1E50" unicode="&#x1e50;" horiz-adv-x="709" 
d="M194.5 28.5q-69.5 39.5 -107.5 106t-38 145.5t38 146.5t107.5 107t159.5 39.5t159.5 -39.5t107.5 -107t38 -146.5t-38 -145.5t-107.5 -106t-159.5 -39.5t-159.5 39.5zM470 80q49 31 75.5 83.5t26.5 116.5q0 65 -26.5 118t-75.5 84.5t-116 31.5t-116 -31.5t-75 -85
t-26 -118.5t26 -117t75 -82.5t116 -30.5t116 31zM248 643v45h210v-45h-210zM329 761l-90 145h84l53 -145h-47z" />
    <glyph glyph-name="uni01EA" unicode="&#x1ea;" horiz-adv-x="709" 
d="M624.5 140q-34.5 -64 -98.5 -104.5t-147 -45.5q-36 -39 -36 -70q0 -21 13 -32t34 -11q22 0 44 13v-40q-17 -10 -31 -14.5t-31 -4.5q-34 0 -57 20.5t-23 53.5q0 41 42 85q-84 4 -149 44.5t-100.5 105t-35.5 140.5q0 79 38 146.5t107.5 107t159.5 39.5t159.5 -39.5
t107.5 -107t38 -146.5q0 -76 -34.5 -140zM163 162q26 -52 75 -82.5t116 -30.5t116 31t75.5 83.5t26.5 116.5q0 65 -26.5 118t-75.5 84.5t-116 31.5t-116 -31.5t-75 -85t-26 -118.5t26 -117z" />
    <glyph glyph-name="Oslash" unicode="&#xd8;" horiz-adv-x="660" 
d="M609.5 400.5q25.5 -57.5 25.5 -121.5q0 -79 -38 -145.5t-107.5 -106t-159.5 -39.5q-89 0 -162 41l-51 -66l-38 27l51 65q-50 41 -77.5 99t-27.5 125q0 79 38 146.5t107.5 107t159.5 39.5q95 0 170 -46l54 69l38 -26l-55 -70q47 -41 72.5 -98.5zM128.5 184.5
q15.5 -43.5 45.5 -73.5l284 362q-54 40 -128 40q-67 0 -116 -31.5t-75 -85t-26 -118.5q0 -50 15.5 -93.5zM446 79q49 31 75.5 83.5t26.5 116.5q0 47 -14.5 89t-41.5 74l-282 -361q50 -33 120 -33q67 0 116 31z" />
    <glyph glyph-name="Oslashacute" unicode="&#x1fe;" horiz-adv-x="660" 
d="M609.5 400.5q25.5 -57.5 25.5 -121.5q0 -79 -38 -145.5t-107.5 -106t-159.5 -39.5q-89 0 -162 41l-51 -66l-38 27l51 65q-50 41 -77.5 99t-27.5 125q0 79 38 146.5t107.5 107t159.5 39.5q95 0 170 -46l54 69l38 -26l-55 -70q47 -41 72.5 -98.5zM128.5 184.5
q15.5 -43.5 45.5 -73.5l284 362q-54 40 -128 40q-67 0 -116 -31.5t-75 -85t-26 -118.5q0 -50 15.5 -93.5zM446 79q49 31 75.5 83.5t26.5 116.5q0 47 -14.5 89t-41.5 74l-282 -361q50 -33 120 -33q67 0 116 31zM307 647l53 145h84l-90 -145h-47z" />
    <glyph glyph-name="Otilde" unicode="&#xd5;" horiz-adv-x="709" 
d="M194.5 28.5q-69.5 39.5 -107.5 106t-38 145.5t38 146.5t107.5 107t159.5 39.5t159.5 -39.5t107.5 -107t38 -146.5t-38 -145.5t-107.5 -106t-159.5 -39.5t-159.5 39.5zM470 80q49 31 75.5 83.5t26.5 116.5q0 65 -26.5 118t-75.5 84.5t-116 31.5t-116 -31.5t-75 -85
t-26 -118.5t26 -117t75 -82.5t116 -30.5t116 31zM386.5 644.5q-15.5 4.5 -29 9t-17.5 6.5q-40 17 -57 17q-13 0 -20.5 -7.5t-10.5 -25.5h-31q4 44 23 66t50 22q22 0 70 -20q42 -17 56 -17q15 0 24 8t13 27h29q-3 -41 -20 -65.5t-50 -24.5q-14 0 -29.5 4.5z" />
    <glyph glyph-name="uni1E4C" unicode="&#x1e4c;" horiz-adv-x="709" 
d="M194.5 28.5q-69.5 39.5 -107.5 106t-38 145.5t38 146.5t107.5 107t159.5 39.5t159.5 -39.5t107.5 -107t38 -146.5t-38 -145.5t-107.5 -106t-159.5 -39.5t-159.5 39.5zM470 80q49 31 75.5 83.5t26.5 116.5q0 65 -26.5 118t-75.5 84.5t-116 31.5t-116 -31.5t-75 -85
t-26 -118.5t26 -117t75 -82.5t116 -30.5t116 31zM386.5 644.5q-15.5 4.5 -29 9t-17.5 6.5q-40 17 -57 17q-13 0 -20.5 -7.5t-10.5 -25.5h-31q4 44 23 66t50 22q22 0 70 -20q42 -17 56 -17q15 0 24 8t13 27h29q-3 -41 -20 -65.5t-50 -24.5q-14 0 -29.5 4.5zM331 796l53 145
h84l-90 -145h-47z" />
    <glyph glyph-name="uni1E4E" unicode="&#x1e4e;" horiz-adv-x="709" 
d="M194.5 28.5q-69.5 39.5 -107.5 106t-38 145.5t38 146.5t107.5 107t159.5 39.5t159.5 -39.5t107.5 -107t38 -146.5t-38 -145.5t-107.5 -106t-159.5 -39.5t-159.5 39.5zM470 80q49 31 75.5 83.5t26.5 116.5q0 65 -26.5 118t-75.5 84.5t-116 31.5t-116 -31.5t-75 -85
t-26 -118.5t26 -117t75 -82.5t116 -30.5t116 31zM386.5 644.5q-15.5 4.5 -29 9t-17.5 6.5q-40 17 -57 17q-13 0 -20.5 -7.5t-10.5 -25.5h-31q4 44 23 66t50 22q22 0 70 -20q42 -17 56 -17q15 0 24 8t13 27h29q-3 -41 -20 -65.5t-50 -24.5q-14 0 -29.5 4.5zM225.5 788
q-12.5 12 -12.5 31t12.5 31t32.5 12t32.5 -12t12.5 -31t-12.5 -31t-32.5 -12t-32.5 12zM418 787.5q-12 11.5 -12 31.5t12 31.5t32 11.5t32.5 -12t12.5 -31t-12.5 -31t-32.5 -12t-32 11.5z" />
    <glyph glyph-name="uni022C" unicode="&#x22c;" horiz-adv-x="709" 
d="M194.5 28.5q-69.5 39.5 -107.5 106t-38 145.5t38 146.5t107.5 107t159.5 39.5t159.5 -39.5t107.5 -107t38 -146.5t-38 -145.5t-107.5 -106t-159.5 -39.5t-159.5 39.5zM470 80q49 31 75.5 83.5t26.5 116.5q0 65 -26.5 118t-75.5 84.5t-116 31.5t-116 -31.5t-75 -85
t-26 -118.5t26 -117t75 -82.5t116 -30.5t116 31zM386.5 644.5q-15.5 4.5 -29 9t-17.5 6.5q-40 17 -57 17q-13 0 -20.5 -7.5t-10.5 -25.5h-31q4 44 23 66t50 22q22 0 70 -20q42 -17 56 -17q15 0 24 8t13 27h29q-3 -41 -20 -65.5t-50 -24.5q-14 0 -29.5 4.5zM249 792v45h210
v-45h-210z" />
    <glyph glyph-name="OE" unicode="&#x152;" horiz-adv-x="952" 
d="M196 34q-71 34 -109 98t-38 151q0 86 38 149t108.5 97t166.5 34h537v-169h-63v116h-266v-197h177v65h41v-185h-41v66h-177v-207h271v122h63v-174h-541q-96 0 -167 34zM489 52v458h-121q-107 0 -169.5 -61t-62.5 -167t62.5 -168t170.5 -62h120z" />
    <glyph glyph-name="P" unicode="P" horiz-adv-x="563" 
d="M39 53h78v457h-78v53h278q103 0 157 -41t54 -119q0 -83 -55.5 -126.5t-160.5 -43.5h-75v53h72q65 0 100 30t35 86q0 52 -30.5 80t-87.5 28h-127v-457h78v-53h-238v53z" />
    <glyph glyph-name="uni1E56" unicode="&#x1e56;" horiz-adv-x="563" 
d="M39 53h78v457h-78v53h278q103 0 157 -41t54 -119q0 -83 -55.5 -126.5t-160.5 -43.5h-75v53h72q65 0 100 30t35 86q0 52 -30.5 80t-87.5 28h-127v-457h78v-53h-238v53zM257 643.5q-14 13.5 -14 31.5q0 19 13.5 32t34.5 13t34 -12t13 -33q1 -18 -12 -31.5t-35 -13.5
q-20 0 -34 13.5z" />
    <glyph glyph-name="Thorn" unicode="&#xde;" horiz-adv-x="555" 
d="M470.5 409q49.5 -37 49.5 -103q0 -71 -48.5 -108.5t-138.5 -37.5h-93v48h93q52 0 80.5 25t28.5 73q0 41 -29.5 64.5t-81.5 23.5h-121v-341h79v-53h-239v53h78v457h-78v53h239v-53h-79v-64h121q90 0 139.5 -37z" />
    <glyph glyph-name="Q" unicode="Q" horiz-adv-x="706" 
d="M327 -9q-83 5 -146.5 45.5t-97.5 104.5t-34 139q0 79 38 146.5t107.5 107t159.5 39.5t159.5 -39.5t107.5 -107t38 -146.5q0 -73 -32 -135t-91 -103t-138 -50q30 -36 58.5 -54t68.5 -18q23 0 57 8l1 -53q-30 -9 -58 -9q-115 0 -198 125zM470 80q49 31 75.5 83.5
t26.5 116.5q0 65 -26.5 118t-75.5 84.5t-116 31.5t-116 -31.5t-75 -85t-26 -118.5t26 -117t75 -82.5t116 -30.5t116 31z" />
    <glyph glyph-name="R" unicode="R" horiz-adv-x="619" 
d="M39 53h78v457h-78v53h296q90 0 140.5 -37.5t50.5 -109.5q0 -128 -145 -150l129 -213h83v-53h-139l-151 258h-69v55h88q67 0 95 29.5t28 72.5q0 42 -27.5 68.5t-81.5 26.5h-137v-457h78v-53h-238v53z" />
    <glyph glyph-name="Racute" unicode="&#x154;" horiz-adv-x="619" 
d="M39 53h78v457h-78v53h296q90 0 140.5 -37.5t50.5 -109.5q0 -128 -145 -150l129 -213h83v-53h-139l-151 258h-69v55h88q67 0 95 29.5t28 72.5q0 42 -27.5 68.5t-81.5 26.5h-137v-457h78v-53h-238v53zM269 647l53 145h84l-90 -145h-47z" />
    <glyph glyph-name="Rcaron" unicode="&#x158;" horiz-adv-x="619" 
d="M39 53h78v457h-78v53h296q90 0 140.5 -37.5t50.5 -109.5q0 -128 -145 -150l129 -213h83v-53h-139l-151 258h-69v55h88q67 0 95 29.5t28 72.5q0 42 -27.5 68.5t-81.5 26.5h-137v-457h78v-53h-238v53zM257 618l-81 151h53l64 -109l62 109h52l-79 -151h-71z" />
    <glyph glyph-name="Rcommaaccent" unicode="&#x156;" horiz-adv-x="619" 
d="M39 53h78v457h-78v53h296q90 0 140.5 -37.5t50.5 -109.5q0 -128 -145 -150l129 -213h83v-53h-139l-151 258h-69v55h88q67 0 95 29.5t28 72.5q0 42 -27.5 68.5t-81.5 26.5h-137v-457h78v-53h-238v53zM276 -204q29 5 42.5 21.5t13.5 45.5h-54v87h95v-89q0 -46 -24 -71.5
t-73 -25.5v32z" />
    <glyph glyph-name="uni0210" unicode="&#x210;" horiz-adv-x="619" 
d="M39 53h78v457h-78v53h296q90 0 140.5 -37.5t50.5 -109.5q0 -128 -145 -150l129 -213h83v-53h-139l-151 258h-69v55h88q67 0 95 29.5t28 72.5q0 42 -27.5 68.5t-81.5 26.5h-137v-457h78v-53h-238v53zM189 647l-94 152h84l57 -152h-47zM324 647l-93 152h84l56 -152h-47z
" />
    <glyph glyph-name="uni1E5A" unicode="&#x1e5a;" horiz-adv-x="619" 
d="M39 53h78v457h-78v53h296q90 0 140.5 -37.5t50.5 -109.5q0 -128 -145 -150l129 -213h83v-53h-139l-151 258h-69v55h88q67 0 95 29.5t28 72.5q0 42 -27.5 68.5t-81.5 26.5h-137v-457h78v-53h-238v53zM290 -126.5q-14 13.5 -14 31.5q0 19 13.5 32t34.5 13t34 -12t13 -33
q1 -18 -12 -31.5t-35 -13.5q-20 0 -34 13.5z" />
    <glyph glyph-name="uni0212" unicode="&#x212;" horiz-adv-x="619" 
d="M39 53h78v457h-78v53h296q90 0 140.5 -37.5t50.5 -109.5q0 -128 -145 -150l129 -213h83v-53h-139l-151 258h-69v55h88q67 0 95 29.5t28 72.5q0 42 -27.5 68.5t-81.5 26.5h-137v-457h78v-53h-238v53zM211.5 698q31.5 29 80.5 29q48 0 79.5 -29t36.5 -78h-59
q-5 25 -19.5 38t-37.5 13q-49 0 -58 -51h-59q5 49 36.5 78z" />
    <glyph glyph-name="uni1E5E" unicode="&#x1e5e;" horiz-adv-x="619" 
d="M39 53h78v457h-78v53h296q90 0 140.5 -37.5t50.5 -109.5q0 -128 -145 -150l129 -213h83v-53h-139l-151 258h-69v55h88q67 0 95 29.5t28 72.5q0 42 -27.5 68.5t-81.5 26.5h-137v-457h78v-53h-238v53zM219 -82v45h210v-45h-210z" />
    <glyph glyph-name="S" unicode="S" horiz-adv-x="522" 
d="M434.5 269.5q45.5 -36.5 45.5 -114.5q0 -45 -21 -82.5t-62 -60t-97 -22.5q-52 0 -94.5 21t-69.5 58v-69h-65v190h60q6 -63 50.5 -102.5t115.5 -39.5q52 0 81 25t29 70q0 36 -13 56.5t-41.5 32t-81.5 20.5l-24 4q-85 14 -132 54.5t-47 109.5q0 73 48 113.5t129 40.5
q46 0 83.5 -15.5t60.5 -44.5v49h64v-159h-59q-19 112 -145 112q-51 0 -79.5 -24t-28.5 -64q0 -42 30 -65.5t91 -34.5l23 -4q104 -18 149.5 -54.5z" />
    <glyph glyph-name="Sacute" unicode="&#x15a;" horiz-adv-x="522" 
d="M434.5 269.5q45.5 -36.5 45.5 -114.5q0 -45 -21 -82.5t-62 -60t-97 -22.5q-52 0 -94.5 21t-69.5 58v-69h-65v190h60q6 -63 50.5 -102.5t115.5 -39.5q52 0 81 25t29 70q0 36 -13 56.5t-41.5 32t-81.5 20.5l-24 4q-85 14 -132 54.5t-47 109.5q0 73 48 113.5t129 40.5
q46 0 83.5 -15.5t60.5 -44.5v49h64v-159h-59q-19 112 -145 112q-51 0 -79.5 -24t-28.5 -64q0 -42 30 -65.5t91 -34.5l23 -4q104 -18 149.5 -54.5zM250 647l53 145h84l-90 -145h-47z" />
    <glyph glyph-name="uni1E64" unicode="&#x1e64;" horiz-adv-x="522" 
d="M434.5 269.5q45.5 -36.5 45.5 -114.5q0 -45 -21 -82.5t-62 -60t-97 -22.5q-52 0 -94.5 21t-69.5 58v-69h-65v190h60q6 -63 50.5 -102.5t115.5 -39.5q52 0 81 25t29 70q0 36 -13 56.5t-41.5 32t-81.5 20.5l-24 4q-85 14 -132 54.5t-47 109.5q0 73 48 113.5t129 40.5
q46 0 83.5 -15.5t60.5 -44.5v49h64v-159h-59q-19 112 -145 112q-51 0 -79.5 -24t-28.5 -64q0 -42 30 -65.5t91 -34.5l23 -4q104 -18 149.5 -54.5zM250 647l53 145h84l-90 -145h-47zM239 876.5q-14 13.5 -14 31.5q0 19 13.5 32t34.5 13t34 -12t13 -33q1 -18 -12 -31.5
t-35 -13.5q-20 0 -34 13.5z" />
    <glyph glyph-name="Scaron" unicode="&#x160;" horiz-adv-x="522" 
d="M434.5 269.5q45.5 -36.5 45.5 -114.5q0 -45 -21 -82.5t-62 -60t-97 -22.5q-52 0 -94.5 21t-69.5 58v-69h-65v190h60q6 -63 50.5 -102.5t115.5 -39.5q52 0 81 25t29 70q0 36 -13 56.5t-41.5 32t-81.5 20.5l-24 4q-85 14 -132 54.5t-47 109.5q0 73 48 113.5t129 40.5
q46 0 83.5 -15.5t60.5 -44.5v49h64v-159h-59q-19 112 -145 112q-51 0 -79.5 -24t-28.5 -64q0 -42 30 -65.5t91 -34.5l23 -4q104 -18 149.5 -54.5zM238 618l-81 151h53l64 -109l62 109h52l-79 -151h-71z" />
    <glyph glyph-name="uni1E66" unicode="&#x1e66;" horiz-adv-x="522" 
d="M434.5 269.5q45.5 -36.5 45.5 -114.5q0 -45 -21 -82.5t-62 -60t-97 -22.5q-52 0 -94.5 21t-69.5 58v-69h-65v190h60q6 -63 50.5 -102.5t115.5 -39.5q52 0 81 25t29 70q0 36 -13 56.5t-41.5 32t-81.5 20.5l-24 4q-85 14 -132 54.5t-47 109.5q0 73 48 113.5t129 40.5
q46 0 83.5 -15.5t60.5 -44.5v49h64v-159h-59q-19 112 -145 112q-51 0 -79.5 -24t-28.5 -64q0 -42 30 -65.5t91 -34.5l23 -4q104 -18 149.5 -54.5zM238 618l-81 151h53l64 -109l62 109h52l-79 -151h-71zM239 849.5q-14 13.5 -14 31.5q0 19 13.5 32t34.5 13t34 -12t13 -33
q1 -18 -12 -31.5t-35 -13.5q-20 0 -34 13.5z" />
    <glyph glyph-name="Scedilla" unicode="&#x15e;" horiz-adv-x="522" 
d="M460 74q-20 -37 -59 -59.5t-92 -24.5l-13 -48q36 -4 54 -20.5t18 -39.5q0 -29 -19.5 -43t-51.5 -14q-43 0 -87 19v29q35 -10 57 -10q38 0 38 26q0 28 -57 31l28 71q-44 4 -80 24.5t-60 53.5v-69h-65v190h60q6 -63 50.5 -102.5t115.5 -39.5q52 0 81 25t29 70
q0 36 -13 56.5t-41.5 32t-81.5 20.5l-24 4q-85 14 -132 54.5t-47 109.5q0 73 48 113.5t129 40.5q46 0 83.5 -15.5t60.5 -44.5v49h64v-159h-59q-19 112 -145 112q-51 0 -79.5 -24t-28.5 -64q0 -42 30 -65.5t91 -34.5l23 -4q104 -18 149.5 -54.5t45.5 -114.5q0 -44 -20 -81z
" />
    <glyph glyph-name="Scircumflex" unicode="&#x15c;" horiz-adv-x="522" 
d="M434.5 269.5q45.5 -36.5 45.5 -114.5q0 -45 -21 -82.5t-62 -60t-97 -22.5q-52 0 -94.5 21t-69.5 58v-69h-65v190h60q6 -63 50.5 -102.5t115.5 -39.5q52 0 81 25t29 70q0 36 -13 56.5t-41.5 32t-81.5 20.5l-24 4q-85 14 -132 54.5t-47 109.5q0 73 48 113.5t129 40.5
q46 0 83.5 -15.5t60.5 -44.5v49h64v-159h-59q-19 112 -145 112q-51 0 -79.5 -24t-28.5 -64q0 -42 30 -65.5t91 -34.5l23 -4q104 -18 149.5 -54.5zM151 619l83 157h78l83 -157h-56l-66 125l-66 -125h-56z" />
    <glyph glyph-name="Scommaaccent" unicode="&#x218;" horiz-adv-x="522" 
d="M434.5 269.5q45.5 -36.5 45.5 -114.5q0 -45 -21 -82.5t-62 -60t-97 -22.5q-52 0 -94.5 21t-69.5 58v-69h-65v190h60q6 -63 50.5 -102.5t115.5 -39.5q52 0 81 25t29 70q0 36 -13 56.5t-41.5 32t-81.5 20.5l-24 4q-85 14 -132 54.5t-47 109.5q0 73 48 113.5t129 40.5
q46 0 83.5 -15.5t60.5 -44.5v49h64v-159h-59q-19 112 -145 112q-51 0 -79.5 -24t-28.5 -64q0 -42 30 -65.5t91 -34.5l23 -4q104 -18 149.5 -54.5zM247 -204q29 5 42.5 21.5t13.5 45.5h-54v87h95v-89q0 -46 -24 -71.5t-73 -25.5v32z" />
    <glyph glyph-name="uni1E60" unicode="&#x1e60;" horiz-adv-x="522" 
d="M434.5 269.5q45.5 -36.5 45.5 -114.5q0 -45 -21 -82.5t-62 -60t-97 -22.5q-52 0 -94.5 21t-69.5 58v-69h-65v190h60q6 -63 50.5 -102.5t115.5 -39.5q52 0 81 25t29 70q0 36 -13 56.5t-41.5 32t-81.5 20.5l-24 4q-85 14 -132 54.5t-47 109.5q0 73 48 113.5t129 40.5
q46 0 83.5 -15.5t60.5 -44.5v49h64v-159h-59q-19 112 -145 112q-51 0 -79.5 -24t-28.5 -64q0 -42 30 -65.5t91 -34.5l23 -4q104 -18 149.5 -54.5zM239 643.5q-14 13.5 -14 31.5q0 19 13.5 32t34.5 13t34 -12t13 -33q1 -18 -12 -31.5t-35 -13.5q-20 0 -34 13.5z" />
    <glyph glyph-name="uni1E62" unicode="&#x1e62;" horiz-adv-x="522" 
d="M434.5 269.5q45.5 -36.5 45.5 -114.5q0 -45 -21 -82.5t-62 -60t-97 -22.5q-52 0 -94.5 21t-69.5 58v-69h-65v190h60q6 -63 50.5 -102.5t115.5 -39.5q52 0 81 25t29 70q0 36 -13 56.5t-41.5 32t-81.5 20.5l-24 4q-85 14 -132 54.5t-47 109.5q0 73 48 113.5t129 40.5
q46 0 83.5 -15.5t60.5 -44.5v49h64v-159h-59q-19 112 -145 112q-51 0 -79.5 -24t-28.5 -64q0 -42 30 -65.5t91 -34.5l23 -4q104 -18 149.5 -54.5zM261 -126.5q-14 13.5 -14 31.5q0 19 13.5 32t34.5 13t34 -12t13 -33q1 -18 -12 -31.5t-35 -13.5q-20 0 -34 13.5z" />
    <glyph glyph-name="uni1E68" unicode="&#x1e68;" horiz-adv-x="522" 
d="M434.5 269.5q45.5 -36.5 45.5 -114.5q0 -45 -21 -82.5t-62 -60t-97 -22.5q-52 0 -94.5 21t-69.5 58v-69h-65v190h60q6 -63 50.5 -102.5t115.5 -39.5q52 0 81 25t29 70q0 36 -13 56.5t-41.5 32t-81.5 20.5l-24 4q-85 14 -132 54.5t-47 109.5q0 73 48 113.5t129 40.5
q46 0 83.5 -15.5t60.5 -44.5v49h64v-159h-59q-19 112 -145 112q-51 0 -79.5 -24t-28.5 -64q0 -42 30 -65.5t91 -34.5l23 -4q104 -18 149.5 -54.5zM261 -126.5q-14 13.5 -14 31.5q0 19 13.5 32t34.5 13t34 -12t13 -33q1 -18 -12 -31.5t-35 -13.5q-20 0 -34 13.5zM239 643.5
q-14 13.5 -14 31.5q0 19 13.5 32t34.5 13t34 -12t13 -33q1 -18 -12 -31.5t-35 -13.5q-20 0 -34 13.5z" />
    <glyph glyph-name="uni1E9E" unicode="&#x1e9e;" horiz-adv-x="600" 
d="M326 50q146 0 146 108q0 109 -156 109v56l123 170q-52 20 -122 20q-71 0 -110 -35t-39 -105v-320h56v-53h-188v53h50v318q0 96 59.5 149t170.5 53q56 0 99 -11.5t84 -31.5v-56l-111 -153q84 -9 128 -50t44 -110q0 -84 -60 -127.5t-174 -43.5v60z" />
    <glyph glyph-name="uni018F" unicode="&#x18f;" horiz-adv-x="677" 
d="M481.5 536.5q67.5 -36.5 106.5 -102.5t39 -151q0 -88 -39.5 -155t-107.5 -103t-151 -36q-88 0 -152 35t-98.5 99.5t-34.5 151.5v27h495q-7 98 -64.5 155t-147.5 57q-129 0 -241 -100l-32 47q122 112 276 112q84 0 151.5 -36.5zM472 103q57 52 66 142h-408q0 -90 56 -142
t145 -52q84 0 141 52z" />
    <glyph glyph-name="T" unicode="T" horiz-adv-x="559" 
d="M162 0v53h78v457h-154v-143h-61v196h508v-196h-61v143h-151v-457h78v-53h-237z" />
    <glyph glyph-name="Tbar" unicode="&#x166;" horiz-adv-x="559" 
d="M25 563h508v-196h-61v143h-151v-204h63v-45h-63v-208h78v-53h-237v53h78v208h-66v45h66v204h-154v-143h-61v196z" />
    <glyph glyph-name="Tcaron" unicode="&#x164;" horiz-adv-x="559" 
d="M162 0v53h78v457h-154v-143h-61v196h508v-196h-61v143h-151v-457h78v-53h-237zM243 618l-81 151h53l64 -109l62 109h52l-79 -151h-71z" />
    <glyph glyph-name="uni0162" unicode="&#x162;" horiz-adv-x="559" 
d="M162 0v53h78v457h-154v-143h-61v196h508v-196h-61v143h-151v-457h78v-53h-237zM196 -156v29q35 -10 57 -10q38 0 38 26q0 28 -57 31l31 80h33l-16 -58q36 -4 54 -20.5t18 -39.5q0 -29 -19.5 -43t-51.5 -14q-43 0 -87 19z" />
    <glyph glyph-name="uni021A" unicode="&#x21a;" horiz-adv-x="559" 
d="M162 0v53h78v457h-154v-143h-61v196h508v-196h-61v143h-151v-457h78v-53h-237zM233 -204q29 5 42.5 21.5t13.5 45.5h-54v87h95v-89q0 -46 -24 -71.5t-73 -25.5v32z" />
    <glyph glyph-name="uni1E6A" unicode="&#x1e6a;" horiz-adv-x="559" 
d="M162 0v53h78v457h-154v-143h-61v196h508v-196h-61v143h-151v-457h78v-53h-237zM244 643.5q-14 13.5 -14 31.5q0 19 13.5 32t34.5 13t34 -12t13 -33q1 -18 -12 -31.5t-35 -13.5q-20 0 -34 13.5z" />
    <glyph glyph-name="uni1E6C" unicode="&#x1e6c;" horiz-adv-x="559" 
d="M162 0v53h78v457h-154v-143h-61v196h508v-196h-61v143h-151v-457h78v-53h-237zM247 -126.5q-14 13.5 -14 31.5q0 19 13.5 32t34.5 13t34 -12t13 -33q1 -18 -12 -31.5t-35 -13.5q-20 0 -34 13.5z" />
    <glyph glyph-name="uni1E6E" unicode="&#x1e6e;" horiz-adv-x="559" 
d="M162 0v53h78v457h-154v-143h-61v196h508v-196h-61v143h-151v-457h78v-53h-237zM176 -82v45h210v-45h-210z" />
    <glyph glyph-name="U" unicode="U" horiz-adv-x="670" 
d="M159.5 48q-57.5 58 -57.5 156v306h-75v53h231v-53h-75v-317q0 -67 41.5 -105t114.5 -38q79 0 122.5 38t43.5 106v316h-74v53h219v-53h-76v-313q0 -101 -64.5 -154t-172.5 -53q-120 0 -177.5 58z" />
    <glyph glyph-name="Uacute" unicode="&#xda;" horiz-adv-x="670" 
d="M159.5 48q-57.5 58 -57.5 156v306h-75v53h231v-53h-75v-317q0 -67 41.5 -105t114.5 -38q79 0 122.5 38t43.5 106v316h-74v53h219v-53h-76v-313q0 -101 -64.5 -154t-172.5 -53q-120 0 -177.5 58zM321 647l53 145h84l-90 -145h-47z" />
    <glyph glyph-name="Ubreve" unicode="&#x16c;" horiz-adv-x="670" 
d="M159.5 48q-57.5 58 -57.5 156v306h-75v53h231v-53h-75v-317q0 -67 41.5 -105t114.5 -38q79 0 122.5 38t43.5 106v316h-74v53h219v-53h-76v-313q0 -101 -64.5 -154t-172.5 -53q-120 0 -177.5 58zM268.5 647q-29.5 27 -34.5 73h49q11 -55 61 -55q23 0 39.5 14.5t20.5 40.5
h50q-5 -47 -35 -73.5t-77 -26.5q-44 0 -73.5 27z" />
    <glyph glyph-name="uni01D3" unicode="&#x1d3;" horiz-adv-x="670" 
d="M159.5 48q-57.5 58 -57.5 156v306h-75v53h231v-53h-75v-317q0 -67 41.5 -105t114.5 -38q79 0 122.5 38t43.5 106v316h-74v53h219v-53h-76v-313q0 -101 -64.5 -154t-172.5 -53q-120 0 -177.5 58zM309 618l-81 151h53l64 -109l62 109h52l-79 -151h-71z" />
    <glyph glyph-name="Ucircumflex" unicode="&#xdb;" horiz-adv-x="670" 
d="M159.5 48q-57.5 58 -57.5 156v306h-75v53h231v-53h-75v-317q0 -67 41.5 -105t114.5 -38q79 0 122.5 38t43.5 106v316h-74v53h219v-53h-76v-313q0 -101 -64.5 -154t-172.5 -53q-120 0 -177.5 58zM222 619l83 157h78l83 -157h-56l-66 125l-66 -125h-56z" />
    <glyph glyph-name="uni0214" unicode="&#x214;" horiz-adv-x="670" 
d="M159.5 48q-57.5 58 -57.5 156v306h-75v53h231v-53h-75v-317q0 -67 41.5 -105t114.5 -38q79 0 122.5 38t43.5 106v316h-74v53h219v-53h-76v-313q0 -101 -64.5 -154t-172.5 -53q-120 0 -177.5 58zM241 647l-94 152h84l57 -152h-47zM376 647l-93 152h84l56 -152h-47z" />
    <glyph glyph-name="Udieresis" unicode="&#xdc;" horiz-adv-x="670" 
d="M159.5 48q-57.5 58 -57.5 156v306h-75v53h231v-53h-75v-317q0 -67 41.5 -105t114.5 -38q79 0 122.5 38t43.5 106v316h-74v53h219v-53h-76v-313q0 -101 -64.5 -154t-172.5 -53q-120 0 -177.5 58zM215.5 639q-12.5 12 -12.5 31t12.5 31t32.5 12t32.5 -12t12.5 -31
t-12.5 -31t-32.5 -12t-32.5 12zM408 638.5q-12 11.5 -12 31.5t12 31.5t32 11.5t32.5 -12t12.5 -31t-12.5 -31t-32.5 -12t-32 11.5z" />
    <glyph glyph-name="uni1EE4" unicode="&#x1ee4;" horiz-adv-x="670" 
d="M159.5 48q-57.5 58 -57.5 156v306h-75v53h231v-53h-75v-317q0 -67 41.5 -105t114.5 -38q79 0 122.5 38t43.5 106v316h-74v53h219v-53h-76v-313q0 -101 -64.5 -154t-172.5 -53q-120 0 -177.5 58zM304 -126.5q-14 13.5 -14 31.5q0 19 13.5 32t34.5 13t34 -12t13 -33
q1 -18 -12 -31.5t-35 -13.5q-20 0 -34 13.5z" />
    <glyph glyph-name="Ugrave" unicode="&#xd9;" horiz-adv-x="670" 
d="M159.5 48q-57.5 58 -57.5 156v306h-75v53h231v-53h-75v-317q0 -67 41.5 -105t114.5 -38q79 0 122.5 38t43.5 106v316h-74v53h219v-53h-76v-313q0 -101 -64.5 -154t-172.5 -53q-120 0 -177.5 58zM320 647l-90 145h84l53 -145h-47z" />
    <glyph glyph-name="uni1EE6" unicode="&#x1ee6;" horiz-adv-x="670" 
d="M159.5 48q-57.5 58 -57.5 156v306h-75v53h231v-53h-75v-317q0 -67 41.5 -105t114.5 -38q79 0 122.5 38t43.5 106v316h-74v53h219v-53h-76v-313q0 -101 -64.5 -154t-172.5 -53q-120 0 -177.5 58zM330 650q34 11 34 36q0 13 -9.5 20t-24.5 7q-20 0 -43 -13l-15 42
q30 17 63 17q36 0 59 -20t23 -51q0 -62 -73 -82z" />
    <glyph glyph-name="Uhorn" unicode="&#x1af;" horiz-adv-x="670" 
d="M637.5 560.5q-24.5 -28.5 -63.5 -39.5v-324q0 -101 -64.5 -154t-172.5 -53q-120 0 -177.5 58t-57.5 156v306h-75v53h231v-53h-75v-317q0 -67 41.5 -105t114.5 -38q79 0 122.5 38t43.5 106v316h-74v53h84q30 0 49 16.5t22 52.5h81q-5 -43 -29.5 -71.5z" />
    <glyph glyph-name="uni1EE8" unicode="&#x1ee8;" horiz-adv-x="670" 
d="M637.5 560.5q-24.5 -28.5 -63.5 -39.5v-324q0 -101 -64.5 -154t-172.5 -53q-120 0 -177.5 58t-57.5 156v306h-75v53h231v-53h-75v-317q0 -67 41.5 -105t114.5 -38q79 0 122.5 38t43.5 106v316h-74v53h84q30 0 49 16.5t22 52.5h81q-5 -43 -29.5 -71.5zM321 647l53 145h84
l-90 -145h-47z" />
    <glyph glyph-name="uni1EF0" unicode="&#x1ef0;" horiz-adv-x="670" 
d="M637.5 560.5q-24.5 -28.5 -63.5 -39.5v-324q0 -101 -64.5 -154t-172.5 -53q-120 0 -177.5 58t-57.5 156v306h-75v53h231v-53h-75v-317q0 -67 41.5 -105t114.5 -38q79 0 122.5 38t43.5 106v316h-74v53h84q30 0 49 16.5t22 52.5h81q-5 -43 -29.5 -71.5zM304 -126.5
q-14 13.5 -14 31.5q0 19 13.5 32t34.5 13t34 -12t13 -33q1 -18 -12 -31.5t-35 -13.5q-20 0 -34 13.5z" />
    <glyph glyph-name="uni1EEA" unicode="&#x1eea;" horiz-adv-x="670" 
d="M637.5 560.5q-24.5 -28.5 -63.5 -39.5v-324q0 -101 -64.5 -154t-172.5 -53q-120 0 -177.5 58t-57.5 156v306h-75v53h231v-53h-75v-317q0 -67 41.5 -105t114.5 -38q79 0 122.5 38t43.5 106v316h-74v53h84q30 0 49 16.5t22 52.5h81q-5 -43 -29.5 -71.5zM320 647l-90 145h84
l53 -145h-47z" />
    <glyph glyph-name="uni1EEC" unicode="&#x1eec;" horiz-adv-x="670" 
d="M637.5 560.5q-24.5 -28.5 -63.5 -39.5v-324q0 -101 -64.5 -154t-172.5 -53q-120 0 -177.5 58t-57.5 156v306h-75v53h231v-53h-75v-317q0 -67 41.5 -105t114.5 -38q79 0 122.5 38t43.5 106v316h-74v53h84q30 0 49 16.5t22 52.5h81q-5 -43 -29.5 -71.5zM330 650
q34 11 34 36q0 13 -9.5 20t-24.5 7q-20 0 -43 -13l-15 42q30 17 63 17q36 0 59 -20t23 -51q0 -62 -73 -82z" />
    <glyph glyph-name="uni1EEE" unicode="&#x1eee;" horiz-adv-x="670" 
d="M637.5 560.5q-24.5 -28.5 -63.5 -39.5v-324q0 -101 -64.5 -154t-172.5 -53q-120 0 -177.5 58t-57.5 156v306h-75v53h231v-53h-75v-317q0 -67 41.5 -105t114.5 -38q79 0 122.5 38t43.5 106v316h-74v53h84q30 0 49 16.5t22 52.5h81q-5 -43 -29.5 -71.5zM377.5 644.5
q-15.5 4.5 -29 9t-17.5 6.5q-40 17 -57 17q-13 0 -20.5 -7.5t-10.5 -25.5h-31q4 44 23 66t50 22q22 0 70 -20q42 -17 56 -17q15 0 24 8t13 27h29q-3 -41 -20 -65.5t-50 -24.5q-14 0 -29.5 4.5z" />
    <glyph glyph-name="Uhungarumlaut" unicode="&#x170;" horiz-adv-x="670" 
d="M159.5 48q-57.5 58 -57.5 156v306h-75v53h231v-53h-75v-317q0 -67 41.5 -105t114.5 -38q79 0 122.5 38t43.5 106v316h-74v53h219v-53h-76v-313q0 -101 -64.5 -154t-172.5 -53q-120 0 -177.5 58zM255 647l56 152h84l-94 -152h-46zM390 647l56 152h84l-93 -152h-47z" />
    <glyph glyph-name="uni0216" unicode="&#x216;" horiz-adv-x="670" 
d="M159.5 48q-57.5 58 -57.5 156v306h-75v53h231v-53h-75v-317q0 -67 41.5 -105t114.5 -38q79 0 122.5 38t43.5 106v316h-74v53h219v-53h-76v-313q0 -101 -64.5 -154t-172.5 -53q-120 0 -177.5 58zM263.5 698q31.5 29 80.5 29q48 0 79.5 -29t36.5 -78h-59q-5 25 -19.5 38
t-37.5 13q-49 0 -58 -51h-59q5 49 36.5 78z" />
    <glyph glyph-name="Umacron" unicode="&#x16a;" horiz-adv-x="670" 
d="M159.5 48q-57.5 58 -57.5 156v306h-75v53h231v-53h-75v-317q0 -67 41.5 -105t114.5 -38q79 0 122.5 38t43.5 106v316h-74v53h219v-53h-76v-313q0 -101 -64.5 -154t-172.5 -53q-120 0 -177.5 58zM239 643v45h210v-45h-210z" />
    <glyph glyph-name="uni1E7A" unicode="&#x1e7a;" horiz-adv-x="670" 
d="M159.5 48q-57.5 58 -57.5 156v306h-75v53h231v-53h-75v-317q0 -67 41.5 -105t114.5 -38q79 0 122.5 38t43.5 106v316h-74v53h219v-53h-76v-313q0 -101 -64.5 -154t-172.5 -53q-120 0 -177.5 58zM239 643v45h210v-45h-210zM215.5 753q-12.5 12 -12.5 31t12.5 31t32.5 12
t32.5 -12t12.5 -31t-12.5 -31t-32.5 -12t-32.5 12zM408 752.5q-12 11.5 -12 31.5t12 31.5t32 11.5t32.5 -12t12.5 -31t-12.5 -31t-32.5 -12t-32 11.5z" />
    <glyph glyph-name="Uogonek" unicode="&#x172;" horiz-adv-x="670" 
d="M650 563v-53h-76v-313q0 -97 -59.5 -149.5t-160.5 -57.5q-36 -39 -36 -70q0 -21 13 -32t34 -11q22 0 44 13v-40q-17 -10 -31 -14.5t-31 -4.5q-34 0 -57 20.5t-23 53.5q0 42 44 86q-107 6 -158 63.5t-51 149.5v306h-75v53h231v-53h-75v-317q0 -67 41.5 -105t114.5 -38
q79 0 122.5 38t43.5 106v316h-74v53h219z" />
    <glyph glyph-name="Uring" unicode="&#x16e;" horiz-adv-x="670" 
d="M159.5 48q-57.5 58 -57.5 156v306h-75v53h231v-53h-75v-317q0 -67 41.5 -105t114.5 -38q79 0 122.5 38t43.5 106v316h-74v53h219v-53h-76v-313q0 -101 -64.5 -154t-172.5 -53q-120 0 -177.5 58zM286.5 619.5q-21.5 21.5 -21.5 53.5t21 52.5t58 20.5t58 -20.5t21 -52.5
t-21.5 -53.5t-57.5 -21.5t-57.5 21.5zM376 641.5q12 12.5 12 31.5t-12 31t-32 12q-21 0 -33 -12t-12 -31t12.5 -31.5t32.5 -12.5t32 12.5z" />
    <glyph glyph-name="Utilde" unicode="&#x168;" horiz-adv-x="670" 
d="M159.5 48q-57.5 58 -57.5 156v306h-75v53h231v-53h-75v-317q0 -67 41.5 -105t114.5 -38q79 0 122.5 38t43.5 106v316h-74v53h219v-53h-76v-313q0 -101 -64.5 -154t-172.5 -53q-120 0 -177.5 58zM377.5 644.5q-15.5 4.5 -29 9t-17.5 6.5q-40 17 -57 17q-13 0 -20.5 -7.5
t-10.5 -25.5h-31q4 44 23 66t50 22q22 0 70 -20q42 -17 56 -17q15 0 24 8t13 27h29q-3 -41 -20 -65.5t-50 -24.5q-14 0 -29.5 4.5z" />
    <glyph glyph-name="uni1E78" unicode="&#x1e78;" horiz-adv-x="670" 
d="M159.5 48q-57.5 58 -57.5 156v306h-75v53h231v-53h-75v-317q0 -67 41.5 -105t114.5 -38q79 0 122.5 38t43.5 106v316h-74v53h219v-53h-76v-313q0 -101 -64.5 -154t-172.5 -53q-120 0 -177.5 58zM377.5 644.5q-15.5 4.5 -29 9t-17.5 6.5q-40 17 -57 17q-13 0 -20.5 -7.5
t-10.5 -25.5h-31q4 44 23 66t50 22q22 0 70 -20q42 -17 56 -17q15 0 24 8t13 27h29q-3 -41 -20 -65.5t-50 -24.5q-14 0 -29.5 4.5zM322 796l53 145h84l-90 -145h-47z" />
    <glyph glyph-name="V" unicode="V" horiz-adv-x="646" 
d="M289 0l-202 510h-71v53h229v-53h-74l159 -421l157 421h-72v53h214v-53h-69l-200 -510h-71z" />
    <glyph glyph-name="W" unicode="W" horiz-adv-x="922" 
d="M253 0l-160 510h-69v53h220v-53h-73l122 -406l145 449h59l146 -449l119 406h-73v53h210v-53h-70l-155 -510h-70l-141 426l-140 -426h-70z" />
    <glyph glyph-name="Wacute" unicode="&#x1e82;" horiz-adv-x="922" 
d="M253 0l-160 510h-69v53h220v-53h-73l122 -406l145 449h59l146 -449l119 406h-73v53h210v-53h-70l-155 -510h-70l-141 426l-140 -426h-70zM445 637l53 145h84l-90 -145h-47z" />
    <glyph glyph-name="Wcircumflex" unicode="&#x174;" horiz-adv-x="922" 
d="M253 0l-160 510h-69v53h220v-53h-73l122 -406l145 449h59l146 -449l119 406h-73v53h210v-53h-70l-155 -510h-70l-141 426l-140 -426h-70zM346 609l83 157h78l83 -157h-56l-66 125l-66 -125h-56z" />
    <glyph glyph-name="Wdieresis" unicode="&#x1e84;" horiz-adv-x="922" 
d="M253 0l-160 510h-69v53h220v-53h-73l122 -406l145 449h59l146 -449l119 406h-73v53h210v-53h-70l-155 -510h-70l-141 426l-140 -426h-70zM339.5 629q-12.5 12 -12.5 31t12.5 31t32.5 12t32.5 -12t12.5 -31t-12.5 -31t-32.5 -12t-32.5 12zM532 628.5q-12 11.5 -12 31.5
t12 31.5t32 11.5t32.5 -12t12.5 -31t-12.5 -31t-32.5 -12t-32 11.5z" />
    <glyph glyph-name="Wgrave" unicode="&#x1e80;" horiz-adv-x="922" 
d="M253 0l-160 510h-69v53h220v-53h-73l122 -406l145 449h59l146 -449l119 406h-73v53h210v-53h-70l-155 -510h-70l-141 426l-140 -426h-70zM444 637l-90 145h84l53 -145h-47z" />
    <glyph glyph-name="X" unicode="X" horiz-adv-x="637" 
d="M30 0v50h78l165 238l-159 224h-77v51h231v-51h-68l123 -178l121 178h-69v51h219v-51h-77l-158 -223l169 -239h79v-50h-236v50h70l-130 193l-129 -193h71v-50h-223z" />
    <glyph glyph-name="Y" unicode="Y" horiz-adv-x="632" 
d="M195 0v53h82v188l-188 269h-75v53h234v-53h-71l148 -216l143 216h-72v53h222v-53h-77l-183 -268v-189h83v-53h-246z" />
    <glyph glyph-name="Yacute" unicode="&#xdd;" horiz-adv-x="632" 
d="M195 0v53h82v188l-188 269h-75v53h234v-53h-71l148 -216l143 216h-72v53h222v-53h-77l-183 -268v-189h83v-53h-246zM299 647l53 145h84l-90 -145h-47z" />
    <glyph glyph-name="Ycircumflex" unicode="&#x176;" horiz-adv-x="632" 
d="M195 0v53h82v188l-188 269h-75v53h234v-53h-71l148 -216l143 216h-72v53h222v-53h-77l-183 -268v-189h83v-53h-246zM200 619l83 157h78l83 -157h-56l-66 125l-66 -125h-56z" />
    <glyph glyph-name="Ydieresis" unicode="&#x178;" horiz-adv-x="632" 
d="M195 0v53h82v188l-188 269h-75v53h234v-53h-71l148 -216l143 216h-72v53h222v-53h-77l-183 -268v-189h83v-53h-246zM193.5 639q-12.5 12 -12.5 31t12.5 31t32.5 12t32.5 -12t12.5 -31t-12.5 -31t-32.5 -12t-32.5 12zM386 638.5q-12 11.5 -12 31.5t12 31.5t32 11.5
t32.5 -12t12.5 -31t-12.5 -31t-32.5 -12t-32 11.5z" />
    <glyph glyph-name="uni1E8E" unicode="&#x1e8e;" horiz-adv-x="632" 
d="M195 0v53h82v188l-188 269h-75v53h234v-53h-71l148 -216l143 216h-72v53h222v-53h-77l-183 -268v-189h83v-53h-246zM288 643.5q-14 13.5 -14 31.5q0 19 13.5 32t34.5 13t34 -12t13 -33q1 -18 -12 -31.5t-35 -13.5q-20 0 -34 13.5z" />
    <glyph glyph-name="uni1EF4" unicode="&#x1ef4;" horiz-adv-x="632" 
d="M195 0v53h82v188l-188 269h-75v53h234v-53h-71l148 -216l143 216h-72v53h222v-53h-77l-183 -268v-189h83v-53h-246zM284 -126.5q-14 13.5 -14 31.5q0 19 13.5 32t34.5 13t34 -12t13 -33q1 -18 -12 -31.5t-35 -13.5q-20 0 -34 13.5z" />
    <glyph glyph-name="Ygrave" unicode="&#x1ef2;" horiz-adv-x="632" 
d="M195 0v53h82v188l-188 269h-75v53h234v-53h-71l148 -216l143 216h-72v53h222v-53h-77l-183 -268v-189h83v-53h-246zM298 647l-90 145h84l53 -145h-47z" />
    <glyph glyph-name="uni1EF6" unicode="&#x1ef6;" horiz-adv-x="632" 
d="M195 0v53h82v188l-188 269h-75v53h234v-53h-71l148 -216l143 216h-72v53h222v-53h-77l-183 -268v-189h83v-53h-246zM308 650q34 11 34 36q0 13 -9.5 20t-24.5 7q-20 0 -43 -13l-15 42q30 17 63 17q36 0 59 -20t23 -51q0 -62 -73 -82z" />
    <glyph glyph-name="uni0232" unicode="&#x232;" horiz-adv-x="632" 
d="M195 0v53h82v188l-188 269h-75v53h234v-53h-71l148 -216l143 216h-72v53h222v-53h-77l-183 -268v-189h83v-53h-246zM217 643v45h210v-45h-210z" />
    <glyph glyph-name="uni1EF8" unicode="&#x1ef8;" horiz-adv-x="632" 
d="M195 0v53h82v188l-188 269h-75v53h234v-53h-71l148 -216l143 216h-72v53h222v-53h-77l-183 -268v-189h83v-53h-246zM355.5 644.5q-15.5 4.5 -29 9t-17.5 6.5q-40 17 -57 17q-13 0 -20.5 -7.5t-10.5 -25.5h-31q4 44 23 66t50 22q22 0 70 -20q42 -17 56 -17q15 0 24 8
t13 27h29q-3 -41 -20 -65.5t-50 -24.5q-14 0 -29.5 4.5z" />
    <glyph glyph-name="Z" unicode="Z" horiz-adv-x="576" 
d="M62 0v57l355 453h-280v-133h-60v186h439v-51l-358 -459h305v142h60v-195h-461z" />
    <glyph glyph-name="Zacute" unicode="&#x179;" horiz-adv-x="576" 
d="M62 0v57l355 453h-280v-133h-60v186h439v-51l-358 -459h305v142h60v-195h-461zM274 647l53 145h84l-90 -145h-47z" />
    <glyph glyph-name="Zcaron" unicode="&#x17d;" horiz-adv-x="576" 
d="M62 0v57l355 453h-280v-133h-60v186h439v-51l-358 -459h305v142h60v-195h-461zM262 618l-81 151h53l64 -109l62 109h52l-79 -151h-71z" />
    <glyph glyph-name="Zdotaccent" unicode="&#x17b;" horiz-adv-x="576" 
d="M62 0v57l355 453h-280v-133h-60v186h439v-51l-358 -459h305v142h60v-195h-461zM263 643.5q-14 13.5 -14 31.5q0 19 13.5 32t34.5 13t34 -12t13 -33q1 -18 -12 -31.5t-35 -13.5q-20 0 -34 13.5z" />
    <glyph glyph-name="uni1E92" unicode="&#x1e92;" horiz-adv-x="576" 
d="M62 0v57l355 453h-280v-133h-60v186h439v-51l-358 -459h305v142h60v-195h-461zM259 -126.5q-14 13.5 -14 31.5q0 19 13.5 32t34.5 13t34 -12t13 -33q1 -18 -12 -31.5t-35 -13.5q-20 0 -34 13.5z" />
    <glyph glyph-name="Iacute_J.loclNLD" horiz-adv-x="666" 
d="M50 0v53h78v457h-78v53h239v-53h-79v-457h79v-53h-239zM372 -42h60q34 0 45.5 20t11.5 62v470h-77v53h231v-53h-73v-469q0 -76 -29 -111.5t-96 -35.5h-73v64zM507 647l53 145h84l-90 -145h-47zM145 647l53 145h84l-90 -145h-47z" />
    <glyph glyph-name="a" unicode="a" horiz-adv-x="456" 
d="M441 53v-53h-127l-4 35q-32 -24 -64 -35t-72 -11q-60 0 -97.5 33.5t-37.5 83.5q0 64 43.5 93.5t114.5 29.5q51 0 109 -13v41q0 45 -24.5 68t-68.5 23q-29 0 -66.5 -9.5t-68.5 -26.5l-22 48q33 21 76.5 32t81.5 11q77 0 121 -37.5t44 -101.5v-211h62zM129.5 59.5
q20.5 -19.5 55.5 -19.5q59 0 121 43v90q-53 12 -104 12q-40 0 -66.5 -17.5t-26.5 -57.5q0 -31 20.5 -50.5z" />
    <glyph glyph-name="aacute" unicode="&#xe1;" horiz-adv-x="456" 
d="M441 53v-53h-127l-4 35q-32 -24 -64 -35t-72 -11q-60 0 -97.5 33.5t-37.5 83.5q0 64 43.5 93.5t114.5 29.5q51 0 109 -13v41q0 45 -24.5 68t-68.5 23q-29 0 -66.5 -9.5t-68.5 -26.5l-22 48q33 21 76.5 32t81.5 11q77 0 121 -37.5t44 -101.5v-211h62zM129.5 59.5
q20.5 -19.5 55.5 -19.5q59 0 121 43v90q-53 12 -104 12q-40 0 -66.5 -17.5t-26.5 -57.5q0 -31 20.5 -50.5zM194 477l53 145h84l-90 -145h-47z" />
    <glyph glyph-name="abreve" unicode="&#x103;" horiz-adv-x="456" 
d="M441 53v-53h-127l-4 35q-32 -24 -64 -35t-72 -11q-60 0 -97.5 33.5t-37.5 83.5q0 64 43.5 93.5t114.5 29.5q51 0 109 -13v41q0 45 -24.5 68t-68.5 23q-29 0 -66.5 -9.5t-68.5 -26.5l-22 48q33 21 76.5 32t81.5 11q77 0 121 -37.5t44 -101.5v-211h62zM129.5 59.5
q20.5 -19.5 55.5 -19.5q59 0 121 43v90q-53 12 -104 12q-40 0 -66.5 -17.5t-26.5 -57.5q0 -31 20.5 -50.5zM141.5 477q-29.5 27 -34.5 73h49q11 -55 61 -55q23 0 39.5 14.5t20.5 40.5h50q-5 -47 -35 -73.5t-77 -26.5q-44 0 -73.5 27z" />
    <glyph glyph-name="uni1EAF" unicode="&#x1eaf;" horiz-adv-x="456" 
d="M441 53v-53h-127l-4 35q-32 -24 -64 -35t-72 -11q-60 0 -97.5 33.5t-37.5 83.5q0 64 43.5 93.5t114.5 29.5q51 0 109 -13v41q0 45 -24.5 68t-68.5 23q-29 0 -66.5 -9.5t-68.5 -26.5l-22 48q33 21 76.5 32t81.5 11q77 0 121 -37.5t44 -101.5v-211h62zM129.5 59.5
q20.5 -19.5 55.5 -19.5q59 0 121 43v90q-53 12 -104 12q-40 0 -66.5 -17.5t-26.5 -57.5q0 -31 20.5 -50.5zM188 564l39 105h84l-76 -105h-47zM141.5 477q-29.5 27 -34.5 73h49q11 -55 61 -55q23 0 39.5 14.5t20.5 40.5h50q-5 -47 -35 -73.5t-77 -26.5q-44 0 -73.5 27z" />
    <glyph glyph-name="uni1EB7" unicode="&#x1eb7;" horiz-adv-x="456" 
d="M441 53v-53h-127l-4 35q-32 -24 -64 -35t-72 -11q-60 0 -97.5 33.5t-37.5 83.5q0 64 43.5 93.5t114.5 29.5q51 0 109 -13v41q0 45 -24.5 68t-68.5 23q-29 0 -66.5 -9.5t-68.5 -26.5l-22 48q33 21 76.5 32t81.5 11q77 0 121 -37.5t44 -101.5v-211h62zM129.5 59.5
q20.5 -19.5 55.5 -19.5q59 0 121 43v90q-53 12 -104 12q-40 0 -66.5 -17.5t-26.5 -57.5q0 -31 20.5 -50.5zM208 -126.5q-14 13.5 -14 31.5q0 19 13.5 32t34.5 13t34 -12t13 -33q1 -18 -12 -31.5t-35 -13.5q-20 0 -34 13.5zM141.5 477q-29.5 27 -34.5 73h49q11 -55 61 -55
q23 0 39.5 14.5t20.5 40.5h50q-5 -47 -35 -73.5t-77 -26.5q-44 0 -73.5 27z" />
    <glyph glyph-name="uni1EB1" unicode="&#x1eb1;" horiz-adv-x="456" 
d="M441 53v-53h-127l-4 35q-32 -24 -64 -35t-72 -11q-60 0 -97.5 33.5t-37.5 83.5q0 64 43.5 93.5t114.5 29.5q51 0 109 -13v41q0 45 -24.5 68t-68.5 23q-29 0 -66.5 -9.5t-68.5 -26.5l-22 48q33 21 76.5 32t81.5 11q77 0 121 -37.5t44 -101.5v-211h62zM129.5 59.5
q20.5 -19.5 55.5 -19.5q59 0 121 43v90q-53 12 -104 12q-40 0 -66.5 -17.5t-26.5 -57.5q0 -31 20.5 -50.5zM198 564l-76 105h84l39 -105h-47zM141.5 477q-29.5 27 -34.5 73h49q11 -55 61 -55q23 0 39.5 14.5t20.5 40.5h50q-5 -47 -35 -73.5t-77 -26.5q-44 0 -73.5 27z" />
    <glyph glyph-name="uni1EB3" unicode="&#x1eb3;" horiz-adv-x="456" 
d="M441 53v-53h-127l-4 35q-32 -24 -64 -35t-72 -11q-60 0 -97.5 33.5t-37.5 83.5q0 64 43.5 93.5t114.5 29.5q51 0 109 -13v41q0 45 -24.5 68t-68.5 23q-29 0 -66.5 -9.5t-68.5 -26.5l-22 48q33 21 76.5 32t81.5 11q77 0 121 -37.5t44 -101.5v-211h62zM129.5 59.5
q20.5 -19.5 55.5 -19.5q59 0 121 43v90q-53 12 -104 12q-40 0 -66.5 -17.5t-26.5 -57.5q0 -31 20.5 -50.5zM196 593q34 11 34 36q0 13 -9.5 20t-24.5 7q-20 0 -43 -13l-15 42q30 17 63 17q36 0 59 -20t23 -51q0 -62 -73 -82zM141.5 477q-29.5 27 -34.5 73h49q11 -55 61 -55
q23 0 39.5 14.5t20.5 40.5h50q-5 -47 -35 -73.5t-77 -26.5q-44 0 -73.5 27z" />
    <glyph glyph-name="uni1EB5" unicode="&#x1eb5;" horiz-adv-x="456" 
d="M441 53v-53h-127l-4 35q-32 -24 -64 -35t-72 -11q-60 0 -97.5 33.5t-37.5 83.5q0 64 43.5 93.5t114.5 29.5q51 0 109 -13v41q0 45 -24.5 68t-68.5 23q-29 0 -66.5 -9.5t-68.5 -26.5l-22 48q33 21 76.5 32t81.5 11q77 0 121 -37.5t44 -101.5v-211h62zM129.5 59.5
q20.5 -19.5 55.5 -19.5q59 0 121 43v90q-53 12 -104 12q-40 0 -66.5 -17.5t-26.5 -57.5q0 -31 20.5 -50.5zM250.5 591.5q-15.5 4.5 -29 9t-17.5 6.5q-40 17 -57 17q-13 0 -20.5 -7.5t-10.5 -25.5h-31q4 44 23 66t50 22q22 0 70 -20q42 -17 56 -17q15 0 24 8t13 27h29
q-3 -41 -20 -65.5t-50 -24.5q-14 0 -29.5 4.5zM141.5 477q-29.5 27 -34.5 73h49q11 -55 61 -55q23 0 39.5 14.5t20.5 40.5h50q-5 -47 -35 -73.5t-77 -26.5q-44 0 -73.5 27z" />
    <glyph glyph-name="uni01CE" unicode="&#x1ce;" horiz-adv-x="456" 
d="M441 53v-53h-127l-4 35q-32 -24 -64 -35t-72 -11q-60 0 -97.5 33.5t-37.5 83.5q0 64 43.5 93.5t114.5 29.5q51 0 109 -13v41q0 45 -24.5 68t-68.5 23q-29 0 -66.5 -9.5t-68.5 -26.5l-22 48q33 21 76.5 32t81.5 11q77 0 121 -37.5t44 -101.5v-211h62zM129.5 59.5
q20.5 -19.5 55.5 -19.5q59 0 121 43v90q-53 12 -104 12q-40 0 -66.5 -17.5t-26.5 -57.5q0 -31 20.5 -50.5zM182 448l-81 151h53l64 -109l62 109h52l-79 -151h-71z" />
    <glyph glyph-name="acircumflex" unicode="&#xe2;" horiz-adv-x="456" 
d="M441 53v-53h-127l-4 35q-32 -24 -64 -35t-72 -11q-60 0 -97.5 33.5t-37.5 83.5q0 64 43.5 93.5t114.5 29.5q51 0 109 -13v41q0 45 -24.5 68t-68.5 23q-29 0 -66.5 -9.5t-68.5 -26.5l-22 48q33 21 76.5 32t81.5 11q77 0 121 -37.5t44 -101.5v-211h62zM129.5 59.5
q20.5 -19.5 55.5 -19.5q59 0 121 43v90q-53 12 -104 12q-40 0 -66.5 -17.5t-26.5 -57.5q0 -31 20.5 -50.5zM95 449l83 157h78l83 -157h-56l-66 125l-66 -125h-56z" />
    <glyph glyph-name="uni1EA5" unicode="&#x1ea5;" horiz-adv-x="456" 
d="M441 53v-53h-127l-4 35q-32 -24 -64 -35t-72 -11q-60 0 -97.5 33.5t-37.5 83.5q0 64 43.5 93.5t114.5 29.5q51 0 109 -13v41q0 45 -24.5 68t-68.5 23q-29 0 -66.5 -9.5t-68.5 -26.5l-22 48q33 21 76.5 32t81.5 11q77 0 121 -37.5t44 -101.5v-211h62zM129.5 59.5
q20.5 -19.5 55.5 -19.5q59 0 121 43v90q-53 12 -104 12q-40 0 -66.5 -17.5t-26.5 -57.5q0 -31 20.5 -50.5zM311 540l43 115h74l-70 -115h-47zM95 449l83 127h78l83 -127h-56l-66 95l-66 -95h-56z" />
    <glyph glyph-name="uni1EAD" unicode="&#x1ead;" horiz-adv-x="456" 
d="M441 53v-53h-127l-4 35q-32 -24 -64 -35t-72 -11q-60 0 -97.5 33.5t-37.5 83.5q0 64 43.5 93.5t114.5 29.5q51 0 109 -13v41q0 45 -24.5 68t-68.5 23q-29 0 -66.5 -9.5t-68.5 -26.5l-22 48q33 21 76.5 32t81.5 11q77 0 121 -37.5t44 -101.5v-211h62zM129.5 59.5
q20.5 -19.5 55.5 -19.5q59 0 121 43v90q-53 12 -104 12q-40 0 -66.5 -17.5t-26.5 -57.5q0 -31 20.5 -50.5zM208 -126.5q-14 13.5 -14 31.5q0 19 13.5 32t34.5 13t34 -12t13 -33q1 -18 -12 -31.5t-35 -13.5q-20 0 -34 13.5zM95 449l83 157h78l83 -157h-56l-66 125l-66 -125
h-56z" />
    <glyph glyph-name="uni1EA7" unicode="&#x1ea7;" horiz-adv-x="456" 
d="M441 53v-53h-127l-4 35q-32 -24 -64 -35t-72 -11q-60 0 -97.5 33.5t-37.5 83.5q0 64 43.5 93.5t114.5 29.5q51 0 109 -13v41q0 45 -24.5 68t-68.5 23q-29 0 -66.5 -9.5t-68.5 -26.5l-22 48q33 21 76.5 32t81.5 11q77 0 121 -37.5t44 -101.5v-211h62zM129.5 59.5
q20.5 -19.5 55.5 -19.5q59 0 121 43v90q-53 12 -104 12q-40 0 -66.5 -17.5t-26.5 -57.5q0 -31 20.5 -50.5zM378 540h-47l-70 115h74zM95 449l83 127h78l83 -127h-56l-66 95l-66 -95h-56z" />
    <glyph glyph-name="uni1EA9" unicode="&#x1ea9;" horiz-adv-x="456" 
d="M441 53v-53h-127l-4 35q-32 -24 -64 -35t-72 -11q-60 0 -97.5 33.5t-37.5 83.5q0 64 43.5 93.5t114.5 29.5q51 0 109 -13v41q0 45 -24.5 68t-68.5 23q-29 0 -66.5 -9.5t-68.5 -26.5l-22 48q33 21 76.5 32t81.5 11q77 0 121 -37.5t44 -101.5v-211h62zM129.5 59.5
q20.5 -19.5 55.5 -19.5q59 0 121 43v90q-53 12 -104 12q-40 0 -66.5 -17.5t-26.5 -57.5q0 -31 20.5 -50.5zM301 574q34 11 34 36q0 13 -9.5 20t-24.5 7q-20 0 -43 -13l-15 42q30 17 63 17q36 0 59 -20t23 -51q0 -62 -73 -82zM95 449l83 127h78l83 -127h-56l-66 95l-66 -95
h-56z" />
    <glyph glyph-name="uni1EAB" unicode="&#x1eab;" horiz-adv-x="456" 
d="M441 53v-53h-127l-4 35q-32 -24 -64 -35t-72 -11q-60 0 -97.5 33.5t-37.5 83.5q0 64 43.5 93.5t114.5 29.5q51 0 109 -13v41q0 45 -24.5 68t-68.5 23q-29 0 -66.5 -9.5t-68.5 -26.5l-22 48q33 21 76.5 32t81.5 11q77 0 121 -37.5t44 -101.5v-211h62zM129.5 59.5
q20.5 -19.5 55.5 -19.5q59 0 121 43v90q-53 12 -104 12q-40 0 -66.5 -17.5t-26.5 -57.5q0 -31 20.5 -50.5zM250.5 606.5q-15.5 4.5 -29 9t-17.5 6.5q-40 17 -57 17q-13 0 -20.5 -7.5t-10.5 -25.5h-31q4 44 23 66t50 22q22 0 70 -20q42 -17 56 -17q15 0 24 8t13 27h29
q-3 -41 -20 -65.5t-50 -24.5q-14 0 -29.5 4.5zM95 449l83 127h78l83 -127h-56l-66 95l-66 -95h-56z" />
    <glyph glyph-name="uni0201" unicode="&#x201;" horiz-adv-x="456" 
d="M441 53v-53h-127l-4 35q-32 -24 -64 -35t-72 -11q-60 0 -97.5 33.5t-37.5 83.5q0 64 43.5 93.5t114.5 29.5q51 0 109 -13v41q0 45 -24.5 68t-68.5 23q-29 0 -66.5 -9.5t-68.5 -26.5l-22 48q33 21 76.5 32t81.5 11q77 0 121 -37.5t44 -101.5v-211h62zM129.5 59.5
q20.5 -19.5 55.5 -19.5q59 0 121 43v90q-53 12 -104 12q-40 0 -66.5 -17.5t-26.5 -57.5q0 -31 20.5 -50.5zM114 477l-94 152h84l57 -152h-47zM249 477l-93 152h84l56 -152h-47z" />
    <glyph glyph-name="adieresis" unicode="&#xe4;" horiz-adv-x="456" 
d="M441 53v-53h-127l-4 35q-32 -24 -64 -35t-72 -11q-60 0 -97.5 33.5t-37.5 83.5q0 64 43.5 93.5t114.5 29.5q51 0 109 -13v41q0 45 -24.5 68t-68.5 23q-29 0 -66.5 -9.5t-68.5 -26.5l-22 48q33 21 76.5 32t81.5 11q77 0 121 -37.5t44 -101.5v-211h62zM129.5 59.5
q20.5 -19.5 55.5 -19.5q59 0 121 43v90q-53 12 -104 12q-40 0 -66.5 -17.5t-26.5 -57.5q0 -31 20.5 -50.5zM88.5 469q-12.5 12 -12.5 31t12.5 31t32.5 12t32.5 -12t12.5 -31t-12.5 -31t-32.5 -12t-32.5 12zM281 468.5q-12 11.5 -12 31.5t12 31.5t32 11.5t32.5 -12t12.5 -31
t-12.5 -31t-32.5 -12t-32 11.5z" />
    <glyph glyph-name="uni0227" unicode="&#x227;" horiz-adv-x="456" 
d="M441 53v-53h-127l-4 35q-32 -24 -64 -35t-72 -11q-60 0 -97.5 33.5t-37.5 83.5q0 64 43.5 93.5t114.5 29.5q51 0 109 -13v41q0 45 -24.5 68t-68.5 23q-29 0 -66.5 -9.5t-68.5 -26.5l-22 48q33 21 76.5 32t81.5 11q77 0 121 -37.5t44 -101.5v-211h62zM129.5 59.5
q20.5 -19.5 55.5 -19.5q59 0 121 43v90q-53 12 -104 12q-40 0 -66.5 -17.5t-26.5 -57.5q0 -31 20.5 -50.5zM183 473.5q-14 13.5 -14 31.5q0 19 13.5 32t34.5 13t34 -12t13 -33q1 -18 -12 -31.5t-35 -13.5q-20 0 -34 13.5z" />
    <glyph glyph-name="uni1EA1" unicode="&#x1ea1;" horiz-adv-x="456" 
d="M441 53v-53h-127l-4 35q-32 -24 -64 -35t-72 -11q-60 0 -97.5 33.5t-37.5 83.5q0 64 43.5 93.5t114.5 29.5q51 0 109 -13v41q0 45 -24.5 68t-68.5 23q-29 0 -66.5 -9.5t-68.5 -26.5l-22 48q33 21 76.5 32t81.5 11q77 0 121 -37.5t44 -101.5v-211h62zM129.5 59.5
q20.5 -19.5 55.5 -19.5q59 0 121 43v90q-53 12 -104 12q-40 0 -66.5 -17.5t-26.5 -57.5q0 -31 20.5 -50.5zM208 -126.5q-14 13.5 -14 31.5q0 19 13.5 32t34.5 13t34 -12t13 -33q1 -18 -12 -31.5t-35 -13.5q-20 0 -34 13.5z" />
    <glyph glyph-name="agrave" unicode="&#xe0;" horiz-adv-x="456" 
d="M441 53v-53h-127l-4 35q-32 -24 -64 -35t-72 -11q-60 0 -97.5 33.5t-37.5 83.5q0 64 43.5 93.5t114.5 29.5q51 0 109 -13v41q0 45 -24.5 68t-68.5 23q-29 0 -66.5 -9.5t-68.5 -26.5l-22 48q33 21 76.5 32t81.5 11q77 0 121 -37.5t44 -101.5v-211h62zM129.5 59.5
q20.5 -19.5 55.5 -19.5q59 0 121 43v90q-53 12 -104 12q-40 0 -66.5 -17.5t-26.5 -57.5q0 -31 20.5 -50.5zM193 477l-90 145h84l53 -145h-47z" />
    <glyph glyph-name="uni1EA3" unicode="&#x1ea3;" horiz-adv-x="456" 
d="M441 53v-53h-127l-4 35q-32 -24 -64 -35t-72 -11q-60 0 -97.5 33.5t-37.5 83.5q0 64 43.5 93.5t114.5 29.5q51 0 109 -13v41q0 45 -24.5 68t-68.5 23q-29 0 -66.5 -9.5t-68.5 -26.5l-22 48q33 21 76.5 32t81.5 11q77 0 121 -37.5t44 -101.5v-211h62zM129.5 59.5
q20.5 -19.5 55.5 -19.5q59 0 121 43v90q-53 12 -104 12q-40 0 -66.5 -17.5t-26.5 -57.5q0 -31 20.5 -50.5zM203 480q34 11 34 36q0 13 -9.5 20t-24.5 7q-20 0 -43 -13l-15 42q30 17 63 17q36 0 59 -20t23 -51q0 -62 -73 -82z" />
    <glyph glyph-name="uni0203" unicode="&#x203;" horiz-adv-x="456" 
d="M441 53v-53h-127l-4 35q-32 -24 -64 -35t-72 -11q-60 0 -97.5 33.5t-37.5 83.5q0 64 43.5 93.5t114.5 29.5q51 0 109 -13v41q0 45 -24.5 68t-68.5 23q-29 0 -66.5 -9.5t-68.5 -26.5l-22 48q33 21 76.5 32t81.5 11q77 0 121 -37.5t44 -101.5v-211h62zM129.5 59.5
q20.5 -19.5 55.5 -19.5q59 0 121 43v90q-53 12 -104 12q-40 0 -66.5 -17.5t-26.5 -57.5q0 -31 20.5 -50.5zM136.5 528q31.5 29 80.5 29q48 0 79.5 -29t36.5 -78h-59q-5 25 -19.5 38t-37.5 13q-49 0 -58 -51h-59q5 49 36.5 78z" />
    <glyph glyph-name="amacron" unicode="&#x101;" horiz-adv-x="456" 
d="M441 53v-53h-127l-4 35q-32 -24 -64 -35t-72 -11q-60 0 -97.5 33.5t-37.5 83.5q0 64 43.5 93.5t114.5 29.5q51 0 109 -13v41q0 45 -24.5 68t-68.5 23q-29 0 -66.5 -9.5t-68.5 -26.5l-22 48q33 21 76.5 32t81.5 11q77 0 121 -37.5t44 -101.5v-211h62zM129.5 59.5
q20.5 -19.5 55.5 -19.5q59 0 121 43v90q-53 12 -104 12q-40 0 -66.5 -17.5t-26.5 -57.5q0 -31 20.5 -50.5zM112 473v45h210v-45h-210z" />
    <glyph glyph-name="aogonek" unicode="&#x105;" horiz-adv-x="456" 
d="M461 -110v-40q-17 -10 -31 -14.5t-31 -4.5q-34 0 -57 20.5t-23 53.5q0 24 13 47t40 48h-58l-4 35q-32 -24 -64 -35t-72 -11q-60 0 -97.5 33.5t-37.5 83.5q0 64 43.5 93.5t114.5 29.5q51 0 109 -13v41q0 45 -24.5 68t-68.5 23q-29 0 -66.5 -9.5t-68.5 -26.5l-22 48
q33 21 76.5 32t81.5 11q77 0 121 -37.5t44 -101.5v-211h62v-53h-26q-45 -47 -45 -80q0 -21 13 -32t34 -11q22 0 44 13zM129.5 59.5q20.5 -19.5 55.5 -19.5q59 0 121 43v90q-53 12 -104 12q-40 0 -66.5 -17.5t-26.5 -57.5q0 -31 20.5 -50.5z" />
    <glyph glyph-name="aring" unicode="&#xe5;" horiz-adv-x="456" 
d="M441 53v-53h-127l-4 35q-32 -24 -64 -35t-72 -11q-60 0 -97.5 33.5t-37.5 83.5q0 64 43.5 93.5t114.5 29.5q51 0 109 -13v41q0 45 -24.5 68t-68.5 23q-29 0 -66.5 -9.5t-68.5 -26.5l-22 48q33 21 76.5 32t81.5 11q77 0 121 -37.5t44 -101.5v-211h62zM129.5 59.5
q20.5 -19.5 55.5 -19.5q59 0 121 43v90q-53 12 -104 12q-40 0 -66.5 -17.5t-26.5 -57.5q0 -31 20.5 -50.5zM159.5 449.5q-21.5 21.5 -21.5 53.5t21 52.5t58 20.5t58 -20.5t21 -52.5t-21.5 -53.5t-57.5 -21.5t-57.5 21.5zM249 471.5q12 12.5 12 31.5t-12 31t-32 12
q-21 0 -33 -12t-12 -31t12.5 -31.5t32.5 -12.5t32 12.5z" />
    <glyph glyph-name="aringacute" unicode="&#x1fb;" horiz-adv-x="456" 
d="M441 53v-53h-127l-4 35q-32 -24 -64 -35t-72 -11q-60 0 -97.5 33.5t-37.5 83.5q0 64 43.5 93.5t114.5 29.5q51 0 109 -13v41q0 45 -24.5 68t-68.5 23q-29 0 -66.5 -9.5t-68.5 -26.5l-22 48q33 21 76.5 32t81.5 11q77 0 121 -37.5t44 -101.5v-211h62zM129.5 59.5
q20.5 -19.5 55.5 -19.5q59 0 121 43v90q-53 12 -104 12q-40 0 -66.5 -17.5t-26.5 -57.5q0 -31 20.5 -50.5zM159.5 449.5q-21.5 21.5 -21.5 53.5t21 52.5t58 20.5t58 -20.5t21 -52.5t-21.5 -53.5t-57.5 -21.5t-57.5 21.5zM249 471.5q12 12.5 12 31.5t-12 31t-32 12
q-21 0 -33 -12t-12 -31t12.5 -31.5t32.5 -12.5t32 12.5zM194 612l53 145h84l-90 -145h-47z" />
    <glyph glyph-name="atilde" unicode="&#xe3;" horiz-adv-x="456" 
d="M441 53v-53h-127l-4 35q-32 -24 -64 -35t-72 -11q-60 0 -97.5 33.5t-37.5 83.5q0 64 43.5 93.5t114.5 29.5q51 0 109 -13v41q0 45 -24.5 68t-68.5 23q-29 0 -66.5 -9.5t-68.5 -26.5l-22 48q33 21 76.5 32t81.5 11q77 0 121 -37.5t44 -101.5v-211h62zM129.5 59.5
q20.5 -19.5 55.5 -19.5q59 0 121 43v90q-53 12 -104 12q-40 0 -66.5 -17.5t-26.5 -57.5q0 -31 20.5 -50.5zM250.5 474.5q-15.5 4.5 -29 9t-17.5 6.5q-40 17 -57 17q-13 0 -20.5 -7.5t-10.5 -25.5h-31q4 44 23 66t50 22q22 0 70 -20q42 -17 56 -17q15 0 24 8t13 27h29
q-3 -41 -20 -65.5t-50 -24.5q-14 0 -29.5 4.5z" />
    <glyph glyph-name="ae" unicode="&#xe6;" horiz-adv-x="742" 
d="M78 22.5q-39 33.5 -39 83.5q0 63 46 92t121 29h100v30q0 45 -24.5 68t-68.5 23q-29 0 -66.5 -9.5t-68.5 -26.5l-22 48q33 21 76.5 32t81.5 11q50 0 87 -17t57 -47q28 31 68.5 48t87.5 17q90 0 141.5 -55t51.5 -149v-19h-324q7 -63 45 -99.5t97 -36.5q83 0 149 63l26 -45
q-29 -34 -73 -54.5t-99 -20.5q-53 0 -98.5 19.5t-75.5 54.5q-41 -38 -82.5 -55.5t-92.5 -17.5q-62 0 -101 33.5zM634 227q0 57 -33.5 90t-86.5 33q-52 0 -88 -33t-43 -90h251zM259 54q33 14 70 45q-20 37 -23 82h-95q-45 0 -73.5 -16.5t-28.5 -54.5q0 -31 22 -50.5t59 -19.5
q36 0 69 14z" />
    <glyph glyph-name="aeacute" unicode="&#x1fd;" horiz-adv-x="742" 
d="M78 22.5q-39 33.5 -39 83.5q0 63 46 92t121 29h100v30q0 45 -24.5 68t-68.5 23q-29 0 -66.5 -9.5t-68.5 -26.5l-22 48q33 21 76.5 32t81.5 11q50 0 87 -17t57 -47q28 31 68.5 48t87.5 17q90 0 141.5 -55t51.5 -149v-19h-324q7 -63 45 -99.5t97 -36.5q83 0 149 63l26 -45
q-29 -34 -73 -54.5t-99 -20.5q-53 0 -98.5 19.5t-75.5 54.5q-41 -38 -82.5 -55.5t-92.5 -17.5q-62 0 -101 33.5zM634 227q0 57 -33.5 90t-86.5 33q-52 0 -88 -33t-43 -90h251zM259 54q33 14 70 45q-20 37 -23 82h-95q-45 0 -73.5 -16.5t-28.5 -54.5q0 -31 22 -50.5t59 -19.5
q36 0 69 14zM335 477l53 145h84l-90 -145h-47z" />
    <glyph glyph-name="uni01E3" unicode="&#x1e3;" horiz-adv-x="742" 
d="M78 22.5q-39 33.5 -39 83.5q0 63 46 92t121 29h100v30q0 45 -24.5 68t-68.5 23q-29 0 -66.5 -9.5t-68.5 -26.5l-22 48q33 21 76.5 32t81.5 11q50 0 87 -17t57 -47q28 31 68.5 48t87.5 17q90 0 141.5 -55t51.5 -149v-19h-324q7 -63 45 -99.5t97 -36.5q83 0 149 63l26 -45
q-29 -34 -73 -54.5t-99 -20.5q-53 0 -98.5 19.5t-75.5 54.5q-41 -38 -82.5 -55.5t-92.5 -17.5q-62 0 -101 33.5zM634 227q0 57 -33.5 90t-86.5 33q-52 0 -88 -33t-43 -90h251zM259 54q33 14 70 45q-20 37 -23 82h-95q-45 0 -73.5 -16.5t-28.5 -54.5q0 -31 22 -50.5t59 -19.5
q36 0 69 14zM253 473v45h210v-45h-210z" />
    <glyph glyph-name="b" unicode="b" horiz-adv-x="522" 
d="M403.5 379.5q43.5 -23.5 68.5 -69t25 -108.5q0 -65 -27.5 -113t-74.5 -73.5t-102 -25.5q-72 0 -121 43v-33h-147v53h73v468h-71v52h145v-215q30 22 65 33.5t69 11.5q54 0 97.5 -23.5zM381 84.5q39 39.5 39 111.5q0 70 -37.5 110t-96.5 40q-28 0 -58 -11t-56 -32v-218
q24 -19 52.5 -29.5t55.5 -10.5q62 0 101 39.5z" />
    <glyph glyph-name="uni1E03" unicode="&#x1e03;" horiz-adv-x="522" 
d="M403.5 379.5q43.5 -23.5 68.5 -69t25 -108.5q0 -65 -27.5 -113t-74.5 -73.5t-102 -25.5q-72 0 -121 43v-33h-147v53h73v468h-71v52h145v-215q30 22 65 33.5t69 11.5q54 0 97.5 -23.5zM381 84.5q39 39.5 39 111.5q0 70 -37.5 110t-96.5 40q-28 0 -58 -11t-56 -32v-218
q24 -19 52.5 -29.5t55.5 -10.5q62 0 101 39.5zM279 473.5q-14 13.5 -14 31.5q0 19 13.5 32t34.5 13t34 -12t13 -33q1 -18 -12 -31.5t-35 -13.5q-20 0 -34 13.5z" />
    <glyph glyph-name="c" unicode="c" horiz-adv-x="469" 
d="M144 305q-41 -41 -41 -104q0 -68 40 -110.5t104 -42.5q48 0 81 18.5t64 53.5l31 -45q-31 -40 -77 -62.5t-106 -22.5q-62 0 -110.5 27t-76 74.5t-27.5 107.5t26.5 106.5t73.5 72.5t106 26q44 0 78 -16t52 -43v50h62v-141h-56q-9 43 -41 67.5t-78 24.5q-64 0 -105 -41z" />
    <glyph glyph-name="cacute" unicode="&#x107;" horiz-adv-x="469" 
d="M144 305q-41 -41 -41 -104q0 -68 40 -110.5t104 -42.5q48 0 81 18.5t64 53.5l31 -45q-31 -40 -77 -62.5t-106 -22.5q-62 0 -110.5 27t-76 74.5t-27.5 107.5t26.5 106.5t73.5 72.5t106 26q44 0 78 -16t52 -43v50h62v-141h-56q-9 43 -41 67.5t-78 24.5q-64 0 -105 -41z
M221 477l53 145h84l-90 -145h-47z" />
    <glyph glyph-name="ccaron" unicode="&#x10d;" horiz-adv-x="469" 
d="M144 305q-41 -41 -41 -104q0 -68 40 -110.5t104 -42.5q48 0 81 18.5t64 53.5l31 -45q-31 -40 -77 -62.5t-106 -22.5q-62 0 -110.5 27t-76 74.5t-27.5 107.5t26.5 106.5t73.5 72.5t106 26q44 0 78 -16t52 -43v50h62v-141h-56q-9 43 -41 67.5t-78 24.5q-64 0 -105 -41z
M209 448l-81 151h53l64 -109l62 109h52l-79 -151h-71z" />
    <glyph glyph-name="ccedilla" unicode="&#xe7;" horiz-adv-x="469" 
d="M144 305q-41 -41 -41 -104q0 -68 40 -110.5t104 -42.5q48 0 81 18.5t64 53.5l31 -45q-61 -79 -169 -85l-13 -48q36 -4 54 -20.5t18 -39.5q0 -29 -19.5 -43t-51.5 -14q-43 0 -87 19v29q35 -10 57 -10q38 0 38 26q0 28 -57 31l27 71q-56 4 -100.5 31.5t-69 73.5t-24.5 103
q0 60 26.5 106.5t73.5 72.5t106 26q44 0 78 -16t52 -43v50h62v-141h-56q-9 43 -41 67.5t-78 24.5q-64 0 -105 -41z" />
    <glyph glyph-name="uni1E09" unicode="&#x1e09;" horiz-adv-x="469" 
d="M358 622l-90 -145h-47l53 145h84zM144 305q-41 -41 -41 -104q0 -68 40 -110.5t104 -42.5q48 0 81 18.5t64 53.5l31 -45q-61 -79 -169 -85l-13 -48q36 -4 54 -20.5t18 -39.5q0 -29 -19.5 -43t-51.5 -14q-43 0 -87 19v29q35 -10 57 -10q38 0 38 26q0 28 -57 31l27 71
q-56 4 -100.5 31.5t-69 73.5t-24.5 103q0 60 26.5 106.5t73.5 72.5t106 26q44 0 78 -16t52 -43v50h62v-141h-56q-9 43 -41 67.5t-78 24.5q-64 0 -105 -41z" />
    <glyph glyph-name="ccircumflex" unicode="&#x109;" horiz-adv-x="469" 
d="M144 305q-41 -41 -41 -104q0 -68 40 -110.5t104 -42.5q48 0 81 18.5t64 53.5l31 -45q-31 -40 -77 -62.5t-106 -22.5q-62 0 -110.5 27t-76 74.5t-27.5 107.5t26.5 106.5t73.5 72.5t106 26q44 0 78 -16t52 -43v50h62v-141h-56q-9 43 -41 67.5t-78 24.5q-64 0 -105 -41z
M122 449l83 157h78l83 -157h-56l-66 125l-66 -125h-56z" />
    <glyph glyph-name="cdotaccent" unicode="&#x10b;" horiz-adv-x="469" 
d="M144 305q-41 -41 -41 -104q0 -68 40 -110.5t104 -42.5q48 0 81 18.5t64 53.5l31 -45q-31 -40 -77 -62.5t-106 -22.5q-62 0 -110.5 27t-76 74.5t-27.5 107.5t26.5 106.5t73.5 72.5t106 26q44 0 78 -16t52 -43v50h62v-141h-56q-9 43 -41 67.5t-78 24.5q-64 0 -105 -41z
M210 473.5q-14 13.5 -14 31.5q0 19 13.5 32t34.5 13t34 -12t13 -33q1 -18 -12 -31.5t-35 -13.5q-20 0 -34 13.5z" />
    <glyph glyph-name="d" unicode="d" horiz-adv-x="513" 
d="M490 53v-53h-136v28q-55 -39 -125 -39q-55 0 -101 25t-73 72.5t-27 110.5q0 64 26 111t70 71t97 24q34 0 69 -10.5t64 -30.5v159h-70v52h144v-520h62zM144.5 84q39.5 -39 100.5 -39q57 0 109 36v228q-28 18 -59 28t-59 10q-59 0 -95 -41t-36 -115q0 -68 39.5 -107z" />
    <glyph glyph-name="eth" unicode="&#xf0;" horiz-adv-x="479" 
d="M402.5 365q39.5 -78 39.5 -170q0 -59 -26 -106t-71.5 -73t-102.5 -26q-63 0 -108 26t-68.5 70.5t-23.5 99.5q0 57 23 102.5t66.5 71t102.5 25.5q39 0 67 -11.5t41 -23.5q-33 68 -105 138l-126 -56l-22 45l109 49q-52 47 -120 98l36 45q90 -70 142 -118l127 57l23 -44
l-112 -50q69 -71 108.5 -149zM340.5 91.5q33.5 42.5 33.5 103.5q0 63 -35.5 99.5t-96.5 36.5q-60 0 -94.5 -39.5t-34.5 -104.5q0 -57 34.5 -97.5t94.5 -40.5q65 0 98.5 42.5z" />
    <glyph glyph-name="dcaron" unicode="&#x10f;" horiz-adv-x="554" 
d="M490 53v-53h-136v28q-55 -39 -125 -39q-55 0 -101 25t-73 72.5t-27 110.5q0 64 26 111t70 71t97 24q34 0 69 -10.5t64 -30.5v159h-70v52h144v-520h62zM144.5 84q39.5 -39 100.5 -39q57 0 109 36v228q-28 18 -59 28t-59 10q-59 0 -95 -41t-36 -115q0 -68 39.5 -107z
M467 421q29 5 42 19t13 44h-54v89h96l-1 -90q1 -45 -23 -70t-73 -25v33z" />
    <glyph glyph-name="dcroat" unicode="&#x111;" horiz-adv-x="513" 
d="M428 460v-407h62v-53h-136v28q-55 -39 -125 -39q-55 0 -101 25t-73 72.5t-27 110.5q0 64 26 111t70 71t97 24q34 0 69 -10.5t64 -30.5v98h-114v45h114v69h74v-69h62v-45h-62zM144.5 84q39.5 -39 100.5 -39q57 0 109 36v228q-28 18 -59 28t-59 10q-59 0 -95 -41t-36 -115
q0 -68 39.5 -107z" />
    <glyph glyph-name="uni1E0B" unicode="&#x1e0b;" horiz-adv-x="513" 
d="M490 53v-53h-136v28q-55 -39 -125 -39q-55 0 -101 25t-73 72.5t-27 110.5q0 64 26 111t70 71t97 24q34 0 69 -10.5t64 -30.5v159h-70v52h144v-520h62zM144.5 84q39.5 -39 100.5 -39q57 0 109 36v228q-28 18 -59 28t-59 10q-59 0 -95 -41t-36 -115q0 -68 39.5 -107z
M357 653.5q-14 13.5 -14 31.5q0 19 13.5 32t34.5 13t34 -12t13 -33q1 -18 -12 -31.5t-35 -13.5q-20 0 -34 13.5z" />
    <glyph glyph-name="uni1E0D" unicode="&#x1e0d;" horiz-adv-x="513" 
d="M490 53v-53h-136v28q-55 -39 -125 -39q-55 0 -101 25t-73 72.5t-27 110.5q0 64 26 111t70 71t97 24q34 0 69 -10.5t64 -30.5v159h-70v52h144v-520h62zM144.5 84q39.5 -39 100.5 -39q57 0 109 36v228q-28 18 -59 28t-59 10q-59 0 -95 -41t-36 -115q0 -68 39.5 -107z
M231 -126.5q-14 13.5 -14 31.5q0 19 13.5 32t34.5 13t34 -12t13 -33q1 -18 -12 -31.5t-35 -13.5q-20 0 -34 13.5z" />
    <glyph glyph-name="uni1E0F" unicode="&#x1e0f;" horiz-adv-x="513" 
d="M490 53v-53h-136v28q-55 -39 -125 -39q-55 0 -101 25t-73 72.5t-27 110.5q0 64 26 111t70 71t97 24q34 0 69 -10.5t64 -30.5v159h-70v52h144v-520h62zM144.5 84q39.5 -39 100.5 -39q57 0 109 36v228q-28 18 -59 28t-59 10q-59 0 -95 -41t-36 -115q0 -68 39.5 -107z
M160 -82v45h210v-45h-210z" />
    <glyph glyph-name="uni01F3" unicode="&#x1f3;" horiz-adv-x="951" 
d="M490 53v-53h-136v28q-55 -39 -125 -39q-55 0 -101 25t-73 72.5t-27 110.5q0 64 26 111t70 71t97 24q34 0 69 -10.5t64 -30.5v159h-70v52h144v-520h62zM144.5 84q39.5 -39 100.5 -39q57 0 109 36v228q-28 18 -59 28t-59 10q-59 0 -95 -41t-36 -115q0 -68 39.5 -107zM564 0
v52l253 290h-192v-81h-56v132h334v-55l-253 -288h201v90h58v-140h-345z" />
    <glyph glyph-name="uni01C6" unicode="&#x1c6;" horiz-adv-x="951" 
d="M490 53v-53h-136v28q-55 -39 -125 -39q-55 0 -101 25t-73 72.5t-27 110.5q0 64 26 111t70 71t97 24q34 0 69 -10.5t64 -30.5v159h-70v52h144v-520h62zM144.5 84q39.5 -39 100.5 -39q57 0 109 36v228q-28 18 -59 28t-59 10q-59 0 -95 -41t-36 -115q0 -68 39.5 -107zM564 0
v52l253 290h-192v-81h-56v132h334v-55l-253 -288h201v90h58v-140h-345zM706 448l-81 151h53l64 -109l62 109h52l-79 -151h-71z" />
    <glyph glyph-name="e" unicode="e" horiz-adv-x="461" 
d="M426 181h-324q7 -63 45 -99.5t97 -36.5q82 0 149 63l26 -45q-29 -34 -73 -54.5t-99 -20.5q-62 0 -113 26t-80 73.5t-29 108.5q0 62 27.5 109.5t75 73t105.5 25.5q90 0 141.5 -55t51.5 -149v-19zM353 227q0 57 -33.5 90t-86.5 33q-52 0 -88 -33t-43 -90h251z" />
    <glyph glyph-name="eacute" unicode="&#xe9;" horiz-adv-x="461" 
d="M426 181h-324q7 -63 45 -99.5t97 -36.5q82 0 149 63l26 -45q-29 -34 -73 -54.5t-99 -20.5q-62 0 -113 26t-80 73.5t-29 108.5q0 62 27.5 109.5t75 73t105.5 25.5q90 0 141.5 -55t51.5 -149v-19zM353 227q0 57 -33.5 90t-86.5 33q-52 0 -88 -33t-43 -90h251zM213 477
l53 145h84l-90 -145h-47z" />
    <glyph glyph-name="ebreve" unicode="&#x115;" horiz-adv-x="461" 
d="M426 181h-324q7 -63 45 -99.5t97 -36.5q82 0 149 63l26 -45q-29 -34 -73 -54.5t-99 -20.5q-62 0 -113 26t-80 73.5t-29 108.5q0 62 27.5 109.5t75 73t105.5 25.5q90 0 141.5 -55t51.5 -149v-19zM353 227q0 57 -33.5 90t-86.5 33q-52 0 -88 -33t-43 -90h251zM160.5 477
q-29.5 27 -34.5 73h49q11 -55 61 -55q23 0 39.5 14.5t20.5 40.5h50q-5 -47 -35 -73.5t-77 -26.5q-44 0 -73.5 27z" />
    <glyph glyph-name="ecaron" unicode="&#x11b;" horiz-adv-x="461" 
d="M426 181h-324q7 -63 45 -99.5t97 -36.5q82 0 149 63l26 -45q-29 -34 -73 -54.5t-99 -20.5q-62 0 -113 26t-80 73.5t-29 108.5q0 62 27.5 109.5t75 73t105.5 25.5q90 0 141.5 -55t51.5 -149v-19zM353 227q0 57 -33.5 90t-86.5 33q-52 0 -88 -33t-43 -90h251zM201 448
l-81 151h53l64 -109l62 109h52l-79 -151h-71z" />
    <glyph glyph-name="uni0229" unicode="&#x229;" horiz-adv-x="461" 
d="M426 181h-324q7 -63 45 -99.5t97 -36.5q82 0 149 63l26 -45q-29 -33 -71.5 -53.5t-96.5 -21.5l-13 -46q36 -4 54 -20.5t18 -39.5q0 -29 -19.5 -43t-51.5 -14q-43 0 -87 19v29q35 -10 57 -10q38 0 38 26q0 28 -57 31l27 70q-84 9 -138 65t-54 141q0 62 27.5 109.5t75 73
t105.5 25.5q90 0 141.5 -55t51.5 -149v-19zM353 227q0 57 -33.5 90t-86.5 33q-52 0 -88 -33t-43 -90h251z" />
    <glyph glyph-name="uni1E1D" unicode="&#x1e1d;" horiz-adv-x="461" 
d="M160.5 477q-29.5 27 -34.5 73h49q11 -55 61 -55q23 0 39.5 14.5t20.5 40.5h50q-5 -47 -35 -73.5t-77 -26.5q-44 0 -73.5 27zM426 181h-324q7 -63 45 -99.5t97 -36.5q82 0 149 63l26 -45q-29 -33 -71.5 -53.5t-96.5 -21.5l-13 -46q36 -4 54 -20.5t18 -39.5
q0 -29 -19.5 -43t-51.5 -14q-43 0 -87 19v29q35 -10 57 -10q38 0 38 26q0 28 -57 31l27 70q-84 9 -138 65t-54 141q0 62 27.5 109.5t75 73t105.5 25.5q90 0 141.5 -55t51.5 -149v-19zM353 227q0 57 -33.5 90t-86.5 33q-52 0 -88 -33t-43 -90h251z" />
    <glyph glyph-name="ecircumflex" unicode="&#xea;" horiz-adv-x="461" 
d="M426 181h-324q7 -63 45 -99.5t97 -36.5q82 0 149 63l26 -45q-29 -34 -73 -54.5t-99 -20.5q-62 0 -113 26t-80 73.5t-29 108.5q0 62 27.5 109.5t75 73t105.5 25.5q90 0 141.5 -55t51.5 -149v-19zM353 227q0 57 -33.5 90t-86.5 33q-52 0 -88 -33t-43 -90h251zM114 449
l83 157h78l83 -157h-56l-66 125l-66 -125h-56z" />
    <glyph glyph-name="uni1EBF" unicode="&#x1ebf;" horiz-adv-x="461" 
d="M426 181h-324q7 -63 45 -99.5t97 -36.5q82 0 149 63l26 -45q-29 -34 -73 -54.5t-99 -20.5q-62 0 -113 26t-80 73.5t-29 108.5q0 62 27.5 109.5t75 73t105.5 25.5q90 0 141.5 -55t51.5 -149v-19zM353 227q0 57 -33.5 90t-86.5 33q-52 0 -88 -33t-43 -90h251zM330 540
l43 115h74l-70 -115h-47zM114 449l83 127h78l83 -127h-56l-66 95l-66 -95h-56z" />
    <glyph glyph-name="uni1EC7" unicode="&#x1ec7;" horiz-adv-x="461" 
d="M426 181h-324q7 -63 45 -99.5t97 -36.5q82 0 149 63l26 -45q-29 -34 -73 -54.5t-99 -20.5q-62 0 -113 26t-80 73.5t-29 108.5q0 62 27.5 109.5t75 73t105.5 25.5q90 0 141.5 -55t51.5 -149v-19zM353 227q0 57 -33.5 90t-86.5 33q-52 0 -88 -33t-43 -90h251zM203 -126.5
q-14 13.5 -14 31.5q0 19 13.5 32t34.5 13t34 -12t13 -33q1 -18 -12 -31.5t-35 -13.5q-20 0 -34 13.5zM114 449l83 157h78l83 -157h-56l-66 125l-66 -125h-56z" />
    <glyph glyph-name="uni1EC1" unicode="&#x1ec1;" horiz-adv-x="461" 
d="M426 181h-324q7 -63 45 -99.5t97 -36.5q82 0 149 63l26 -45q-29 -34 -73 -54.5t-99 -20.5q-62 0 -113 26t-80 73.5t-29 108.5q0 62 27.5 109.5t75 73t105.5 25.5q90 0 141.5 -55t51.5 -149v-19zM353 227q0 57 -33.5 90t-86.5 33q-52 0 -88 -33t-43 -90h251zM397 540h-47
l-70 115h74zM114 449l83 127h78l83 -127h-56l-66 95l-66 -95h-56z" />
    <glyph glyph-name="uni1EC3" unicode="&#x1ec3;" horiz-adv-x="461" 
d="M426 181h-324q7 -63 45 -99.5t97 -36.5q82 0 149 63l26 -45q-29 -34 -73 -54.5t-99 -20.5q-62 0 -113 26t-80 73.5t-29 108.5q0 62 27.5 109.5t75 73t105.5 25.5q90 0 141.5 -55t51.5 -149v-19zM353 227q0 57 -33.5 90t-86.5 33q-52 0 -88 -33t-43 -90h251zM320 574
q34 11 34 36q0 13 -9.5 20t-24.5 7q-20 0 -43 -13l-15 42q30 17 63 17q36 0 59 -20t23 -51q0 -62 -73 -82zM114 449l83 127h78l83 -127h-56l-66 95l-66 -95h-56z" />
    <glyph glyph-name="uni1EC5" unicode="&#x1ec5;" horiz-adv-x="461" 
d="M426 181h-324q7 -63 45 -99.5t97 -36.5q82 0 149 63l26 -45q-29 -34 -73 -54.5t-99 -20.5q-62 0 -113 26t-80 73.5t-29 108.5q0 62 27.5 109.5t75 73t105.5 25.5q90 0 141.5 -55t51.5 -149v-19zM353 227q0 57 -33.5 90t-86.5 33q-52 0 -88 -33t-43 -90h251zM269.5 606.5
q-15.5 4.5 -29 9t-17.5 6.5q-40 17 -57 17q-13 0 -20.5 -7.5t-10.5 -25.5h-31q4 44 23 66t50 22q22 0 70 -20q42 -17 56 -17q15 0 24 8t13 27h29q-3 -41 -20 -65.5t-50 -24.5q-14 0 -29.5 4.5zM114 449l83 127h78l83 -127h-56l-66 95l-66 -95h-56z" />
    <glyph glyph-name="uni0205" unicode="&#x205;" horiz-adv-x="461" 
d="M426 181h-324q7 -63 45 -99.5t97 -36.5q82 0 149 63l26 -45q-29 -34 -73 -54.5t-99 -20.5q-62 0 -113 26t-80 73.5t-29 108.5q0 62 27.5 109.5t75 73t105.5 25.5q90 0 141.5 -55t51.5 -149v-19zM353 227q0 57 -33.5 90t-86.5 33q-52 0 -88 -33t-43 -90h251zM133 477
l-94 152h84l57 -152h-47zM268 477l-93 152h84l56 -152h-47z" />
    <glyph glyph-name="edieresis" unicode="&#xeb;" horiz-adv-x="461" 
d="M426 181h-324q7 -63 45 -99.5t97 -36.5q82 0 149 63l26 -45q-29 -34 -73 -54.5t-99 -20.5q-62 0 -113 26t-80 73.5t-29 108.5q0 62 27.5 109.5t75 73t105.5 25.5q90 0 141.5 -55t51.5 -149v-19zM353 227q0 57 -33.5 90t-86.5 33q-52 0 -88 -33t-43 -90h251zM107.5 469
q-12.5 12 -12.5 31t12.5 31t32.5 12t32.5 -12t12.5 -31t-12.5 -31t-32.5 -12t-32.5 12zM300 468.5q-12 11.5 -12 31.5t12 31.5t32 11.5t32.5 -12t12.5 -31t-12.5 -31t-32.5 -12t-32 11.5z" />
    <glyph glyph-name="edotaccent" unicode="&#x117;" horiz-adv-x="461" 
d="M426 181h-324q7 -63 45 -99.5t97 -36.5q82 0 149 63l26 -45q-29 -34 -73 -54.5t-99 -20.5q-62 0 -113 26t-80 73.5t-29 108.5q0 62 27.5 109.5t75 73t105.5 25.5q90 0 141.5 -55t51.5 -149v-19zM353 227q0 57 -33.5 90t-86.5 33q-52 0 -88 -33t-43 -90h251zM202 473.5
q-14 13.5 -14 31.5q0 19 13.5 32t34.5 13t34 -12t13 -33q1 -18 -12 -31.5t-35 -13.5q-20 0 -34 13.5z" />
    <glyph glyph-name="uni1EB9" unicode="&#x1eb9;" horiz-adv-x="461" 
d="M426 181h-324q7 -63 45 -99.5t97 -36.5q82 0 149 63l26 -45q-29 -34 -73 -54.5t-99 -20.5q-62 0 -113 26t-80 73.5t-29 108.5q0 62 27.5 109.5t75 73t105.5 25.5q90 0 141.5 -55t51.5 -149v-19zM353 227q0 57 -33.5 90t-86.5 33q-52 0 -88 -33t-43 -90h251zM203 -126.5
q-14 13.5 -14 31.5q0 19 13.5 32t34.5 13t34 -12t13 -33q1 -18 -12 -31.5t-35 -13.5q-20 0 -34 13.5z" />
    <glyph glyph-name="egrave" unicode="&#xe8;" horiz-adv-x="461" 
d="M426 181h-324q7 -63 45 -99.5t97 -36.5q82 0 149 63l26 -45q-29 -34 -73 -54.5t-99 -20.5q-62 0 -113 26t-80 73.5t-29 108.5q0 62 27.5 109.5t75 73t105.5 25.5q90 0 141.5 -55t51.5 -149v-19zM353 227q0 57 -33.5 90t-86.5 33q-52 0 -88 -33t-43 -90h251zM212 477
l-90 145h84l53 -145h-47z" />
    <glyph glyph-name="uni1EBB" unicode="&#x1ebb;" horiz-adv-x="461" 
d="M426 181h-324q7 -63 45 -99.5t97 -36.5q82 0 149 63l26 -45q-29 -34 -73 -54.5t-99 -20.5q-62 0 -113 26t-80 73.5t-29 108.5q0 62 27.5 109.5t75 73t105.5 25.5q90 0 141.5 -55t51.5 -149v-19zM353 227q0 57 -33.5 90t-86.5 33q-52 0 -88 -33t-43 -90h251zM222 480
q34 11 34 36q0 13 -9.5 20t-24.5 7q-20 0 -43 -13l-15 42q30 17 63 17q36 0 59 -20t23 -51q0 -62 -73 -82z" />
    <glyph glyph-name="uni0207" unicode="&#x207;" horiz-adv-x="461" 
d="M426 181h-324q7 -63 45 -99.5t97 -36.5q82 0 149 63l26 -45q-29 -34 -73 -54.5t-99 -20.5q-62 0 -113 26t-80 73.5t-29 108.5q0 62 27.5 109.5t75 73t105.5 25.5q90 0 141.5 -55t51.5 -149v-19zM353 227q0 57 -33.5 90t-86.5 33q-52 0 -88 -33t-43 -90h251zM155.5 528
q31.5 29 80.5 29q48 0 79.5 -29t36.5 -78h-59q-5 25 -19.5 38t-37.5 13q-49 0 -58 -51h-59q5 49 36.5 78z" />
    <glyph glyph-name="emacron" unicode="&#x113;" horiz-adv-x="461" 
d="M426 181h-324q7 -63 45 -99.5t97 -36.5q82 0 149 63l26 -45q-29 -34 -73 -54.5t-99 -20.5q-62 0 -113 26t-80 73.5t-29 108.5q0 62 27.5 109.5t75 73t105.5 25.5q90 0 141.5 -55t51.5 -149v-19zM353 227q0 57 -33.5 90t-86.5 33q-52 0 -88 -33t-43 -90h251zM131 473v45
h210v-45h-210z" />
    <glyph glyph-name="uni1E17" unicode="&#x1e17;" horiz-adv-x="461" 
d="M426 181h-324q7 -63 45 -99.5t97 -36.5q82 0 149 63l26 -45q-29 -34 -73 -54.5t-99 -20.5q-62 0 -113 26t-80 73.5t-29 108.5q0 62 27.5 109.5t75 73t105.5 25.5q90 0 141.5 -55t51.5 -149v-19zM353 227q0 57 -33.5 90t-86.5 33q-52 0 -88 -33t-43 -90h251zM131 473v45
h210v-45h-210zM213 591l53 145h84l-90 -145h-47z" />
    <glyph glyph-name="uni1E15" unicode="&#x1e15;" horiz-adv-x="461" 
d="M426 181h-324q7 -63 45 -99.5t97 -36.5q82 0 149 63l26 -45q-29 -34 -73 -54.5t-99 -20.5q-62 0 -113 26t-80 73.5t-29 108.5q0 62 27.5 109.5t75 73t105.5 25.5q90 0 141.5 -55t51.5 -149v-19zM353 227q0 57 -33.5 90t-86.5 33q-52 0 -88 -33t-43 -90h251zM131 473v45
h210v-45h-210zM212 591l-90 145h84l53 -145h-47z" />
    <glyph glyph-name="eogonek" unicode="&#x119;" horiz-adv-x="461" 
d="M426 181h-324q7 -63 45 -99.5t97 -36.5q82 0 149 63l26 -45q-27 -31 -66 -51t-89 -23q-29 -37 -29 -63q0 -21 13 -32t34 -11q22 0 44 13v-40q-17 -10 -31 -14.5t-31 -4.5q-34 0 -57 20.5t-23 53.5q0 39 36 78q-56 6 -100 33t-69.5 72t-25.5 102q0 62 27.5 109.5t75 73
t105.5 25.5q90 0 141.5 -55t51.5 -149v-19zM353 227q0 57 -33.5 90t-86.5 33q-52 0 -88 -33t-43 -90h251z" />
    <glyph glyph-name="uni1EBD" unicode="&#x1ebd;" horiz-adv-x="461" 
d="M426 181h-324q7 -63 45 -99.5t97 -36.5q82 0 149 63l26 -45q-29 -34 -73 -54.5t-99 -20.5q-62 0 -113 26t-80 73.5t-29 108.5q0 62 27.5 109.5t75 73t105.5 25.5q90 0 141.5 -55t51.5 -149v-19zM353 227q0 57 -33.5 90t-86.5 33q-52 0 -88 -33t-43 -90h251zM269.5 474.5
q-15.5 4.5 -29 9t-17.5 6.5q-40 17 -57 17q-13 0 -20.5 -7.5t-10.5 -25.5h-31q4 44 23 66t50 22q22 0 70 -20q42 -17 56 -17q15 0 24 8t13 27h29q-3 -41 -20 -65.5t-50 -24.5q-14 0 -29.5 4.5z" />
    <glyph glyph-name="uni0259" unicode="&#x259;" horiz-adv-x="461" 
d="M331.5 379.5q48.5 -25.5 76.5 -72.5t28 -107q0 -63 -27 -111t-73.5 -74t-103.5 -26q-91 0 -144 55.5t-53 148.5v19h324q-5 63 -41 99.5t-92 36.5q-46 0 -86 -17t-72 -46l-26 45q32 33 78 54t103 21q60 0 108.5 -25.5zM318 76q34 33 41 90h-251q0 -57 35.5 -90t91.5 -33
q49 0 83 33z" />
    <glyph glyph-name="f" unicode="f" horiz-adv-x="316" 
d="M41 53h78v287h-77v53h77v84q0 56 29.5 87.5t88.5 31.5q45 0 75.5 -22t33.5 -70l-57 -16q-5 28 -15.5 42t-33.5 14q-47 0 -47 -68v-83h120v-53h-120v-287h101v-53h-253v53z" />
    <glyph glyph-name="uni1E1F" unicode="&#x1e1f;" horiz-adv-x="316" 
d="M41 53h78v287h-77v53h77v84q0 56 29.5 87.5t88.5 31.5q45 0 75.5 -22t33.5 -70l-57 -16q-5 28 -15.5 42t-33.5 14q-47 0 -47 -68v-83h120v-53h-120v-287h101v-53h-253v53zM203 666.5q-14 13.5 -14 31.5q0 19 13.5 32t34.5 13t34 -12t13 -33q1 -18 -12 -31.5t-35 -13.5
q-20 0 -34 13.5z" />
    <glyph glyph-name="g" unicode="g" horiz-adv-x="513" 
d="M503 393v-53h-66v-349q0 -91 -55 -135t-147 -44q-70 0 -148 24l15 58q76 -23 131 -23q62 0 96 28.5t34 86.5v54q-28 -21 -62.5 -32t-68.5 -11q-56 0 -102 24.5t-72.5 70.5t-26.5 108q0 64 26 109.5t71.5 69t101.5 23.5q34 0 70 -11.5t62 -32.5v35h141zM147 90
q39 -38 100 -38q29 0 59.5 10t56.5 29l-1 216q-29 19 -61.5 30t-61.5 11q-59 0 -95 -40.5t-36 -112.5q0 -67 39 -105z" />
    <glyph glyph-name="uni01F5" unicode="&#x1f5;" horiz-adv-x="513" 
d="M503 393v-53h-66v-349q0 -91 -55 -135t-147 -44q-70 0 -148 24l15 58q76 -23 131 -23q62 0 96 28.5t34 86.5v54q-28 -21 -62.5 -32t-68.5 -11q-56 0 -102 24.5t-72.5 70.5t-26.5 108q0 64 26 109.5t71.5 69t101.5 23.5q34 0 70 -11.5t62 -32.5v35h141zM147 90
q39 -38 100 -38q29 0 59.5 10t56.5 29l-1 216q-29 19 -61.5 30t-61.5 11q-59 0 -95 -40.5t-36 -112.5q0 -67 39 -105zM223 477l53 145h84l-90 -145h-47z" />
    <glyph glyph-name="gbreve" unicode="&#x11f;" horiz-adv-x="513" 
d="M503 393v-53h-66v-349q0 -91 -55 -135t-147 -44q-70 0 -148 24l15 58q76 -23 131 -23q62 0 96 28.5t34 86.5v54q-28 -21 -62.5 -32t-68.5 -11q-56 0 -102 24.5t-72.5 70.5t-26.5 108q0 64 26 109.5t71.5 69t101.5 23.5q34 0 70 -11.5t62 -32.5v35h141zM147 90
q39 -38 100 -38q29 0 59.5 10t56.5 29l-1 216q-29 19 -61.5 30t-61.5 11q-59 0 -95 -40.5t-36 -112.5q0 -67 39 -105zM170.5 477q-29.5 27 -34.5 73h49q11 -55 61 -55q23 0 39.5 14.5t20.5 40.5h50q-5 -47 -35 -73.5t-77 -26.5q-44 0 -73.5 27z" />
    <glyph glyph-name="gcaron" unicode="&#x1e7;" horiz-adv-x="513" 
d="M503 393v-53h-66v-349q0 -91 -55 -135t-147 -44q-70 0 -148 24l15 58q76 -23 131 -23q62 0 96 28.5t34 86.5v54q-28 -21 -62.5 -32t-68.5 -11q-56 0 -102 24.5t-72.5 70.5t-26.5 108q0 64 26 109.5t71.5 69t101.5 23.5q34 0 70 -11.5t62 -32.5v35h141zM147 90
q39 -38 100 -38q29 0 59.5 10t56.5 29l-1 216q-29 19 -61.5 30t-61.5 11q-59 0 -95 -40.5t-36 -112.5q0 -67 39 -105zM211 448l-81 151h53l64 -109l62 109h52l-79 -151h-71z" />
    <glyph glyph-name="gcircumflex" unicode="&#x11d;" horiz-adv-x="513" 
d="M503 393v-53h-66v-349q0 -91 -55 -135t-147 -44q-70 0 -148 24l15 58q76 -23 131 -23q62 0 96 28.5t34 86.5v54q-28 -21 -62.5 -32t-68.5 -11q-56 0 -102 24.5t-72.5 70.5t-26.5 108q0 64 26 109.5t71.5 69t101.5 23.5q34 0 70 -11.5t62 -32.5v35h141zM147 90
q39 -38 100 -38q29 0 59.5 10t56.5 29l-1 216q-29 19 -61.5 30t-61.5 11q-59 0 -95 -40.5t-36 -112.5q0 -67 39 -105zM124 449l83 157h78l83 -157h-56l-66 125l-66 -125h-56z" />
    <glyph glyph-name="gcommaaccent" unicode="&#x123;" horiz-adv-x="513" 
d="M503 393v-53h-66v-349q0 -91 -55 -135t-147 -44q-70 0 -148 24l15 58q76 -23 131 -23q62 0 96 28.5t34 86.5v54q-28 -21 -62.5 -32t-68.5 -11q-56 0 -102 24.5t-72.5 70.5t-26.5 108q0 64 26 109.5t71.5 69t101.5 23.5q34 0 70 -11.5t62 -32.5v35h141zM147 90
q39 -38 100 -38q29 0 59.5 10t56.5 29l-1 216q-29 19 -61.5 30t-61.5 11q-59 0 -95 -40.5t-36 -112.5q0 -67 39 -105zM294 624q-29 -5 -42.5 -21.5t-13.5 -45.5h54v-87h-95v89q0 46 24 71.5t73 25.5v-32z" />
    <glyph glyph-name="gdotaccent" unicode="&#x121;" horiz-adv-x="513" 
d="M503 393v-53h-66v-349q0 -91 -55 -135t-147 -44q-70 0 -148 24l15 58q76 -23 131 -23q62 0 96 28.5t34 86.5v54q-28 -21 -62.5 -32t-68.5 -11q-56 0 -102 24.5t-72.5 70.5t-26.5 108q0 64 26 109.5t71.5 69t101.5 23.5q34 0 70 -11.5t62 -32.5v35h141zM147 90
q39 -38 100 -38q29 0 59.5 10t56.5 29l-1 216q-29 19 -61.5 30t-61.5 11q-59 0 -95 -40.5t-36 -112.5q0 -67 39 -105zM212 473.5q-14 13.5 -14 31.5q0 19 13.5 32t34.5 13t34 -12t13 -33q1 -18 -12 -31.5t-35 -13.5q-20 0 -34 13.5z" />
    <glyph glyph-name="uni1E21" unicode="&#x1e21;" horiz-adv-x="513" 
d="M503 393v-53h-66v-349q0 -91 -55 -135t-147 -44q-70 0 -148 24l15 58q76 -23 131 -23q62 0 96 28.5t34 86.5v54q-28 -21 -62.5 -32t-68.5 -11q-56 0 -102 24.5t-72.5 70.5t-26.5 108q0 64 26 109.5t71.5 69t101.5 23.5q34 0 70 -11.5t62 -32.5v35h141zM147 90
q39 -38 100 -38q29 0 59.5 10t56.5 29l-1 216q-29 19 -61.5 30t-61.5 11q-59 0 -95 -40.5t-36 -112.5q0 -67 39 -105zM141 473v45h210v-45h-210z" />
    <glyph glyph-name="h" unicode="h" horiz-adv-x="521" 
d="M509 53v-53h-211v53h65v205q0 41 -19.5 64t-54.5 23q-60 0 -130 -46v-246h64v-53h-211v53h73v468h-72v52h146v-224q81 54 148 54q56 0 93 -34.5t37 -96.5v-219h72z" />
    <glyph glyph-name="hbar" unicode="&#x127;" horiz-adv-x="521" 
d="M509 53v-53h-211v53h65v205q0 41 -19.5 64t-54.5 23q-60 0 -130 -46v-246h64v-53h-211v53h73v468h-72v52h146v-224q81 54 148 54q56 0 93 -34.5t37 -96.5v-219h72zM17 654v45h210v-45h-210z" />
    <glyph glyph-name="uni1E2B" unicode="&#x1e2b;" horiz-adv-x="521" 
d="M509 53v-53h-211v53h65v205q0 41 -19.5 64t-54.5 23q-60 0 -130 -46v-246h64v-53h-211v53h73v468h-72v52h146v-224q81 54 148 54q56 0 93 -34.5t37 -96.5v-219h72zM185.5 -123q-29.5 27 -34.5 73h49q11 -55 61 -55q23 0 39.5 14.5t20.5 40.5h50q-5 -47 -35 -73.5
t-77 -26.5q-44 0 -73.5 27z" />
    <glyph glyph-name="uni021F" unicode="&#x21f;" horiz-adv-x="521" 
d="M509 53v-53h-211v53h65v205q0 41 -19.5 64t-54.5 23q-60 0 -130 -46v-246h64v-53h-211v53h73v468h-72v52h146v-224q81 54 148 54q56 0 93 -34.5t37 -96.5v-219h72zM87 629l-81 151h53l64 -109l62 109h52l-79 -151h-71z" />
    <glyph glyph-name="hcircumflex" unicode="&#x125;" horiz-adv-x="521" 
d="M509 53v-53h-211v53h65v205q0 41 -19.5 64t-54.5 23q-60 0 -130 -46v-246h64v-53h-211v53h73v468h-72v52h146v-224q81 54 148 54q56 0 93 -34.5t37 -96.5v-219h72zM0 630l83 157h78l83 -157h-56l-66 125l-66 -125h-56z" />
    <glyph glyph-name="uni1E25" unicode="&#x1e25;" horiz-adv-x="521" 
d="M509 53v-53h-211v53h65v205q0 41 -19.5 64t-54.5 23q-60 0 -130 -46v-246h64v-53h-211v53h73v468h-72v52h146v-224q81 54 148 54q56 0 93 -34.5t37 -96.5v-219h72zM227 -126.5q-14 13.5 -14 31.5q0 19 13.5 32t34.5 13t34 -12t13 -33q1 -18 -12 -31.5t-35 -13.5
q-20 0 -34 13.5z" />
    <glyph glyph-name="i" unicode="i" horiz-adv-x="267" 
d="M86.5 493.5q-15.5 14.5 -15.5 36.5t15.5 36.5t38.5 14.5t38.5 -14.5t15.5 -36.5t-15.5 -36.5t-38.5 -14.5t-38.5 14.5zM22 0v53h76v287h-75v53h148v-340h71v-53h-220z" />
    <glyph glyph-name="dotlessi" unicode="&#x131;" horiz-adv-x="267" 
d="M22 0v53h76v287h-75v53h148v-340h71v-53h-220z" />
    <glyph glyph-name="iacute" unicode="&#xed;" horiz-adv-x="267" 
d="M22 0v53h76v287h-75v53h148v-340h71v-53h-220zM102 477l53 145h84l-90 -145h-47z" />
    <glyph glyph-name="ibreve" unicode="&#x12d;" horiz-adv-x="267" 
d="M22 0v53h76v287h-75v53h148v-340h71v-53h-220zM49.5 477q-29.5 27 -34.5 73h49q11 -55 61 -55q23 0 39.5 14.5t20.5 40.5h50q-5 -47 -35 -73.5t-77 -26.5q-44 0 -73.5 27z" />
    <glyph glyph-name="uni01D0" unicode="&#x1d0;" horiz-adv-x="267" 
d="M22 0v53h76v287h-75v53h148v-340h71v-53h-220zM90 448l-81 151h53l64 -109l62 109h52l-79 -151h-71z" />
    <glyph glyph-name="icircumflex" unicode="&#xee;" horiz-adv-x="267" 
d="M22 0v53h76v287h-75v53h148v-340h71v-53h-220zM3 449l83 157h78l83 -157h-56l-66 125l-66 -125h-56z" />
    <glyph glyph-name="uni0209" unicode="&#x209;" horiz-adv-x="267" 
d="M22 0v53h76v287h-75v53h148v-340h71v-53h-220zM22 477l-94 152h84l57 -152h-47zM157 477l-93 152h84l56 -152h-47z" />
    <glyph glyph-name="idieresis" unicode="&#xef;" horiz-adv-x="267" 
d="M22 0v53h76v287h-75v53h148v-340h71v-53h-220zM-3.5 469q-12.5 12 -12.5 31t12.5 31t32.5 12t32.5 -12t12.5 -31t-12.5 -31t-32.5 -12t-32.5 12zM189 468.5q-12 11.5 -12 31.5t12 31.5t32 11.5t32.5 -12t12.5 -31t-12.5 -31t-32.5 -12t-32 11.5z" />
    <glyph glyph-name="uni1E2F" unicode="&#x1e2f;" horiz-adv-x="267" 
d="M22 0v53h76v287h-75v53h148v-340h71v-53h-220zM-3.5 469q-12.5 12 -12.5 31t12.5 31t32.5 12t32.5 -12t12.5 -31t-12.5 -31t-32.5 -12t-32.5 12zM189 468.5q-12 11.5 -12 31.5t12 31.5t32 11.5t32.5 -12t12.5 -31t-12.5 -31t-32.5 -12t-32 11.5zM102 627l53 145h84
l-90 -145h-47z" />
    <glyph glyph-name="i.loclTRK" horiz-adv-x="267" 
d="M22 0v53h76v287h-75v53h148v-340h71v-53h-220zM91 473.5q-14 13.5 -14 31.5q0 19 13.5 32t34.5 13t34 -12t13 -33q1 -18 -12 -31.5t-35 -13.5q-20 0 -34 13.5z" />
    <glyph glyph-name="uni1ECB" unicode="&#x1ecb;" horiz-adv-x="267" 
d="M86.5 493.5q-15.5 14.5 -15.5 36.5t15.5 36.5t38.5 14.5t38.5 -14.5t15.5 -36.5t-15.5 -36.5t-38.5 -14.5t-38.5 14.5zM22 0v53h76v287h-75v53h148v-340h71v-53h-220zM101 -126.5q-14 13.5 -14 31.5q0 19 13.5 32t34.5 13t34 -12t13 -33q1 -18 -12 -31.5t-35 -13.5
q-20 0 -34 13.5z" />
    <glyph glyph-name="igrave" unicode="&#xec;" horiz-adv-x="267" 
d="M22 0v53h76v287h-75v53h148v-340h71v-53h-220zM101 477l-90 145h84l53 -145h-47z" />
    <glyph glyph-name="uni1EC9" unicode="&#x1ec9;" horiz-adv-x="267" 
d="M22 0v53h76v287h-75v53h148v-340h71v-53h-220zM111 480q34 11 34 36q0 13 -9.5 20t-24.5 7q-20 0 -43 -13l-15 42q30 17 63 17q36 0 59 -20t23 -51q0 -62 -73 -82z" />
    <glyph glyph-name="uni020B" unicode="&#x20b;" horiz-adv-x="267" 
d="M22 0v53h76v287h-75v53h148v-340h71v-53h-220zM44.5 528q31.5 29 80.5 29q48 0 79.5 -29t36.5 -78h-59q-5 25 -19.5 38t-37.5 13q-49 0 -58 -51h-59q5 49 36.5 78z" />
    <glyph glyph-name="ij" unicode="&#x133;" horiz-adv-x="516" 
d="M86.5 493.5q-15.5 14.5 -15.5 36.5t15.5 36.5t38.5 14.5t38.5 -14.5t15.5 -36.5t-15.5 -36.5t-38.5 -14.5t-38.5 14.5zM22 0v53h76v287h-75v53h148v-340h71v-53h-220zM362.5 494q-15.5 15 -15.5 37q0 21 15.5 35.5t38.5 14.5t38.5 -14.5t15.5 -35.5q0 -22 -15.5 -37
t-38.5 -15t-38.5 15zM272 -94h42q39 0 52 18t13 62v354h-80v53h155v-389q0 -52 -9 -84.5t-39.5 -52t-90.5 -19.5h-43v58z" />
    <glyph glyph-name="imacron" unicode="&#x12b;" horiz-adv-x="267" 
d="M22 0v53h76v287h-75v53h148v-340h71v-53h-220zM20 473v45h210v-45h-210z" />
    <glyph glyph-name="iogonek" unicode="&#x12f;" horiz-adv-x="267" 
d="M22 0v53h76v287h-75v53h148v-340h71v-53h-220zM62 -148.5q-23 20.5 -23 53.5q0 24 13 47t40 48h43q-45 -47 -45 -80q0 -21 13 -32t34 -11q22 0 44 13v-40q-17 -10 -31 -14.5t-31 -4.5q-34 0 -57 20.5zM91 473.5q-14 13.5 -14 31.5q0 19 13.5 32t34.5 13t34 -12t13 -33
q1 -18 -12 -31.5t-35 -13.5q-20 0 -34 13.5z" />
    <glyph glyph-name="itilde" unicode="&#x129;" horiz-adv-x="267" 
d="M22 0v53h76v287h-75v53h148v-340h71v-53h-220zM158.5 474.5q-15.5 4.5 -29 9t-17.5 6.5q-40 17 -57 17q-13 0 -20.5 -7.5t-10.5 -25.5h-31q4 44 23 66t50 22q22 0 70 -20q42 -17 56 -17q15 0 24 8t13 27h29q-3 -41 -20 -65.5t-50 -24.5q-14 0 -29.5 4.5z" />
    <glyph glyph-name="j" unicode="j" horiz-adv-x="249" 
d="M95.5 494q-15.5 15 -15.5 37q0 21 15.5 35.5t38.5 14.5t38.5 -14.5t15.5 -35.5q0 -22 -15.5 -37t-38.5 -15t-38.5 15zM5 -94h42q39 0 52 18t13 62v354h-80v53h155v-389q0 -52 -9 -84.5t-39.5 -52t-90.5 -19.5h-43v58z" />
    <glyph glyph-name="uni0237" unicode="&#x237;" horiz-adv-x="247" 
d="M5 -94h42q40 0 52.5 18.5t12.5 65.5v350h-82v53h156v-382q0 -55 -7.5 -88t-37.5 -54t-93 -21h-43v58z" />
    <glyph glyph-name="uni01F0" unicode="&#x1f0;" horiz-adv-x="247" 
d="M5 -94h42q40 0 52.5 18.5t12.5 65.5v350h-82v53h156v-382q0 -55 -7.5 -88t-37.5 -54t-93 -21h-43v58zM83 448l-81 151h53l64 -109l62 109h52l-79 -151h-71z" />
    <glyph glyph-name="jcircumflex" unicode="&#x135;" horiz-adv-x="247" 
d="M5 -94h42q40 0 52.5 18.5t12.5 65.5v350h-82v53h156v-382q0 -55 -7.5 -88t-37.5 -54t-93 -21h-43v58zM-4 449l83 157h78l83 -157h-56l-66 125l-66 -125h-56z" />
    <glyph glyph-name="k" unicode="k" horiz-adv-x="498" 
d="M26 0v53h74v468h-72v52h146v-363l170 130h-73v53h209v-53h-60l-170 -135l154 -152h78v-53h-115l-193 193v-140h64v-53h-212z" />
    <glyph glyph-name="uni01E9" unicode="&#x1e9;" horiz-adv-x="498" 
d="M26 0v53h74v468h-72v52h146v-363l170 130h-73v53h209v-53h-60l-170 -135l154 -152h78v-53h-115l-193 193v-140h64v-53h-212zM102 628l-81 151h53l64 -109l62 109h52l-79 -151h-71z" />
    <glyph glyph-name="kcommaaccent" unicode="&#x137;" horiz-adv-x="498" 
d="M26 0v53h74v468h-72v52h146v-363l170 130h-73v53h209v-53h-60l-170 -135l154 -152h78v-53h-115l-193 193v-140h64v-53h-212zM219 -204q29 5 42.5 21.5t13.5 45.5h-54v87h95v-89q0 -46 -24 -71.5t-73 -25.5v32z" />
    <glyph glyph-name="kgreenlandic" unicode="&#x138;" horiz-adv-x="521" 
d="M433 53h71v-53h-105l-215 187v-134h57v-53h-203v53h72v287h-71v53h145v-194l166 141h-68v53h218v-53h-68l-169 -143z" />
    <glyph glyph-name="l" unicode="l" horiz-adv-x="260" 
d="M27 0v53h73v468h-71v52h145v-520h64v-53h-211z" />
    <glyph glyph-name="lacute" unicode="&#x13a;" horiz-adv-x="260" 
d="M27 0v53h73v468h-71v52h145v-520h64v-53h-211zM114 658l53 145h84l-90 -145h-47z" />
    <glyph glyph-name="lcaron" unicode="&#x13e;" horiz-adv-x="314" 
d="M27 0v53h73v468h-71v52h145v-520h64v-53h-211zM213 421q29 5 42 19t13 44h-54v89h96l-1 -90q1 -45 -23 -70t-73 -25v33z" />
    <glyph glyph-name="lcommaaccent" unicode="&#x13c;" horiz-adv-x="260" 
d="M27 0v53h73v468h-71v52h145v-520h64v-53h-211zM87 -204q29 5 42.5 21.5t13.5 45.5h-54v87h95v-89q0 -46 -24 -71.5t-73 -25.5v32z" />
    <glyph glyph-name="ldot" unicode="&#x140;" horiz-adv-x="260" 
d="M27 0v53h73v468h-71v52h145v-520h64v-53h-211zM230.5 289q-15.5 15 -15.5 36t15.5 35.5t38.5 14.5t38.5 -14.5t15.5 -35.5t-15.5 -36t-38.5 -15t-38.5 15z" />
    <glyph glyph-name="uni1E37" unicode="&#x1e37;" horiz-adv-x="260" 
d="M27 0v53h73v468h-71v52h145v-520h64v-53h-211zM101 -126.5q-14 13.5 -14 31.5q0 19 13.5 32t34.5 13t34 -12t13 -33q1 -18 -12 -31.5t-35 -13.5q-20 0 -34 13.5z" />
    <glyph glyph-name="uni01C9" unicode="&#x1c9;" horiz-adv-x="509" 
d="M27 0v53h73v468h-71v52h145v-520h64v-53h-211zM355.5 494q-15.5 15 -15.5 37q0 21 15.5 35.5t38.5 14.5t38.5 -14.5t15.5 -35.5q0 -22 -15.5 -37t-38.5 -15t-38.5 15zM265 -94h42q39 0 52 18t13 62v354h-80v53h155v-389q0 -52 -9 -84.5t-39.5 -52t-90.5 -19.5h-43v58z
" />
    <glyph glyph-name="uni1E3B" unicode="&#x1e3b;" horiz-adv-x="260" 
d="M27 0v53h73v468h-71v52h145v-520h64v-53h-211zM30 -82v45h210v-45h-210z" />
    <glyph glyph-name="lslash" unicode="&#x142;" horiz-adv-x="254" 
d="M246 307l-72 -37v-217h64v-53h-211v53h73v178l-76 -39v61l76 40v228h-71v52h145v-240l72 38v-64z" />
    <glyph glyph-name="m" unicode="m" horiz-adv-x="787" 
d="M785 53v-53h-211v53h66v205q0 41 -20 64t-55 23q-61 0 -128 -45q3 -15 3 -30v-217h72v-53h-211v53h66v205q0 41 -20 64t-55 23q-51 0 -121 -40v-252h71v-53h-220v53h76v287h-76v53h149v-38q76 48 140 48q39 0 68 -16.5t44 -45.5q44 30 82 46t79 16q56 0 92.5 -34.5
t36.5 -96.5v-219h72z" />
    <glyph glyph-name="uni1E41" unicode="&#x1e41;" horiz-adv-x="787" 
d="M785 53v-53h-211v53h66v205q0 41 -20 64t-55 23q-61 0 -128 -45q3 -15 3 -30v-217h72v-53h-211v53h66v205q0 41 -20 64t-55 23q-51 0 -121 -40v-252h71v-53h-220v53h76v287h-76v53h149v-38q76 48 140 48q39 0 68 -16.5t44 -45.5q44 30 82 46t79 16q56 0 92.5 -34.5
t36.5 -96.5v-219h72zM383 473.5q-14 13.5 -14 31.5q0 19 13.5 32t34.5 13t34 -12t13 -33q1 -18 -12 -31.5t-35 -13.5q-20 0 -34 13.5z" />
    <glyph glyph-name="uni1E43" unicode="&#x1e43;" horiz-adv-x="787" 
d="M785 53v-53h-211v53h66v205q0 41 -20 64t-55 23q-61 0 -128 -45q3 -15 3 -30v-217h72v-53h-211v53h66v205q0 41 -20 64t-55 23q-51 0 -121 -40v-252h71v-53h-220v53h76v287h-76v53h149v-38q76 48 140 48q39 0 68 -16.5t44 -45.5q44 30 82 46t79 16q56 0 92.5 -34.5
t36.5 -96.5v-219h72zM370 -126.5q-14 13.5 -14 31.5q0 19 13.5 32t34.5 13t34 -12t13 -33q1 -18 -12 -31.5t-35 -13.5q-20 0 -34 13.5z" />
    <glyph glyph-name="n" unicode="n" horiz-adv-x="517" 
d="M515 53v-53h-211v53h65v205q0 41 -20 64t-55 23q-29 0 -58.5 -10.5t-64.5 -31.5v-250h71v-53h-220v53h76v287h-76v53h149v-39q78 49 142 49q56 0 92.5 -34.5t36.5 -96.5v-219h73z" />
    <glyph glyph-name="nacute" unicode="&#x144;" horiz-adv-x="517" 
d="M515 53v-53h-211v53h65v205q0 41 -20 64t-55 23q-29 0 -58.5 -10.5t-64.5 -31.5v-250h71v-53h-220v53h76v287h-76v53h149v-39q78 49 142 49q56 0 92.5 -34.5t36.5 -96.5v-219h73zM259 477l53 145h84l-90 -145h-47z" />
    <glyph glyph-name="napostrophe" unicode="&#x149;" horiz-adv-x="736" 
d="M100 476q29 5 42 19t13 44h-54v89h96l-1 -90q1 -45 -23 -70t-73 -25v33zM734 53v-53h-211v53h65v205q0 41 -20 64t-55 23q-29 0 -58.5 -10.5t-64.5 -31.5v-250h71v-53h-220v53h76v287h-76v53h149v-39q78 49 142 49q56 0 92.5 -34.5t36.5 -96.5v-219h73z" />
    <glyph glyph-name="ncaron" unicode="&#x148;" horiz-adv-x="517" 
d="M515 53v-53h-211v53h65v205q0 41 -20 64t-55 23q-29 0 -58.5 -10.5t-64.5 -31.5v-250h71v-53h-220v53h76v287h-76v53h149v-39q78 49 142 49q56 0 92.5 -34.5t36.5 -96.5v-219h73zM247 448l-81 151h53l64 -109l62 109h52l-79 -151h-71z" />
    <glyph glyph-name="ncommaaccent" unicode="&#x146;" horiz-adv-x="517" 
d="M515 53v-53h-211v53h65v205q0 41 -20 64t-55 23q-29 0 -58.5 -10.5t-64.5 -31.5v-250h71v-53h-220v53h76v287h-76v53h149v-39q78 49 142 49q56 0 92.5 -34.5t36.5 -96.5v-219h73zM231 -204q29 5 42.5 21.5t13.5 45.5h-54v87h95v-89q0 -46 -24 -71.5t-73 -25.5v32z" />
    <glyph glyph-name="uni1E45" unicode="&#x1e45;" horiz-adv-x="517" 
d="M515 53v-53h-211v53h65v205q0 41 -20 64t-55 23q-29 0 -58.5 -10.5t-64.5 -31.5v-250h71v-53h-220v53h76v287h-76v53h149v-39q78 49 142 49q56 0 92.5 -34.5t36.5 -96.5v-219h73zM248 473.5q-14 13.5 -14 31.5q0 19 13.5 32t34.5 13t34 -12t13 -33q1 -18 -12 -31.5
t-35 -13.5q-20 0 -34 13.5z" />
    <glyph glyph-name="uni1E47" unicode="&#x1e47;" horiz-adv-x="517" 
d="M515 53v-53h-211v53h65v205q0 41 -20 64t-55 23q-29 0 -58.5 -10.5t-64.5 -31.5v-250h71v-53h-220v53h76v287h-76v53h149v-39q78 49 142 49q56 0 92.5 -34.5t36.5 -96.5v-219h73zM245 -126.5q-14 13.5 -14 31.5q0 19 13.5 32t34.5 13t34 -12t13 -33q1 -18 -12 -31.5
t-35 -13.5q-20 0 -34 13.5z" />
    <glyph glyph-name="uni01F9" unicode="&#x1f9;" horiz-adv-x="517" 
d="M515 53v-53h-211v53h65v205q0 41 -20 64t-55 23q-29 0 -58.5 -10.5t-64.5 -31.5v-250h71v-53h-220v53h76v287h-76v53h149v-39q78 49 142 49q56 0 92.5 -34.5t36.5 -96.5v-219h73zM258 477l-90 145h84l53 -145h-47z" />
    <glyph glyph-name="eng" unicode="&#x14b;" horiz-adv-x="517" 
d="M235 -106q70 0 102 27.5t32 87.5v249q0 41 -20 64t-55 23q-52 0 -123 -41v-251h71v-53h-220v53h76v287h-76v53h149v-39q79 49 142 49q56 0 92.5 -34.5t36.5 -96.5v-258q0 -91 -56.5 -132t-150.5 -41v53z" />
    <glyph glyph-name="uni01CC" unicode="&#x1cc;" horiz-adv-x="766" 
d="M515 53v-53h-211v53h65v205q0 41 -20 64t-55 23q-29 0 -58.5 -10.5t-64.5 -31.5v-250h71v-53h-220v53h76v287h-76v53h149v-39q78 49 142 49q56 0 92.5 -34.5t36.5 -96.5v-219h73zM612.5 494q-15.5 15 -15.5 37q0 21 15.5 35.5t38.5 14.5t38.5 -14.5t15.5 -35.5
q0 -22 -15.5 -37t-38.5 -15t-38.5 15zM522 -94h42q39 0 52 18t13 62v354h-80v53h155v-389q0 -52 -9 -84.5t-39.5 -52t-90.5 -19.5h-43v58z" />
    <glyph glyph-name="uni1E49" unicode="&#x1e49;" horiz-adv-x="517" 
d="M515 53v-53h-211v53h65v205q0 41 -20 64t-55 23q-29 0 -58.5 -10.5t-64.5 -31.5v-250h71v-53h-220v53h76v287h-76v53h149v-39q78 49 142 49q56 0 92.5 -34.5t36.5 -96.5v-219h73zM174 -82v45h210v-45h-210z" />
    <glyph glyph-name="ntilde" unicode="&#xf1;" horiz-adv-x="517" 
d="M515 53v-53h-211v53h65v205q0 41 -20 64t-55 23q-29 0 -58.5 -10.5t-64.5 -31.5v-250h71v-53h-220v53h76v287h-76v53h149v-39q78 49 142 49q56 0 92.5 -34.5t36.5 -96.5v-219h73zM315.5 474.5q-15.5 4.5 -29 9t-17.5 6.5q-40 17 -57 17q-13 0 -20.5 -7.5t-10.5 -25.5h-31
q4 44 23 66t50 22q22 0 70 -20q42 -17 56 -17q15 0 24 8t13 27h29q-3 -41 -20 -65.5t-50 -24.5q-14 0 -29.5 4.5z" />
    <glyph glyph-name="o" unicode="o" horiz-adv-x="476" 
d="M126 14q-48 26 -74.5 73.5t-26.5 109.5t26.5 109t74.5 72.5t111 25.5t111.5 -25.5t75.5 -72.5t27 -108q0 -62 -27 -110t-75.5 -74t-111.5 -26t-111 26zM337 87.5q38 41.5 38 110.5q0 67 -38 107.5t-100 40.5t-99 -41t-37 -108q0 -68 37.5 -109.5t98.5 -41.5
q62 0 100 41.5z" />
    <glyph glyph-name="oacute" unicode="&#xf3;" horiz-adv-x="476" 
d="M126 14q-48 26 -74.5 73.5t-26.5 109.5t26.5 109t74.5 72.5t111 25.5t111.5 -25.5t75.5 -72.5t27 -108q0 -62 -27 -110t-75.5 -74t-111.5 -26t-111 26zM337 87.5q38 41.5 38 110.5q0 67 -38 107.5t-100 40.5t-99 -41t-37 -108q0 -68 37.5 -109.5t98.5 -41.5
q62 0 100 41.5zM214 477l53 145h84l-90 -145h-47z" />
    <glyph glyph-name="obreve" unicode="&#x14f;" horiz-adv-x="476" 
d="M126 14q-48 26 -74.5 73.5t-26.5 109.5t26.5 109t74.5 72.5t111 25.5t111.5 -25.5t75.5 -72.5t27 -108q0 -62 -27 -110t-75.5 -74t-111.5 -26t-111 26zM337 87.5q38 41.5 38 110.5q0 67 -38 107.5t-100 40.5t-99 -41t-37 -108q0 -68 37.5 -109.5t98.5 -41.5
q62 0 100 41.5zM161.5 477q-29.5 27 -34.5 73h49q11 -55 61 -55q23 0 39.5 14.5t20.5 40.5h50q-5 -47 -35 -73.5t-77 -26.5q-44 0 -73.5 27z" />
    <glyph glyph-name="uni01D2" unicode="&#x1d2;" horiz-adv-x="476" 
d="M126 14q-48 26 -74.5 73.5t-26.5 109.5t26.5 109t74.5 72.5t111 25.5t111.5 -25.5t75.5 -72.5t27 -108q0 -62 -27 -110t-75.5 -74t-111.5 -26t-111 26zM337 87.5q38 41.5 38 110.5q0 67 -38 107.5t-100 40.5t-99 -41t-37 -108q0 -68 37.5 -109.5t98.5 -41.5
q62 0 100 41.5zM202 448l-81 151h53l64 -109l62 109h52l-79 -151h-71z" />
    <glyph glyph-name="ocircumflex" unicode="&#xf4;" horiz-adv-x="476" 
d="M126 14q-48 26 -74.5 73.5t-26.5 109.5t26.5 109t74.5 72.5t111 25.5t111.5 -25.5t75.5 -72.5t27 -108q0 -62 -27 -110t-75.5 -74t-111.5 -26t-111 26zM337 87.5q38 41.5 38 110.5q0 67 -38 107.5t-100 40.5t-99 -41t-37 -108q0 -68 37.5 -109.5t98.5 -41.5
q62 0 100 41.5zM115 449l83 157h78l83 -157h-56l-66 125l-66 -125h-56z" />
    <glyph glyph-name="uni1ED1" unicode="&#x1ed1;" horiz-adv-x="476" 
d="M126 14q-48 26 -74.5 73.5t-26.5 109.5t26.5 109t74.5 72.5t111 25.5t111.5 -25.5t75.5 -72.5t27 -108q0 -62 -27 -110t-75.5 -74t-111.5 -26t-111 26zM337 87.5q38 41.5 38 110.5q0 67 -38 107.5t-100 40.5t-99 -41t-37 -108q0 -68 37.5 -109.5t98.5 -41.5
q62 0 100 41.5zM331 540l43 115h74l-70 -115h-47zM115 449l83 127h78l83 -127h-56l-66 95l-66 -95h-56z" />
    <glyph glyph-name="uni1ED9" unicode="&#x1ed9;" horiz-adv-x="476" 
d="M126 14q-48 26 -74.5 73.5t-26.5 109.5t26.5 109t74.5 72.5t111 25.5t111.5 -25.5t75.5 -72.5t27 -108q0 -62 -27 -110t-75.5 -74t-111.5 -26t-111 26zM337 87.5q38 41.5 38 110.5q0 67 -38 107.5t-100 40.5t-99 -41t-37 -108q0 -68 37.5 -109.5t98.5 -41.5
q62 0 100 41.5zM204 -126.5q-14 13.5 -14 31.5q0 19 13.5 32t34.5 13t34 -12t13 -33q1 -18 -12 -31.5t-35 -13.5q-20 0 -34 13.5zM115 449l83 157h78l83 -157h-56l-66 125l-66 -125h-56z" />
    <glyph glyph-name="uni1ED3" unicode="&#x1ed3;" horiz-adv-x="476" 
d="M126 14q-48 26 -74.5 73.5t-26.5 109.5t26.5 109t74.5 72.5t111 25.5t111.5 -25.5t75.5 -72.5t27 -108q0 -62 -27 -110t-75.5 -74t-111.5 -26t-111 26zM337 87.5q38 41.5 38 110.5q0 67 -38 107.5t-100 40.5t-99 -41t-37 -108q0 -68 37.5 -109.5t98.5 -41.5
q62 0 100 41.5zM398 540h-47l-70 115h74zM115 449l83 127h78l83 -127h-56l-66 95l-66 -95h-56z" />
    <glyph glyph-name="uni1ED5" unicode="&#x1ed5;" horiz-adv-x="476" 
d="M126 14q-48 26 -74.5 73.5t-26.5 109.5t26.5 109t74.5 72.5t111 25.5t111.5 -25.5t75.5 -72.5t27 -108q0 -62 -27 -110t-75.5 -74t-111.5 -26t-111 26zM337 87.5q38 41.5 38 110.5q0 67 -38 107.5t-100 40.5t-99 -41t-37 -108q0 -68 37.5 -109.5t98.5 -41.5
q62 0 100 41.5zM321 574q34 11 34 36q0 13 -9.5 20t-24.5 7q-20 0 -43 -13l-15 42q30 17 63 17q36 0 59 -20t23 -51q0 -62 -73 -82zM115 449l83 127h78l83 -127h-56l-66 95l-66 -95h-56z" />
    <glyph glyph-name="uni1ED7" unicode="&#x1ed7;" horiz-adv-x="476" 
d="M126 14q-48 26 -74.5 73.5t-26.5 109.5t26.5 109t74.5 72.5t111 25.5t111.5 -25.5t75.5 -72.5t27 -108q0 -62 -27 -110t-75.5 -74t-111.5 -26t-111 26zM337 87.5q38 41.5 38 110.5q0 67 -38 107.5t-100 40.5t-99 -41t-37 -108q0 -68 37.5 -109.5t98.5 -41.5
q62 0 100 41.5zM270.5 606.5q-15.5 4.5 -29 9t-17.5 6.5q-40 17 -57 17q-13 0 -20.5 -7.5t-10.5 -25.5h-31q4 44 23 66t50 22q22 0 70 -20q42 -17 56 -17q15 0 24 8t13 27h29q-3 -41 -20 -65.5t-50 -24.5q-14 0 -29.5 4.5zM115 449l83 127h78l83 -127h-56l-66 95l-66 -95
h-56z" />
    <glyph glyph-name="uni020D" unicode="&#x20d;" horiz-adv-x="476" 
d="M126 14q-48 26 -74.5 73.5t-26.5 109.5t26.5 109t74.5 72.5t111 25.5t111.5 -25.5t75.5 -72.5t27 -108q0 -62 -27 -110t-75.5 -74t-111.5 -26t-111 26zM337 87.5q38 41.5 38 110.5q0 67 -38 107.5t-100 40.5t-99 -41t-37 -108q0 -68 37.5 -109.5t98.5 -41.5
q62 0 100 41.5zM134 477l-94 152h84l57 -152h-47zM269 477l-93 152h84l56 -152h-47z" />
    <glyph glyph-name="odieresis" unicode="&#xf6;" horiz-adv-x="476" 
d="M126 14q-48 26 -74.5 73.5t-26.5 109.5t26.5 109t74.5 72.5t111 25.5t111.5 -25.5t75.5 -72.5t27 -108q0 -62 -27 -110t-75.5 -74t-111.5 -26t-111 26zM337 87.5q38 41.5 38 110.5q0 67 -38 107.5t-100 40.5t-99 -41t-37 -108q0 -68 37.5 -109.5t98.5 -41.5
q62 0 100 41.5zM108.5 469q-12.5 12 -12.5 31t12.5 31t32.5 12t32.5 -12t12.5 -31t-12.5 -31t-32.5 -12t-32.5 12zM301 468.5q-12 11.5 -12 31.5t12 31.5t32 11.5t32.5 -12t12.5 -31t-12.5 -31t-32.5 -12t-32 11.5z" />
    <glyph glyph-name="uni022B" unicode="&#x22b;" horiz-adv-x="476" 
d="M126 14q-48 26 -74.5 73.5t-26.5 109.5t26.5 109t74.5 72.5t111 25.5t111.5 -25.5t75.5 -72.5t27 -108q0 -62 -27 -110t-75.5 -74t-111.5 -26t-111 26zM337 87.5q38 41.5 38 110.5q0 67 -38 107.5t-100 40.5t-99 -41t-37 -108q0 -68 37.5 -109.5t98.5 -41.5
q62 0 100 41.5zM108.5 469q-12.5 12 -12.5 31t12.5 31t32.5 12t32.5 -12t12.5 -31t-12.5 -31t-32.5 -12t-32.5 12zM301 468.5q-12 11.5 -12 31.5t12 31.5t32 11.5t32.5 -12t12.5 -31t-12.5 -31t-32.5 -12t-32 11.5zM132 623v45h210v-45h-210z" />
    <glyph glyph-name="uni022F" unicode="&#x22f;" horiz-adv-x="476" 
d="M126 14q-48 26 -74.5 73.5t-26.5 109.5t26.5 109t74.5 72.5t111 25.5t111.5 -25.5t75.5 -72.5t27 -108q0 -62 -27 -110t-75.5 -74t-111.5 -26t-111 26zM337 87.5q38 41.5 38 110.5q0 67 -38 107.5t-100 40.5t-99 -41t-37 -108q0 -68 37.5 -109.5t98.5 -41.5
q62 0 100 41.5zM203 473.5q-14 13.5 -14 31.5q0 19 13.5 32t34.5 13t34 -12t13 -33q1 -18 -12 -31.5t-35 -13.5q-20 0 -34 13.5z" />
    <glyph glyph-name="uni0231" unicode="&#x231;" horiz-adv-x="476" 
d="M126 14q-48 26 -74.5 73.5t-26.5 109.5t26.5 109t74.5 72.5t111 25.5t111.5 -25.5t75.5 -72.5t27 -108q0 -62 -27 -110t-75.5 -74t-111.5 -26t-111 26zM337 87.5q38 41.5 38 110.5q0 67 -38 107.5t-100 40.5t-99 -41t-37 -108q0 -68 37.5 -109.5t98.5 -41.5
q62 0 100 41.5zM203 473.5q-14 13.5 -14 31.5q0 19 13.5 32t34.5 13t34 -12t13 -33q1 -18 -12 -31.5t-35 -13.5q-20 0 -34 13.5zM132 620v45h210v-45h-210z" />
    <glyph glyph-name="uni1ECD" unicode="&#x1ecd;" horiz-adv-x="476" 
d="M126 14q-48 26 -74.5 73.5t-26.5 109.5t26.5 109t74.5 72.5t111 25.5t111.5 -25.5t75.5 -72.5t27 -108q0 -62 -27 -110t-75.5 -74t-111.5 -26t-111 26zM337 87.5q38 41.5 38 110.5q0 67 -38 107.5t-100 40.5t-99 -41t-37 -108q0 -68 37.5 -109.5t98.5 -41.5
q62 0 100 41.5zM204 -126.5q-14 13.5 -14 31.5q0 19 13.5 32t34.5 13t34 -12t13 -33q1 -18 -12 -31.5t-35 -13.5q-20 0 -34 13.5z" />
    <glyph glyph-name="ograve" unicode="&#xf2;" horiz-adv-x="476" 
d="M126 14q-48 26 -74.5 73.5t-26.5 109.5t26.5 109t74.5 72.5t111 25.5t111.5 -25.5t75.5 -72.5t27 -108q0 -62 -27 -110t-75.5 -74t-111.5 -26t-111 26zM337 87.5q38 41.5 38 110.5q0 67 -38 107.5t-100 40.5t-99 -41t-37 -108q0 -68 37.5 -109.5t98.5 -41.5
q62 0 100 41.5zM213 477l-90 145h84l53 -145h-47z" />
    <glyph glyph-name="uni1ECF" unicode="&#x1ecf;" horiz-adv-x="476" 
d="M126 14q-48 26 -74.5 73.5t-26.5 109.5t26.5 109t74.5 72.5t111 25.5t111.5 -25.5t75.5 -72.5t27 -108q0 -62 -27 -110t-75.5 -74t-111.5 -26t-111 26zM337 87.5q38 41.5 38 110.5q0 67 -38 107.5t-100 40.5t-99 -41t-37 -108q0 -68 37.5 -109.5t98.5 -41.5
q62 0 100 41.5zM223 480q34 11 34 36q0 13 -9.5 20t-24.5 7q-20 0 -43 -13l-15 42q30 17 63 17q36 0 59 -20t23 -51q0 -62 -73 -82z" />
    <glyph glyph-name="ohorn" unicode="&#x1a1;" horiz-adv-x="476" 
d="M429.5 296.5q21.5 -43.5 21.5 -98.5q0 -62 -27 -110t-75.5 -74t-111.5 -26t-111 26t-74.5 73.5t-26.5 109.5t26.5 109t74.5 72.5t111 25.5q28 0 63 -7q38 13 42 63h81q-7 -61 -55 -93q40 -27 61.5 -70.5zM337 87.5q38 41.5 38 110.5q0 67 -38 107.5t-100 40.5t-99 -41
t-37 -108q0 -68 37.5 -109.5t98.5 -41.5q62 0 100 41.5z" />
    <glyph glyph-name="uni1EDB" unicode="&#x1edb;" horiz-adv-x="476" 
d="M429.5 296.5q21.5 -43.5 21.5 -98.5q0 -62 -27 -110t-75.5 -74t-111.5 -26t-111 26t-74.5 73.5t-26.5 109.5t26.5 109t74.5 72.5t111 25.5q28 0 63 -7q38 13 42 63h81q-7 -61 -55 -93q40 -27 61.5 -70.5zM337 87.5q38 41.5 38 110.5q0 67 -38 107.5t-100 40.5t-99 -41
t-37 -108q0 -68 37.5 -109.5t98.5 -41.5q62 0 100 41.5zM214 477l53 145h84l-90 -145h-47z" />
    <glyph glyph-name="uni1EE3" unicode="&#x1ee3;" horiz-adv-x="476" 
d="M429.5 296.5q21.5 -43.5 21.5 -98.5q0 -62 -27 -110t-75.5 -74t-111.5 -26t-111 26t-74.5 73.5t-26.5 109.5t26.5 109t74.5 72.5t111 25.5q28 0 63 -7q38 13 42 63h81q-7 -61 -55 -93q40 -27 61.5 -70.5zM337 87.5q38 41.5 38 110.5q0 67 -38 107.5t-100 40.5t-99 -41
t-37 -108q0 -68 37.5 -109.5t98.5 -41.5q62 0 100 41.5zM204 -126.5q-14 13.5 -14 31.5q0 19 13.5 32t34.5 13t34 -12t13 -33q1 -18 -12 -31.5t-35 -13.5q-20 0 -34 13.5z" />
    <glyph glyph-name="uni1EDD" unicode="&#x1edd;" horiz-adv-x="476" 
d="M429.5 296.5q21.5 -43.5 21.5 -98.5q0 -62 -27 -110t-75.5 -74t-111.5 -26t-111 26t-74.5 73.5t-26.5 109.5t26.5 109t74.5 72.5t111 25.5q28 0 63 -7q38 13 42 63h81q-7 -61 -55 -93q40 -27 61.5 -70.5zM337 87.5q38 41.5 38 110.5q0 67 -38 107.5t-100 40.5t-99 -41
t-37 -108q0 -68 37.5 -109.5t98.5 -41.5q62 0 100 41.5zM213 477l-90 145h84l53 -145h-47z" />
    <glyph glyph-name="uni1EDF" unicode="&#x1edf;" horiz-adv-x="476" 
d="M429.5 296.5q21.5 -43.5 21.5 -98.5q0 -62 -27 -110t-75.5 -74t-111.5 -26t-111 26t-74.5 73.5t-26.5 109.5t26.5 109t74.5 72.5t111 25.5q28 0 63 -7q38 13 42 63h81q-7 -61 -55 -93q40 -27 61.5 -70.5zM337 87.5q38 41.5 38 110.5q0 67 -38 107.5t-100 40.5t-99 -41
t-37 -108q0 -68 37.5 -109.5t98.5 -41.5q62 0 100 41.5zM223 480q34 11 34 36q0 13 -9.5 20t-24.5 7q-20 0 -43 -13l-15 42q30 17 63 17q36 0 59 -20t23 -51q0 -62 -73 -82z" />
    <glyph glyph-name="uni1EE1" unicode="&#x1ee1;" horiz-adv-x="476" 
d="M429.5 296.5q21.5 -43.5 21.5 -98.5q0 -62 -27 -110t-75.5 -74t-111.5 -26t-111 26t-74.5 73.5t-26.5 109.5t26.5 109t74.5 72.5t111 25.5q28 0 63 -7q38 13 42 63h81q-7 -61 -55 -93q40 -27 61.5 -70.5zM337 87.5q38 41.5 38 110.5q0 67 -38 107.5t-100 40.5t-99 -41
t-37 -108q0 -68 37.5 -109.5t98.5 -41.5q62 0 100 41.5zM270.5 474.5q-15.5 4.5 -29 9t-17.5 6.5q-40 17 -57 17q-13 0 -20.5 -7.5t-10.5 -25.5h-31q4 44 23 66t50 22q22 0 70 -20q42 -17 56 -17q15 0 24 8t13 27h29q-3 -41 -20 -65.5t-50 -24.5q-14 0 -29.5 4.5z" />
    <glyph glyph-name="ohungarumlaut" unicode="&#x151;" horiz-adv-x="476" 
d="M126 14q-48 26 -74.5 73.5t-26.5 109.5t26.5 109t74.5 72.5t111 25.5t111.5 -25.5t75.5 -72.5t27 -108q0 -62 -27 -110t-75.5 -74t-111.5 -26t-111 26zM337 87.5q38 41.5 38 110.5q0 67 -38 107.5t-100 40.5t-99 -41t-37 -108q0 -68 37.5 -109.5t98.5 -41.5
q62 0 100 41.5zM148 477l56 152h84l-94 -152h-46zM283 477l56 152h84l-93 -152h-47z" />
    <glyph glyph-name="uni020F" unicode="&#x20f;" horiz-adv-x="476" 
d="M126 14q-48 26 -74.5 73.5t-26.5 109.5t26.5 109t74.5 72.5t111 25.5t111.5 -25.5t75.5 -72.5t27 -108q0 -62 -27 -110t-75.5 -74t-111.5 -26t-111 26zM337 87.5q38 41.5 38 110.5q0 67 -38 107.5t-100 40.5t-99 -41t-37 -108q0 -68 37.5 -109.5t98.5 -41.5
q62 0 100 41.5zM156.5 528q31.5 29 80.5 29q48 0 79.5 -29t36.5 -78h-59q-5 25 -19.5 38t-37.5 13q-49 0 -58 -51h-59q5 49 36.5 78z" />
    <glyph glyph-name="omacron" unicode="&#x14d;" horiz-adv-x="476" 
d="M126 14q-48 26 -74.5 73.5t-26.5 109.5t26.5 109t74.5 72.5t111 25.5t111.5 -25.5t75.5 -72.5t27 -108q0 -62 -27 -110t-75.5 -74t-111.5 -26t-111 26zM337 87.5q38 41.5 38 110.5q0 67 -38 107.5t-100 40.5t-99 -41t-37 -108q0 -68 37.5 -109.5t98.5 -41.5
q62 0 100 41.5zM132 473v45h210v-45h-210z" />
    <glyph glyph-name="uni1E53" unicode="&#x1e53;" horiz-adv-x="476" 
d="M126 14q-48 26 -74.5 73.5t-26.5 109.5t26.5 109t74.5 72.5t111 25.5t111.5 -25.5t75.5 -72.5t27 -108q0 -62 -27 -110t-75.5 -74t-111.5 -26t-111 26zM337 87.5q38 41.5 38 110.5q0 67 -38 107.5t-100 40.5t-99 -41t-37 -108q0 -68 37.5 -109.5t98.5 -41.5
q62 0 100 41.5zM132 473v45h210v-45h-210zM214 591l53 145h84l-90 -145h-47z" />
    <glyph glyph-name="uni1E51" unicode="&#x1e51;" horiz-adv-x="476" 
d="M126 14q-48 26 -74.5 73.5t-26.5 109.5t26.5 109t74.5 72.5t111 25.5t111.5 -25.5t75.5 -72.5t27 -108q0 -62 -27 -110t-75.5 -74t-111.5 -26t-111 26zM337 87.5q38 41.5 38 110.5q0 67 -38 107.5t-100 40.5t-99 -41t-37 -108q0 -68 37.5 -109.5t98.5 -41.5
q62 0 100 41.5zM132 473v45h210v-45h-210zM213 591l-90 145h84l53 -145h-47z" />
    <glyph glyph-name="uni01EB" unicode="&#x1eb;" horiz-adv-x="476" 
d="M398.5 53q-52.5 -57 -138.5 -64q-35 -40 -35 -69q0 -21 13 -32t34 -11q22 0 44 13v-40q-17 -10 -31 -14.5t-31 -4.5q-34 0 -57 20.5t-23 53.5q0 40 42 84q-87 7 -139 63t-52 145q0 62 26.5 109t74.5 72.5t111 25.5t111.5 -25.5t75.5 -72.5t27 -108q0 -88 -52.5 -145z
M138.5 87.5q37.5 -41.5 98.5 -41.5q62 0 100 41.5t38 110.5q0 67 -38 107.5t-100 40.5t-99 -41t-37 -108q0 -68 37.5 -109.5z" />
    <glyph glyph-name="oslash" unicode="&#xf8;" horiz-adv-x="482" 
d="M427 301q24 -45 24 -103q0 -62 -27 -110t-75.5 -74t-111.5 -26q-45 0 -80 13l-35 -64l-35 18l34 62q-45 26 -70.5 72.5t-25.5 107.5q0 62 26.5 109t74.5 72.5t111 25.5q48 0 87 -15l35 64l35 -17l-35 -64q44 -26 68 -71zM114.5 125.5q13.5 -31.5 37.5 -51.5l143 261
q-28 11 -58 11q-62 0 -99 -41t-37 -108q0 -40 13.5 -71.5zM337 87.5q38 41.5 38 110.5q0 37 -12 67t-35 49l-142 -259q24 -9 51 -9q62 0 100 41.5z" />
    <glyph glyph-name="oslashacute" unicode="&#x1ff;" horiz-adv-x="482" 
d="M427 301q24 -45 24 -103q0 -62 -27 -110t-75.5 -74t-111.5 -26q-45 0 -80 13l-35 -64l-35 18l34 62q-45 26 -70.5 72.5t-25.5 107.5q0 62 26.5 109t74.5 72.5t111 25.5q48 0 87 -15l35 64l35 -17l-35 -64q44 -26 68 -71zM114.5 125.5q13.5 -31.5 37.5 -51.5l143 261
q-28 11 -58 11q-62 0 -99 -41t-37 -108q0 -40 13.5 -71.5zM337 87.5q38 41.5 38 110.5q0 37 -12 67t-35 49l-142 -259q24 -9 51 -9q62 0 100 41.5zM218 477l53 145h84l-90 -145h-47z" />
    <glyph glyph-name="otilde" unicode="&#xf5;" horiz-adv-x="476" 
d="M126 14q-48 26 -74.5 73.5t-26.5 109.5t26.5 109t74.5 72.5t111 25.5t111.5 -25.5t75.5 -72.5t27 -108q0 -62 -27 -110t-75.5 -74t-111.5 -26t-111 26zM337 87.5q38 41.5 38 110.5q0 67 -38 107.5t-100 40.5t-99 -41t-37 -108q0 -68 37.5 -109.5t98.5 -41.5
q62 0 100 41.5zM270.5 474.5q-15.5 4.5 -29 9t-17.5 6.5q-40 17 -57 17q-13 0 -20.5 -7.5t-10.5 -25.5h-31q4 44 23 66t50 22q22 0 70 -20q42 -17 56 -17q15 0 24 8t13 27h29q-3 -41 -20 -65.5t-50 -24.5q-14 0 -29.5 4.5z" />
    <glyph glyph-name="uni1E4D" unicode="&#x1e4d;" horiz-adv-x="476" 
d="M126 14q-48 26 -74.5 73.5t-26.5 109.5t26.5 109t74.5 72.5t111 25.5t111.5 -25.5t75.5 -72.5t27 -108q0 -62 -27 -110t-75.5 -74t-111.5 -26t-111 26zM337 87.5q38 41.5 38 110.5q0 67 -38 107.5t-100 40.5t-99 -41t-37 -108q0 -68 37.5 -109.5t98.5 -41.5
q62 0 100 41.5zM270.5 474.5q-15.5 4.5 -29 9t-17.5 6.5q-40 17 -57 17q-13 0 -20.5 -7.5t-10.5 -25.5h-31q4 44 23 66t50 22q22 0 70 -20q42 -17 56 -17q15 0 24 8t13 27h29q-3 -41 -20 -65.5t-50 -24.5q-14 0 -29.5 4.5zM215 626l53 145h84l-90 -145h-47z" />
    <glyph glyph-name="uni1E4F" unicode="&#x1e4f;" horiz-adv-x="476" 
d="M126 14q-48 26 -74.5 73.5t-26.5 109.5t26.5 109t74.5 72.5t111 25.5t111.5 -25.5t75.5 -72.5t27 -108q0 -62 -27 -110t-75.5 -74t-111.5 -26t-111 26zM337 87.5q38 41.5 38 110.5q0 67 -38 107.5t-100 40.5t-99 -41t-37 -108q0 -68 37.5 -109.5t98.5 -41.5
q62 0 100 41.5zM270.5 474.5q-15.5 4.5 -29 9t-17.5 6.5q-40 17 -57 17q-13 0 -20.5 -7.5t-10.5 -25.5h-31q4 44 23 66t50 22q22 0 70 -20q42 -17 56 -17q15 0 24 8t13 27h29q-3 -41 -20 -65.5t-50 -24.5q-14 0 -29.5 4.5zM109.5 618q-12.5 12 -12.5 31t12.5 31t32.5 12
t32.5 -12t12.5 -31t-12.5 -31t-32.5 -12t-32.5 12zM302 617.5q-12 11.5 -12 31.5t12 31.5t32 11.5t32.5 -12t12.5 -31t-12.5 -31t-32.5 -12t-32 11.5z" />
    <glyph glyph-name="uni022D" unicode="&#x22d;" horiz-adv-x="476" 
d="M126 14q-48 26 -74.5 73.5t-26.5 109.5t26.5 109t74.5 72.5t111 25.5t111.5 -25.5t75.5 -72.5t27 -108q0 -62 -27 -110t-75.5 -74t-111.5 -26t-111 26zM337 87.5q38 41.5 38 110.5q0 67 -38 107.5t-100 40.5t-99 -41t-37 -108q0 -68 37.5 -109.5t98.5 -41.5
q62 0 100 41.5zM270.5 474.5q-15.5 4.5 -29 9t-17.5 6.5q-40 17 -57 17q-13 0 -20.5 -7.5t-10.5 -25.5h-31q4 44 23 66t50 22q22 0 70 -20q42 -17 56 -17q15 0 24 8t13 27h29q-3 -41 -20 -65.5t-50 -24.5q-14 0 -29.5 4.5zM133 622v45h210v-45h-210z" />
    <glyph glyph-name="oe" unicode="&#x153;" horiz-adv-x="806" 
d="M124.5 15.5q-47.5 26.5 -73.5 73.5t-26 107q0 59 26.5 106.5t74 74t108.5 26.5q58 0 103.5 -26t71.5 -72q26 47 71 72.5t100 25.5q89 0 140 -55t51 -149v-19h-327q4 -62 43.5 -99.5t102.5 -37.5q37 0 74 16t62 42l37 -39q-29 -35 -74.5 -54t-101.5 -19q-58 0 -105.5 25.5
t-73.5 71.5q-26 -45 -71.5 -71t-102.5 -26q-62 0 -109.5 26.5zM704 224q0 58 -34 91.5t-88 33.5q-58 0 -94 -33.5t-43 -91.5h259zM333.5 87q37.5 42 37.5 109t-37.5 108.5t-99.5 41.5t-99.5 -41.5t-37.5 -108.5t37.5 -109t99.5 -42t99.5 42z" />
    <glyph glyph-name="p" unicode="p" horiz-adv-x="512" 
d="M391.5 379.5q43.5 -23.5 68.5 -69t25 -108.5q0 -65 -27.5 -113t-74 -73.5t-101.5 -25.5q-35 0 -66.5 11t-51.5 29l-1 -133h77v-53h-221v53h71v443h-69v53h138l1 -37q29 23 63.5 35t70.5 12q54 0 97.5 -23.5zM369.5 84.5q38.5 39.5 38.5 111.5q0 70 -37.5 110t-96.5 40
q-24 0 -55.5 -10t-55.5 -30l1 -223q23 -18 50.5 -28t54.5 -10q62 0 100.5 39.5z" />
    <glyph glyph-name="uni1E57" unicode="&#x1e57;" horiz-adv-x="512" 
d="M391.5 379.5q43.5 -23.5 68.5 -69t25 -108.5q0 -65 -27.5 -113t-74 -73.5t-101.5 -25.5q-35 0 -66.5 11t-51.5 29l-1 -133h77v-53h-221v53h71v443h-69v53h138l1 -37q29 23 63.5 35t70.5 12q54 0 97.5 -23.5zM369.5 84.5q38.5 39.5 38.5 111.5q0 70 -37.5 110t-96.5 40
q-24 0 -55.5 -10t-55.5 -30l1 -223q23 -18 50.5 -28t54.5 -10q62 0 100.5 39.5zM244 473.5q-14 13.5 -14 31.5q0 19 13.5 32t34.5 13t34 -12t13 -33q1 -18 -12 -31.5t-35 -13.5q-20 0 -34 13.5z" />
    <glyph glyph-name="thorn" unicode="&#xfe;" horiz-adv-x="537" 
d="M20 -105h68v614h-72v54h147v-210q33 28 72 42.5t78 14.5q53 0 96.5 -23.5t69 -69t25.5 -108.5q0 -65 -27.5 -113t-74 -73.5t-101.5 -25.5q-38 0 -74.5 15t-63.5 42v-159h70v-54h-213v54zM388.5 91.5q38.5 39.5 38.5 111.5q0 70 -37.5 110.5t-96.5 40.5q-32 0 -66 -15.5
t-64 -43.5v-189q27 -26 60 -40t65 -14q62 0 100.5 39.5z" />
    <glyph glyph-name="q" unicode="q" horiz-adv-x="530" 
d="M509 -105v-56h-221v56h77v142q-30 -23 -65.5 -35.5t-70.5 -12.5q-55 0 -101 25t-73 72.5t-27 110.5q0 64 26 111t70 71t97 24q38 0 76 -13t68 -36l1 39h142v-53h-69v-445h70zM143.5 84q39.5 -39 100.5 -39q30 0 61.5 11.5t59.5 31.5v214q-31 22 -64.5 33.5t-65.5 11.5
q-58 0 -94.5 -41t-36.5 -115q0 -68 39.5 -107z" />
    <glyph glyph-name="r" unicode="r" horiz-adv-x="386" 
d="M365 378l-18 -67q-34 22 -69 22q-40 0 -66.5 -32.5t-26.5 -89.5l-1 -158h70v-53h-219v53h76v287h-76v53h149v-72q32 77 101 77q38 0 80 -20z" />
    <glyph glyph-name="racute" unicode="&#x155;" horiz-adv-x="386" 
d="M365 378l-18 -67q-34 22 -69 22q-40 0 -66.5 -32.5t-26.5 -89.5l-1 -158h70v-53h-219v53h76v287h-76v53h149v-72q32 77 101 77q38 0 80 -20zM204 477l53 145h84l-90 -145h-47z" />
    <glyph glyph-name="rcaron" unicode="&#x159;" horiz-adv-x="386" 
d="M365 378l-18 -67q-34 22 -69 22q-40 0 -66.5 -32.5t-26.5 -89.5l-1 -158h70v-53h-219v53h76v287h-76v53h149v-72q32 77 101 77q38 0 80 -20zM192 448l-81 151h53l64 -109l62 109h52l-79 -151h-71z" />
    <glyph glyph-name="rcommaaccent" unicode="&#x157;" horiz-adv-x="386" 
d="M365 378l-18 -67q-34 22 -69 22q-40 0 -66.5 -32.5t-26.5 -89.5l-1 -158h70v-53h-219v53h76v287h-76v53h149v-72q32 77 101 77q38 0 80 -20zM100 -204q29 5 42.5 21.5t13.5 45.5h-54v87h95v-89q0 -46 -24 -71.5t-73 -25.5v32z" />
    <glyph glyph-name="uni0211" unicode="&#x211;" horiz-adv-x="386" 
d="M365 378l-18 -67q-34 22 -69 22q-40 0 -66.5 -32.5t-26.5 -89.5l-1 -158h70v-53h-219v53h76v287h-76v53h149v-72q32 77 101 77q38 0 80 -20zM124 477l-94 152h84l57 -152h-47zM259 477l-93 152h84l56 -152h-47z" />
    <glyph glyph-name="uni1E5B" unicode="&#x1e5b;" horiz-adv-x="386" 
d="M365 378l-18 -67q-34 22 -69 22q-40 0 -66.5 -32.5t-26.5 -89.5l-1 -158h70v-53h-219v53h76v287h-76v53h149v-72q32 77 101 77q38 0 80 -20zM114 -126.5q-14 13.5 -14 31.5q0 19 13.5 32t34.5 13t34 -12t13 -33q1 -18 -12 -31.5t-35 -13.5q-20 0 -34 13.5z" />
    <glyph glyph-name="uni0213" unicode="&#x213;" horiz-adv-x="386" 
d="M365 378l-18 -67q-34 22 -69 22q-40 0 -66.5 -32.5t-26.5 -89.5l-1 -158h70v-53h-219v53h76v287h-76v53h149v-72q32 77 101 77q38 0 80 -20zM146.5 528q31.5 29 80.5 29q48 0 79.5 -29t36.5 -78h-59q-5 25 -19.5 38t-37.5 13q-49 0 -58 -51h-59q5 49 36.5 78z" />
    <glyph glyph-name="uni1E5F" unicode="&#x1e5f;" horiz-adv-x="386" 
d="M365 378l-18 -67q-34 22 -69 22q-40 0 -66.5 -32.5t-26.5 -89.5l-1 -158h70v-53h-219v53h76v287h-76v53h149v-72q32 77 101 77q38 0 80 -20zM43 -82v45h210v-45h-210z" />
    <glyph glyph-name="s" unicode="s" horiz-adv-x="432" 
d="M332.5 204.5q27.5 -12.5 44.5 -36.5t17 -64q0 -56 -44 -85t-106 -29q-38 0 -72 12t-54 32v-34h-58v136h52l4 -43q17 -25 49.5 -38.5t68.5 -13.5q39 0 64 15.5t25 41.5q0 30 -19 43t-71 24l-55 12q-61 15 -90 39.5t-29 76.5q0 51 40.5 80.5t104.5 29.5q31 0 63.5 -10
t51.5 -28v30h59v-135h-52l-7 49q-15 18 -44.5 29.5t-58.5 11.5q-35 0 -59 -14t-24 -41q0 -22 17 -34t58 -22l51 -11q46 -11 73.5 -23.5zM330 289l-1 2zM104 118q0 -2 1 -3z" />
    <glyph glyph-name="sacute" unicode="&#x15b;" horiz-adv-x="432" 
d="M332.5 204.5q27.5 -12.5 44.5 -36.5t17 -64q0 -56 -44 -85t-106 -29q-38 0 -72 12t-54 32v-34h-58v136h52l4 -43q17 -25 49.5 -38.5t68.5 -13.5q39 0 64 15.5t25 41.5q0 30 -19 43t-71 24l-55 12q-61 15 -90 39.5t-29 76.5q0 51 40.5 80.5t104.5 29.5q31 0 63.5 -10
t51.5 -28v30h59v-135h-52l-7 49q-15 18 -44.5 29.5t-58.5 11.5q-35 0 -59 -14t-24 -41q0 -22 17 -34t58 -22l51 -11q46 -11 73.5 -23.5zM330 289l-1 2zM104 118q0 -2 1 -3zM207 477l53 145h84l-90 -145h-47z" />
    <glyph glyph-name="uni1E65" unicode="&#x1e65;" horiz-adv-x="432" 
d="M332.5 204.5q27.5 -12.5 44.5 -36.5t17 -64q0 -56 -44 -85t-106 -29q-38 0 -72 12t-54 32v-34h-58v136h52l4 -43q17 -25 49.5 -38.5t68.5 -13.5q39 0 64 15.5t25 41.5q0 30 -19 43t-71 24l-55 12q-61 15 -90 39.5t-29 76.5q0 51 40.5 80.5t104.5 29.5q31 0 63.5 -10
t51.5 -28v30h59v-135h-52l-7 49q-15 18 -44.5 29.5t-58.5 11.5q-35 0 -59 -14t-24 -41q0 -22 17 -34t58 -22l51 -11q46 -11 73.5 -23.5zM330 289l-1 2zM104 118q0 -2 1 -3zM207 477l53 145h84l-90 -145h-47zM196 706.5q-14 13.5 -14 31.5q0 19 13.5 32t34.5 13t34 -12
t13 -33q1 -18 -12 -31.5t-35 -13.5q-20 0 -34 13.5z" />
    <glyph glyph-name="scaron" unicode="&#x161;" horiz-adv-x="432" 
d="M332.5 204.5q27.5 -12.5 44.5 -36.5t17 -64q0 -56 -44 -85t-106 -29q-38 0 -72 12t-54 32v-34h-58v136h52l4 -43q17 -25 49.5 -38.5t68.5 -13.5q39 0 64 15.5t25 41.5q0 30 -19 43t-71 24l-55 12q-61 15 -90 39.5t-29 76.5q0 51 40.5 80.5t104.5 29.5q31 0 63.5 -10
t51.5 -28v30h59v-135h-52l-7 49q-15 18 -44.5 29.5t-58.5 11.5q-35 0 -59 -14t-24 -41q0 -22 17 -34t58 -22l51 -11q46 -11 73.5 -23.5zM330 289l-1 2zM104 118q0 -2 1 -3zM195 448l-81 151h53l64 -109l62 109h52l-79 -151h-71z" />
    <glyph glyph-name="uni1E67" unicode="&#x1e67;" horiz-adv-x="432" 
d="M332.5 204.5q27.5 -12.5 44.5 -36.5t17 -64q0 -56 -44 -85t-106 -29q-38 0 -72 12t-54 32v-34h-58v136h52l4 -43q17 -25 49.5 -38.5t68.5 -13.5q39 0 64 15.5t25 41.5q0 30 -19 43t-71 24l-55 12q-61 15 -90 39.5t-29 76.5q0 51 40.5 80.5t104.5 29.5q31 0 63.5 -10
t51.5 -28v30h59v-135h-52l-7 49q-15 18 -44.5 29.5t-58.5 11.5q-35 0 -59 -14t-24 -41q0 -22 17 -34t58 -22l51 -11q46 -11 73.5 -23.5zM330 289l-1 2zM104 118q0 -2 1 -3zM195 448l-81 151h53l64 -109l62 109h52l-79 -151h-71zM196 679.5q-14 13.5 -14 31.5q0 19 13.5 32
t34.5 13t34 -12t13 -33q1 -18 -12 -31.5t-35 -13.5q-20 0 -34 13.5z" />
    <glyph glyph-name="scedilla" unicode="&#x15f;" horiz-adv-x="432" 
d="M350.5 19q-43.5 -29 -105.5 -29l-13 -48q36 -4 54 -20.5t18 -39.5q0 -29 -19.5 -43t-51.5 -14q-43 0 -87 19v29q35 -10 57 -10q38 0 38 26q0 28 -57 31l28 72q-63 10 -94 42v-34h-58v136h52l4 -43q17 -25 49.5 -38.5t68.5 -13.5q39 0 64 15.5t25 41.5q0 30 -19 43t-71 24
l-55 12q-61 15 -90 39.5t-29 76.5q0 51 40.5 80.5t104.5 29.5q31 0 63.5 -10t51.5 -28v30h59v-135h-52l-7 49q-15 18 -44.5 29.5t-58.5 11.5q-35 0 -59 -14t-24 -41q0 -22 17 -34t58 -22l51 -11q46 -11 73.5 -23.5t44.5 -36.5t17 -64q0 -56 -43.5 -85zM330 289l-1 2z
M104 118q0 -2 1 -3z" />
    <glyph glyph-name="scircumflex" unicode="&#x15d;" horiz-adv-x="432" 
d="M332.5 204.5q27.5 -12.5 44.5 -36.5t17 -64q0 -56 -44 -85t-106 -29q-38 0 -72 12t-54 32v-34h-58v136h52l4 -43q17 -25 49.5 -38.5t68.5 -13.5q39 0 64 15.5t25 41.5q0 30 -19 43t-71 24l-55 12q-61 15 -90 39.5t-29 76.5q0 51 40.5 80.5t104.5 29.5q31 0 63.5 -10
t51.5 -28v30h59v-135h-52l-7 49q-15 18 -44.5 29.5t-58.5 11.5q-35 0 -59 -14t-24 -41q0 -22 17 -34t58 -22l51 -11q46 -11 73.5 -23.5zM330 289l-1 2zM104 118q0 -2 1 -3zM108 449l83 157h78l83 -157h-56l-66 125l-66 -125h-56z" />
    <glyph glyph-name="scommaaccent" unicode="&#x219;" horiz-adv-x="432" 
d="M332.5 204.5q27.5 -12.5 44.5 -36.5t17 -64q0 -56 -44 -85t-106 -29q-38 0 -72 12t-54 32v-34h-58v136h52l4 -43q17 -25 49.5 -38.5t68.5 -13.5q39 0 64 15.5t25 41.5q0 30 -19 43t-71 24l-55 12q-61 15 -90 39.5t-29 76.5q0 51 40.5 80.5t104.5 29.5q31 0 63.5 -10
t51.5 -28v30h59v-135h-52l-7 49q-15 18 -44.5 29.5t-58.5 11.5q-35 0 -59 -14t-24 -41q0 -22 17 -34t58 -22l51 -11q46 -11 73.5 -23.5zM330 289l-1 2zM104 118q0 -2 1 -3zM183 -204q29 5 42.5 21.5t13.5 45.5h-54v87h95v-89q0 -46 -24 -71.5t-73 -25.5v32z" />
    <glyph glyph-name="uni1E61" unicode="&#x1e61;" horiz-adv-x="432" 
d="M332.5 204.5q27.5 -12.5 44.5 -36.5t17 -64q0 -56 -44 -85t-106 -29q-38 0 -72 12t-54 32v-34h-58v136h52l4 -43q17 -25 49.5 -38.5t68.5 -13.5q39 0 64 15.5t25 41.5q0 30 -19 43t-71 24l-55 12q-61 15 -90 39.5t-29 76.5q0 51 40.5 80.5t104.5 29.5q31 0 63.5 -10
t51.5 -28v30h59v-135h-52l-7 49q-15 18 -44.5 29.5t-58.5 11.5q-35 0 -59 -14t-24 -41q0 -22 17 -34t58 -22l51 -11q46 -11 73.5 -23.5zM330 289l-1 2zM104 118q0 -2 1 -3zM196 473.5q-14 13.5 -14 31.5q0 19 13.5 32t34.5 13t34 -12t13 -33q1 -18 -12 -31.5t-35 -13.5
q-20 0 -34 13.5z" />
    <glyph glyph-name="uni1E63" unicode="&#x1e63;" horiz-adv-x="432" 
d="M332.5 204.5q27.5 -12.5 44.5 -36.5t17 -64q0 -56 -44 -85t-106 -29q-38 0 -72 12t-54 32v-34h-58v136h52l4 -43q17 -25 49.5 -38.5t68.5 -13.5q39 0 64 15.5t25 41.5q0 30 -19 43t-71 24l-55 12q-61 15 -90 39.5t-29 76.5q0 51 40.5 80.5t104.5 29.5q31 0 63.5 -10
t51.5 -28v30h59v-135h-52l-7 49q-15 18 -44.5 29.5t-58.5 11.5q-35 0 -59 -14t-24 -41q0 -22 17 -34t58 -22l51 -11q46 -11 73.5 -23.5zM330 289l-1 2zM104 118q0 -2 1 -3zM197 -126.5q-14 13.5 -14 31.5q0 19 13.5 32t34.5 13t34 -12t13 -33q1 -18 -12 -31.5t-35 -13.5
q-20 0 -34 13.5z" />
    <glyph glyph-name="uni1E69" unicode="&#x1e69;" horiz-adv-x="432" 
d="M332.5 204.5q27.5 -12.5 44.5 -36.5t17 -64q0 -56 -44 -85t-106 -29q-38 0 -72 12t-54 32v-34h-58v136h52l4 -43q17 -25 49.5 -38.5t68.5 -13.5q39 0 64 15.5t25 41.5q0 30 -19 43t-71 24l-55 12q-61 15 -90 39.5t-29 76.5q0 51 40.5 80.5t104.5 29.5q31 0 63.5 -10
t51.5 -28v30h59v-135h-52l-7 49q-15 18 -44.5 29.5t-58.5 11.5q-35 0 -59 -14t-24 -41q0 -22 17 -34t58 -22l51 -11q46 -11 73.5 -23.5zM330 289l-1 2zM104 118q0 -2 1 -3zM197 -126.5q-14 13.5 -14 31.5q0 19 13.5 32t34.5 13t34 -12t13 -33q1 -18 -12 -31.5t-35 -13.5
q-20 0 -34 13.5zM196 473.5q-14 13.5 -14 31.5q0 19 13.5 32t34.5 13t34 -12t13 -33q1 -18 -12 -31.5t-35 -13.5q-20 0 -34 13.5z" />
    <glyph glyph-name="germandbls" unicode="&#xdf;" horiz-adv-x="530" 
d="M468 268.5q37 -38.5 37 -103.5q0 -82 -58.5 -123.5t-162.5 -41.5v54q141 0 141 112q0 117 -145 117h-15v52h15q42 1 65 28t23 72q0 42 -23 66.5t-64 24.5q-50 0 -78.5 -35t-28.5 -95v-342h58v-54h-212v54h74v338q0 90 49.5 140.5t135.5 50.5q77 0 120.5 -38.5
t43.5 -102.5q0 -45 -21.5 -78t-58.5 -47q68 -10 105 -48.5z" />
    <glyph glyph-name="t" unicode="t" horiz-adv-x="301" 
d="M85 116v224h-65v53h65v134l74 29v-163h104v-53h-104v-220q0 -37 12 -52t41 -15h60v-53h-73q-114 0 -114 116z" />
    <glyph glyph-name="tbar" unicode="&#x167;" horiz-adv-x="301" 
d="M272 53v-53h-73q-114 0 -114 116v83h-65v45h65v96h-65v53h65v134l74 29v-163h104v-53h-104v-96h91v-45h-91v-79q0 -37 12 -52t41 -15h60z" />
    <glyph glyph-name="tcaron" unicode="&#x165;" horiz-adv-x="301" 
d="M85 116v224h-65v53h65v134l74 29v-163h104v-53h-104v-220q0 -37 12 -52t41 -15h60v-53h-73q-114 0 -114 116zM203 466q29 5 42 19t13 44h-54v89h96l-1 -90q1 -45 -23 -70t-73 -25v33z" />
    <glyph glyph-name="uni0163" unicode="&#x163;" horiz-adv-x="301" 
d="M208 0l-16 -57q36 -4 54 -20.5t18 -39.5q0 -29 -19.5 -43t-51.5 -14q-43 0 -87 19v29q35 -10 57 -10q38 0 38 26q0 28 -57 31l31 80h4q-94 9 -94 115v224h-65v53h65v134l74 29v-163h104v-53h-104v-220q0 -37 12 -52t41 -15h60v-53h-64z" />
    <glyph glyph-name="uni021B" unicode="&#x21b;" horiz-adv-x="301" 
d="M85 116v224h-65v53h65v134l74 29v-163h104v-53h-104v-220q0 -37 12 -52t41 -15h60v-53h-73q-114 0 -114 116zM143 -203q29 5 42.5 21.5t13.5 45.5h-54v87h95v-89q0 -46 -24 -71.5t-73 -25.5v32z" />
    <glyph glyph-name="uni1E97" unicode="&#x1e97;" horiz-adv-x="301" 
d="M85 116v224h-65v53h65v134l74 29v-163h104v-53h-104v-220q0 -37 12 -52t41 -15h60v-53h-73q-114 0 -114 116zM-3.5 597q-12.5 12 -12.5 31t12.5 31t32.5 12t32.5 -12t12.5 -31t-12.5 -31t-32.5 -12t-32.5 12zM189 596.5q-12 11.5 -12 31.5t12 31.5t32 11.5t32.5 -12
t12.5 -31t-12.5 -31t-32.5 -12t-32 11.5z" />
    <glyph glyph-name="uni1E6B" unicode="&#x1e6b;" horiz-adv-x="301" 
d="M85 116v224h-65v53h65v134l74 29v-163h104v-53h-104v-220q0 -37 12 -52t41 -15h60v-53h-73q-114 0 -114 116zM91 601.5q-14 13.5 -14 31.5q0 19 13.5 32t34.5 13t34 -12t13 -33q1 -18 -12 -31.5t-35 -13.5q-20 0 -34 13.5z" />
    <glyph glyph-name="uni1E6D" unicode="&#x1e6d;" horiz-adv-x="301" 
d="M85 116v224h-65v53h65v134l74 29v-163h104v-53h-104v-220q0 -37 12 -52t41 -15h60v-53h-73q-114 0 -114 116zM157 -125.5q-14 13.5 -14 31.5q0 19 13.5 32t34.5 13t34 -12t13 -33q1 -18 -12 -31.5t-35 -13.5q-20 0 -34 13.5z" />
    <glyph glyph-name="uni1E6F" unicode="&#x1e6f;" horiz-adv-x="301" 
d="M85 116v224h-65v53h65v134l74 29v-163h104v-53h-104v-220q0 -37 12 -52t41 -15h60v-53h-73q-114 0 -114 116zM86 -81v45h210v-45h-210z" />
    <glyph glyph-name="u" unicode="u" horiz-adv-x="510" 
d="M499 53v-53h-144l-2 48q-72 -58 -145 -58q-66 0 -98.5 37t-32.5 95v218h-66v53h140v-263q0 -38 18.5 -59.5t55.5 -21.5q68 0 128 55v236h-71v53h144v-340h73z" />
    <glyph glyph-name="uacute" unicode="&#xfa;" horiz-adv-x="510" 
d="M499 53v-53h-144l-2 48q-72 -58 -145 -58q-66 0 -98.5 37t-32.5 95v218h-66v53h140v-263q0 -38 18.5 -59.5t55.5 -21.5q68 0 128 55v236h-71v53h144v-340h73zM216 477l53 145h84l-90 -145h-47z" />
    <glyph glyph-name="ubreve" unicode="&#x16d;" horiz-adv-x="510" 
d="M499 53v-53h-144l-2 48q-72 -58 -145 -58q-66 0 -98.5 37t-32.5 95v218h-66v53h140v-263q0 -38 18.5 -59.5t55.5 -21.5q68 0 128 55v236h-71v53h144v-340h73zM163.5 477q-29.5 27 -34.5 73h49q11 -55 61 -55q23 0 39.5 14.5t20.5 40.5h50q-5 -47 -35 -73.5t-77 -26.5
q-44 0 -73.5 27z" />
    <glyph glyph-name="uni01D4" unicode="&#x1d4;" horiz-adv-x="510" 
d="M499 53v-53h-144l-2 48q-72 -58 -145 -58q-66 0 -98.5 37t-32.5 95v218h-66v53h140v-263q0 -38 18.5 -59.5t55.5 -21.5q68 0 128 55v236h-71v53h144v-340h73zM204 448l-81 151h53l64 -109l62 109h52l-79 -151h-71z" />
    <glyph glyph-name="ucircumflex" unicode="&#xfb;" horiz-adv-x="510" 
d="M499 53v-53h-144l-2 48q-72 -58 -145 -58q-66 0 -98.5 37t-32.5 95v218h-66v53h140v-263q0 -38 18.5 -59.5t55.5 -21.5q68 0 128 55v236h-71v53h144v-340h73zM117 449l83 157h78l83 -157h-56l-66 125l-66 -125h-56z" />
    <glyph glyph-name="uni0215" unicode="&#x215;" horiz-adv-x="510" 
d="M499 53v-53h-144l-2 48q-72 -58 -145 -58q-66 0 -98.5 37t-32.5 95v218h-66v53h140v-263q0 -38 18.5 -59.5t55.5 -21.5q68 0 128 55v236h-71v53h144v-340h73zM136 477l-94 152h84l57 -152h-47zM271 477l-93 152h84l56 -152h-47z" />
    <glyph glyph-name="udieresis" unicode="&#xfc;" horiz-adv-x="510" 
d="M499 53v-53h-144l-2 48q-72 -58 -145 -58q-66 0 -98.5 37t-32.5 95v218h-66v53h140v-263q0 -38 18.5 -59.5t55.5 -21.5q68 0 128 55v236h-71v53h144v-340h73zM110.5 469q-12.5 12 -12.5 31t12.5 31t32.5 12t32.5 -12t12.5 -31t-12.5 -31t-32.5 -12t-32.5 12zM303 468.5
q-12 11.5 -12 31.5t12 31.5t32 11.5t32.5 -12t12.5 -31t-12.5 -31t-32.5 -12t-32 11.5z" />
    <glyph glyph-name="uni1EE5" unicode="&#x1ee5;" horiz-adv-x="510" 
d="M499 53v-53h-144l-2 48q-72 -58 -145 -58q-66 0 -98.5 37t-32.5 95v218h-66v53h140v-263q0 -38 18.5 -59.5t55.5 -21.5q68 0 128 55v236h-71v53h144v-340h73zM203 -126.5q-14 13.5 -14 31.5q0 19 13.5 32t34.5 13t34 -12t13 -33q1 -18 -12 -31.5t-35 -13.5
q-20 0 -34 13.5z" />
    <glyph glyph-name="ugrave" unicode="&#xf9;" horiz-adv-x="510" 
d="M499 53v-53h-144l-2 48q-72 -58 -145 -58q-66 0 -98.5 37t-32.5 95v218h-66v53h140v-263q0 -38 18.5 -59.5t55.5 -21.5q68 0 128 55v236h-71v53h144v-340h73zM215 477l-90 145h84l53 -145h-47z" />
    <glyph glyph-name="uni1EE7" unicode="&#x1ee7;" horiz-adv-x="510" 
d="M499 53v-53h-144l-2 48q-72 -58 -145 -58q-66 0 -98.5 37t-32.5 95v218h-66v53h140v-263q0 -38 18.5 -59.5t55.5 -21.5q68 0 128 55v236h-71v53h144v-340h73zM225 480q34 11 34 36q0 13 -9.5 20t-24.5 7q-20 0 -43 -13l-15 42q30 17 63 17q36 0 59 -20t23 -51
q0 -62 -73 -82z" />
    <glyph glyph-name="uhorn" unicode="&#x1b0;" horiz-adv-x="510" 
d="M499 53v-53h-144l-2 48q-72 -58 -145 -58q-66 0 -98.5 37t-32.5 95v218h-66v53h140v-263q0 -38 18.5 -59.5t55.5 -21.5q68 0 128 55v236h-71v53h63q30 0 49 16.5t22 51.5h81q-4 -36 -22.5 -62t-48.5 -40v-306h73z" />
    <glyph glyph-name="uni1EE9" unicode="&#x1ee9;" horiz-adv-x="510" 
d="M499 53v-53h-144l-2 48q-72 -58 -145 -58q-66 0 -98.5 37t-32.5 95v218h-66v53h140v-263q0 -38 18.5 -59.5t55.5 -21.5q68 0 128 55v236h-71v53h63q30 0 49 16.5t22 51.5h81q-4 -36 -22.5 -62t-48.5 -40v-306h73zM216 477l53 145h84l-90 -145h-47z" />
    <glyph glyph-name="uni1EF1" unicode="&#x1ef1;" horiz-adv-x="510" 
d="M499 53v-53h-144l-2 48q-72 -58 -145 -58q-66 0 -98.5 37t-32.5 95v218h-66v53h140v-263q0 -38 18.5 -59.5t55.5 -21.5q68 0 128 55v236h-71v53h63q30 0 49 16.5t22 51.5h81q-4 -36 -22.5 -62t-48.5 -40v-306h73zM203 -126.5q-14 13.5 -14 31.5q0 19 13.5 32t34.5 13
t34 -12t13 -33q1 -18 -12 -31.5t-35 -13.5q-20 0 -34 13.5z" />
    <glyph glyph-name="uni1EEB" unicode="&#x1eeb;" horiz-adv-x="510" 
d="M499 53v-53h-144l-2 48q-72 -58 -145 -58q-66 0 -98.5 37t-32.5 95v218h-66v53h140v-263q0 -38 18.5 -59.5t55.5 -21.5q68 0 128 55v236h-71v53h63q30 0 49 16.5t22 51.5h81q-4 -36 -22.5 -62t-48.5 -40v-306h73zM215 477l-90 145h84l53 -145h-47z" />
    <glyph glyph-name="uni1EED" unicode="&#x1eed;" horiz-adv-x="510" 
d="M499 53v-53h-144l-2 48q-72 -58 -145 -58q-66 0 -98.5 37t-32.5 95v218h-66v53h140v-263q0 -38 18.5 -59.5t55.5 -21.5q68 0 128 55v236h-71v53h63q30 0 49 16.5t22 51.5h81q-4 -36 -22.5 -62t-48.5 -40v-306h73zM225 480q34 11 34 36q0 13 -9.5 20t-24.5 7
q-20 0 -43 -13l-15 42q30 17 63 17q36 0 59 -20t23 -51q0 -62 -73 -82z" />
    <glyph glyph-name="uni1EEF" unicode="&#x1eef;" horiz-adv-x="510" 
d="M499 53v-53h-144l-2 48q-72 -58 -145 -58q-66 0 -98.5 37t-32.5 95v218h-66v53h140v-263q0 -38 18.5 -59.5t55.5 -21.5q68 0 128 55v236h-71v53h63q30 0 49 16.5t22 51.5h81q-4 -36 -22.5 -62t-48.5 -40v-306h73zM272.5 474.5q-15.5 4.5 -29 9t-17.5 6.5q-40 17 -57 17
q-13 0 -20.5 -7.5t-10.5 -25.5h-31q4 44 23 66t50 22q22 0 70 -20q42 -17 56 -17q15 0 24 8t13 27h29q-3 -41 -20 -65.5t-50 -24.5q-14 0 -29.5 4.5z" />
    <glyph glyph-name="uhungarumlaut" unicode="&#x171;" horiz-adv-x="510" 
d="M499 53v-53h-144l-2 48q-72 -58 -145 -58q-66 0 -98.5 37t-32.5 95v218h-66v53h140v-263q0 -38 18.5 -59.5t55.5 -21.5q68 0 128 55v236h-71v53h144v-340h73zM150 477l56 152h84l-94 -152h-46zM285 477l56 152h84l-93 -152h-47z" />
    <glyph glyph-name="uni0217" unicode="&#x217;" horiz-adv-x="510" 
d="M499 53v-53h-144l-2 48q-72 -58 -145 -58q-66 0 -98.5 37t-32.5 95v218h-66v53h140v-263q0 -38 18.5 -59.5t55.5 -21.5q68 0 128 55v236h-71v53h144v-340h73zM158.5 528q31.5 29 80.5 29q48 0 79.5 -29t36.5 -78h-59q-5 25 -19.5 38t-37.5 13q-49 0 -58 -51h-59
q5 49 36.5 78z" />
    <glyph glyph-name="umacron" unicode="&#x16b;" horiz-adv-x="510" 
d="M499 53v-53h-144l-2 48q-72 -58 -145 -58q-66 0 -98.5 37t-32.5 95v218h-66v53h140v-263q0 -38 18.5 -59.5t55.5 -21.5q68 0 128 55v236h-71v53h144v-340h73zM134 473v45h210v-45h-210z" />
    <glyph glyph-name="uni1E7B" unicode="&#x1e7b;" horiz-adv-x="510" 
d="M499 53v-53h-144l-2 48q-72 -58 -145 -58q-66 0 -98.5 37t-32.5 95v218h-66v53h140v-263q0 -38 18.5 -59.5t55.5 -21.5q68 0 128 55v236h-71v53h144v-340h73zM134 473v45h210v-45h-210zM110.5 583q-12.5 12 -12.5 31t12.5 31t32.5 12t32.5 -12t12.5 -31t-12.5 -31
t-32.5 -12t-32.5 12zM303 582.5q-12 11.5 -12 31.5t12 31.5t32 11.5t32.5 -12t12.5 -31t-12.5 -31t-32.5 -12t-32 11.5z" />
    <glyph glyph-name="uogonek" unicode="&#x173;" horiz-adv-x="510" 
d="M505 -100v-40q-17 -10 -31 -14.5t-31 -4.5q-34 0 -57 20.5t-23 53.5q0 22 10.5 42t32.5 43h-51l-2 48q-72 -58 -145 -58q-66 0 -98.5 37t-32.5 95v218h-66v53h140v-263q0 -38 18.5 -59.5t55.5 -21.5q68 0 128 55v236h-71v53h144v-340h73v-53h-49q-36 -39 -36 -70
q0 -21 13 -32t34 -11q22 0 44 13z" />
    <glyph glyph-name="uring" unicode="&#x16f;" horiz-adv-x="510" 
d="M499 53v-53h-144l-2 48q-72 -58 -145 -58q-66 0 -98.5 37t-32.5 95v218h-66v53h140v-263q0 -38 18.5 -59.5t55.5 -21.5q68 0 128 55v236h-71v53h144v-340h73zM181.5 449.5q-21.5 21.5 -21.5 53.5t21 52.5t58 20.5t58 -20.5t21 -52.5t-21.5 -53.5t-57.5 -21.5t-57.5 21.5z
M271 471.5q12 12.5 12 31.5t-12 31t-32 12q-21 0 -33 -12t-12 -31t12.5 -31.5t32.5 -12.5t32 12.5z" />
    <glyph glyph-name="utilde" unicode="&#x169;" horiz-adv-x="510" 
d="M499 53v-53h-144l-2 48q-72 -58 -145 -58q-66 0 -98.5 37t-32.5 95v218h-66v53h140v-263q0 -38 18.5 -59.5t55.5 -21.5q68 0 128 55v236h-71v53h144v-340h73zM272.5 474.5q-15.5 4.5 -29 9t-17.5 6.5q-40 17 -57 17q-13 0 -20.5 -7.5t-10.5 -25.5h-31q4 44 23 66t50 22
q22 0 70 -20q42 -17 56 -17q15 0 24 8t13 27h29q-3 -41 -20 -65.5t-50 -24.5q-14 0 -29.5 4.5z" />
    <glyph glyph-name="uni1E79" unicode="&#x1e79;" horiz-adv-x="510" 
d="M499 53v-53h-144l-2 48q-72 -58 -145 -58q-66 0 -98.5 37t-32.5 95v218h-66v53h140v-263q0 -38 18.5 -59.5t55.5 -21.5q68 0 128 55v236h-71v53h144v-340h73zM272.5 474.5q-15.5 4.5 -29 9t-17.5 6.5q-40 17 -57 17q-13 0 -20.5 -7.5t-10.5 -25.5h-31q4 44 23 66t50 22
q22 0 70 -20q42 -17 56 -17q15 0 24 8t13 27h29q-3 -41 -20 -65.5t-50 -24.5q-14 0 -29.5 4.5zM217 626l53 145h84l-90 -145h-47z" />
    <glyph glyph-name="v" unicode="v" horiz-adv-x="514" 
d="M224 0l-150 340h-67v53h210v-53h-64l110 -264l109 264h-63v53h198v-53h-63l-153 -340h-67z" />
    <glyph glyph-name="w" unicode="w" horiz-adv-x="715" 
d="M185 0l-124 340h-52v53h178v-53h-54l93 -267l93 267h-56v53h193v-53h-57l97 -268l86 268h-55v53h177v-53h-55l-118 -340h-72l-101 279l-101 -279h-72z" />
    <glyph glyph-name="wacute" unicode="&#x1e83;" horiz-adv-x="715" 
d="M185 0l-124 340h-52v53h178v-53h-54l93 -267l93 267h-56v53h193v-53h-57l97 -268l86 268h-55v53h177v-53h-55l-118 -340h-72l-101 279l-101 -279h-72zM337 477l53 145h84l-90 -145h-47z" />
    <glyph glyph-name="wcircumflex" unicode="&#x175;" horiz-adv-x="715" 
d="M185 0l-124 340h-52v53h178v-53h-54l93 -267l93 267h-56v53h193v-53h-57l97 -268l86 268h-55v53h177v-53h-55l-118 -340h-72l-101 279l-101 -279h-72zM238 449l83 157h78l83 -157h-56l-66 125l-66 -125h-56z" />
    <glyph glyph-name="wdieresis" unicode="&#x1e85;" horiz-adv-x="715" 
d="M185 0l-124 340h-52v53h178v-53h-54l93 -267l93 267h-56v53h193v-53h-57l97 -268l86 268h-55v53h177v-53h-55l-118 -340h-72l-101 279l-101 -279h-72zM231.5 469q-12.5 12 -12.5 31t12.5 31t32.5 12t32.5 -12t12.5 -31t-12.5 -31t-32.5 -12t-32.5 12zM424 468.5
q-12 11.5 -12 31.5t12 31.5t32 11.5t32.5 -12t12.5 -31t-12.5 -31t-32.5 -12t-32 11.5z" />
    <glyph glyph-name="wgrave" unicode="&#x1e81;" horiz-adv-x="715" 
d="M185 0l-124 340h-52v53h178v-53h-54l93 -267l93 267h-56v53h193v-53h-57l97 -268l86 268h-55v53h177v-53h-55l-118 -340h-72l-101 279l-101 -279h-72zM336 477l-90 145h84l53 -145h-47z" />
    <glyph glyph-name="x" unicode="x" horiz-adv-x="504" 
d="M24 0v53h59l131 148l-124 139h-64v53h198v-53h-59l90 -104l90 104h-59v53h197v-53h-70l-121 -136l134 -151h59v-53h-201v53h67l-101 112l-97 -112h61v-53h-190z" />
    <glyph glyph-name="y" unicode="y" horiz-adv-x="519" 
d="M101 -99h45q28 0 43 4t26.5 18t21.5 44l21 58h-31l-146 315h-73v53h206v-53h-58l118 -267l105 267h-68v53h205v-53h-64l-146 -363q-22 -57 -36.5 -82.5t-41.5 -39.5t-76 -14h-51v60z" />
    <glyph glyph-name="yacute" unicode="&#xfd;" horiz-adv-x="519" 
d="M101 -99h45q28 0 43 4t26.5 18t21.5 44l21 58h-31l-146 315h-73v53h206v-53h-58l118 -267l105 267h-68v53h205v-53h-64l-146 -363q-22 -57 -36.5 -82.5t-41.5 -39.5t-76 -14h-51v60zM240 477l53 145h84l-90 -145h-47z" />
    <glyph glyph-name="ycircumflex" unicode="&#x177;" horiz-adv-x="519" 
d="M101 -99h45q28 0 43 4t26.5 18t21.5 44l21 58h-31l-146 315h-73v53h206v-53h-58l118 -267l105 267h-68v53h205v-53h-64l-146 -363q-22 -57 -36.5 -82.5t-41.5 -39.5t-76 -14h-51v60zM141 449l83 157h78l83 -157h-56l-66 125l-66 -125h-56z" />
    <glyph glyph-name="ydieresis" unicode="&#xff;" horiz-adv-x="519" 
d="M101 -99h45q28 0 43 4t26.5 18t21.5 44l21 58h-31l-146 315h-73v53h206v-53h-58l118 -267l105 267h-68v53h205v-53h-64l-146 -363q-22 -57 -36.5 -82.5t-41.5 -39.5t-76 -14h-51v60zM134.5 469q-12.5 12 -12.5 31t12.5 31t32.5 12t32.5 -12t12.5 -31t-12.5 -31t-32.5 -12
t-32.5 12zM327 468.5q-12 11.5 -12 31.5t12 31.5t32 11.5t32.5 -12t12.5 -31t-12.5 -31t-32.5 -12t-32 11.5z" />
    <glyph glyph-name="uni1E8F" unicode="&#x1e8f;" horiz-adv-x="519" 
d="M101 -99h45q28 0 43 4t26.5 18t21.5 44l21 58h-31l-146 315h-73v53h206v-53h-58l118 -267l105 267h-68v53h205v-53h-64l-146 -363q-22 -57 -36.5 -82.5t-41.5 -39.5t-76 -14h-51v60zM229 473.5q-14 13.5 -14 31.5q0 19 13.5 32t34.5 13t34 -12t13 -33q1 -18 -12 -31.5
t-35 -13.5q-20 0 -34 13.5z" />
    <glyph glyph-name="uni1EF5" unicode="&#x1ef5;" horiz-adv-x="519" 
d="M101 -99h45q28 0 43 4t26.5 18t21.5 44l21 58h-31l-146 315h-73v53h206v-53h-58l118 -267l105 267h-68v53h205v-53h-64l-146 -363q-22 -57 -36.5 -82.5t-41.5 -39.5t-76 -14h-51v60zM346 -126.5q-14 13.5 -14 31.5q0 19 13.5 32t34.5 13t34 -12t13 -33q1 -18 -12 -31.5
t-35 -13.5q-20 0 -34 13.5z" />
    <glyph glyph-name="ygrave" unicode="&#x1ef3;" horiz-adv-x="519" 
d="M101 -99h45q28 0 43 4t26.5 18t21.5 44l21 58h-31l-146 315h-73v53h206v-53h-58l118 -267l105 267h-68v53h205v-53h-64l-146 -363q-22 -57 -36.5 -82.5t-41.5 -39.5t-76 -14h-51v60zM239 477l-90 145h84l53 -145h-47z" />
    <glyph glyph-name="uni1EF7" unicode="&#x1ef7;" horiz-adv-x="519" 
d="M101 -99h45q28 0 43 4t26.5 18t21.5 44l21 58h-31l-146 315h-73v53h206v-53h-58l118 -267l105 267h-68v53h205v-53h-64l-146 -363q-22 -57 -36.5 -82.5t-41.5 -39.5t-76 -14h-51v60zM249 480q34 11 34 36q0 13 -9.5 20t-24.5 7q-20 0 -43 -13l-15 42q30 17 63 17
q36 0 59 -20t23 -51q0 -62 -73 -82z" />
    <glyph glyph-name="uni0233" unicode="&#x233;" horiz-adv-x="519" 
d="M101 -99h45q28 0 43 4t26.5 18t21.5 44l21 58h-31l-146 315h-73v53h206v-53h-58l118 -267l105 267h-68v53h205v-53h-64l-146 -363q-22 -57 -36.5 -82.5t-41.5 -39.5t-76 -14h-51v60zM158 473v45h210v-45h-210z" />
    <glyph glyph-name="uni1EF9" unicode="&#x1ef9;" horiz-adv-x="519" 
d="M101 -99h45q28 0 43 4t26.5 18t21.5 44l21 58h-31l-146 315h-73v53h206v-53h-58l118 -267l105 267h-68v53h205v-53h-64l-146 -363q-22 -57 -36.5 -82.5t-41.5 -39.5t-76 -14h-51v60zM296.5 474.5q-15.5 4.5 -29 9t-17.5 6.5q-40 17 -57 17q-13 0 -20.5 -7.5t-10.5 -25.5
h-31q4 44 23 66t50 22q22 0 70 -20q42 -17 56 -17q15 0 24 8t13 27h29q-3 -41 -20 -65.5t-50 -24.5q-14 0 -29.5 4.5z" />
    <glyph glyph-name="z" unicode="z" horiz-adv-x="438" 
d="M51 0v52l253 290h-192v-81h-56v132h334v-55l-253 -288h201v90h58v-140h-345z" />
    <glyph glyph-name="zacute" unicode="&#x17a;" horiz-adv-x="438" 
d="M51 0v52l253 290h-192v-81h-56v132h334v-55l-253 -288h201v90h58v-140h-345zM205 477l53 145h84l-90 -145h-47z" />
    <glyph glyph-name="zcaron" unicode="&#x17e;" horiz-adv-x="438" 
d="M51 0v52l253 290h-192v-81h-56v132h334v-55l-253 -288h201v90h58v-140h-345zM193 448l-81 151h53l64 -109l62 109h52l-79 -151h-71z" />
    <glyph glyph-name="zdotaccent" unicode="&#x17c;" horiz-adv-x="438" 
d="M51 0v52l253 290h-192v-81h-56v132h334v-55l-253 -288h201v90h58v-140h-345zM194 473.5q-14 13.5 -14 31.5q0 19 13.5 32t34.5 13t34 -12t13 -33q1 -18 -12 -31.5t-35 -13.5q-20 0 -34 13.5z" />
    <glyph glyph-name="uni1E93" unicode="&#x1e93;" horiz-adv-x="438" 
d="M51 0v52l253 290h-192v-81h-56v132h334v-55l-253 -288h201v90h58v-140h-345zM190 -126.5q-14 13.5 -14 31.5q0 19 13.5 32t34.5 13t34 -12t13 -33q1 -18 -12 -31.5t-35 -13.5q-20 0 -34 13.5z" />
    <glyph glyph-name="iacute_j.loclNLD" horiz-adv-x="562" 
d="M22 0v53h76v287h-75v53h148v-340h71v-53h-220zM274 -94h42q40 0 52.5 18.5t12.5 65.5v350h-82v53h156v-382q0 -55 -7.5 -88t-37.5 -54t-93 -21h-43v58zM364 477l53 145h84l-90 -145h-47zM100 477l53 145h84l-90 -145h-47z" />
    <glyph glyph-name="ordfeminine" unicode="&#xaa;" horiz-adv-x="363" 
d="M49.5 271q-29.5 27 -29.5 66q0 51 36.5 74.5t95.5 23.5q38 0 81 -8v31q0 34 -19 51t-55 17q-24 0 -54 -8t-53 -23l-20 40q24 19 59 28.5t71 9.5q62 0 97.5 -30t35.5 -80v-168h51v-44h-108l-3 29q-42 -36 -106 -36q-50 0 -79.5 27zM188.5 296q25.5 9 44.5 25v68
q-38 8 -75 8q-78 0 -78 -58q0 -23 15.5 -37.5t42.5 -14.5q25 0 50.5 9z" />
    <glyph glyph-name="ordmasculine" unicode="&#xba;" horiz-adv-x="398" 
d="M77.5 289.5q-47.5 45.5 -47.5 120.5q0 73 47.5 118t121.5 45t121.5 -45t47.5 -118q0 -75 -48 -120.5t-122 -45.5q-73 0 -120.5 45.5zM273.5 325.5q29.5 31.5 29.5 84.5q0 52 -29.5 82.5t-75.5 30.5q-44 0 -73.5 -31t-29.5 -83q0 -53 29.5 -84t74.5 -31t74.5 31.5z" />
    <glyph glyph-name="uni0394" unicode="&#x394;" horiz-adv-x="570" 
d="M41 0v33l207 530h69l212 -530v-33h-488zM111 55h325l-164 429z" />
    <glyph glyph-name="Sigma" unicode="&#x3a3;" horiz-adv-x="455" 
d="M42 0v39l208 239l-200 247v38h365v-58h-262l196 -227l-203 -218h285v-60h-389z" />
    <glyph glyph-name="uni03A9" unicode="&#x3a9;" horiz-adv-x="696" 
d="M63 53h145q-73 44 -110.5 111t-37.5 139q0 71 35 133t100 99.5t153 37.5t153.5 -37.5t100 -99.5t34.5 -132q0 -73 -37.5 -140t-110.5 -111h145v-53h-235v51q76 37 115.5 106t39.5 145q0 57 -23.5 104.5t-70 76.5t-111.5 29t-111.5 -29t-70 -76.5t-23.5 -104.5
q0 -76 39.5 -145t115.5 -106v-51h-235v53z" />
    <glyph glyph-name="uni03BC" unicode="&#x3bc;" horiz-adv-x="510" 
d="M499 53v-53h-144l-2 48q-72 -58 -145 -58q-33 0 -57 9v-134h-74v475h-66v53h140v-263q0 -38 18.5 -59.5t55.5 -21.5q68 0 128 55v236h-71v53h144v-340h73z" />
    <glyph glyph-name="pi" unicode="&#x3c0;" horiz-adv-x="568" 
d="M361 20q-24 28 -24 82q0 68 44 216h-136l-16 -200q-4 -43 -18.5 -68.5t-47.5 -37.5t-91 -12v32q75 0 93 103l27 183h-39q-42 0 -47 -54h-37q0 56 26 92.5t80 36.5h343v-75h-95q-19 -146 -19 -205q0 -71 60 -71q20 0 46 8v-38q-34 -20 -72 -20q-53 0 -77 28z" />
    <glyph glyph-name="zero" unicode="0" horiz-adv-x="536" 
d="M112.5 64.5q-52.5 75.5 -52.5 219.5q0 137 53 213t155 76t155 -76t53 -213q0 -144 -52.5 -219.5t-155.5 -75.5t-155.5 75.5zM367.5 104q34.5 62 34.5 180q0 115 -34.5 175.5t-99.5 60.5t-99.5 -60.5t-34.5 -175.5q0 -118 34.5 -180t99.5 -62t99.5 62z" />
    <glyph glyph-name="one" unicode="1" horiz-adv-x="312" 
d="M47 0v53h84v445l-85 -14l-2 53l159 26v-510h79v-53h-235z" />
    <glyph glyph-name="two" unicode="2" horiz-adv-x="457" 
d="M411 0h-371v50l162 164q52 53 78 83.5t39 59.5t13 64q0 43 -25.5 71t-76.5 28q-52 0 -81.5 -29t-29.5 -83q0 -25 8 -62h-68q-9 32 -9 63q0 75 51.5 119.5t138.5 44.5q77 0 121.5 -40t44.5 -104q0 -41 -18 -77.5t-49 -72t-92 -96.5l-126 -127h223v107h66z" />
    <glyph glyph-name="three" unicode="3" horiz-adv-x="478" 
d="M404.5 247q33.5 -39 33.5 -96q0 -75 -53.5 -118t-146.5 -43q-72 0 -124 30.5t-84 86.5l59 33q52 -92 152 -92q58 0 90.5 27.5t32.5 75.5q0 59 -43 87t-134 28v57q169 0 169 104q0 40 -29.5 64t-83.5 24q-52 0 -89 -25.5t-53 -71.5l-60 28q25 60 78 93.5t125 33.5
q83 0 132.5 -39t49.5 -104q0 -48 -30.5 -84t-79.5 -49q55 -11 88.5 -50z" />
    <glyph glyph-name="four" unicode="4" horiz-adv-x="453" 
d="M179 0v53h88v95h-260l-7 50l266 365h69v-362h88v-53h-88v-95h68v-53h-224zM67 201h200v273z" />
    <glyph glyph-name="five" unicode="5" horiz-adv-x="491" 
d="M403 307.5q49 -50.5 49 -133.5q0 -86 -56 -135.5t-151 -49.5q-121 0 -205 94l47 48q68 -80 157 -80q63 0 98.5 33t35.5 88q0 56 -33.5 89t-92.5 33q-37 0 -69.5 -14t-57.5 -39l-59 24l7 298h346v-144h-70v85h-213l-6 -190q27 21 62.5 32.5t72.5 11.5q89 0 138 -50.5z" />
    <glyph glyph-name="six" unicode="6" horiz-adv-x="460" 
d="M341 334.5q39 -22.5 62 -63t23 -92.5q0 -54 -24.5 -97t-68.5 -67.5t-98 -24.5q-57 0 -101.5 23.5t-70 66.5t-25.5 98q0 41 8.5 74t29 71t62.5 102l123 186l59 -40l-163 -240q42 26 99 26q46 0 85 -22.5zM324 83q33 36 33 94q0 57 -31.5 91t-85.5 34t-91 -34.5t-37 -93.5
q0 -55 32 -91t91 -36q56 0 89 36z" />
    <glyph glyph-name="seven" unicode="7" horiz-adv-x="434" 
d="M128 0l189 507h-233v-96h-72v152h382v-51l-194 -512h-72z" />
    <glyph glyph-name="eight" unicode="8" horiz-adv-x="464" 
d="M83 34q-53 45 -53 116q0 51 29 88.5t82 55.5q-49 21 -71 53.5t-22 78.5q0 66 50 106.5t134 40.5q85 0 135 -40t50 -107q0 -98 -95 -133q55 -15 83.5 -52t28.5 -90q0 -72 -53.5 -117t-147.5 -45q-97 0 -150 45zM318.5 350q22.5 29 22.5 70q0 44 -28.5 70.5t-80.5 26.5
q-51 0 -79.5 -26t-28.5 -71q0 -48 38 -73t112 -34q22 8 44.5 37zM321 75q33 29 33 78q0 54 -40 79.5t-127 39.5q-17 -4 -35 -20.5t-30 -42t-12 -55.5q0 -49 33 -78.5t90 -29.5q55 0 88 29z" />
    <glyph glyph-name="nine" unicode="9" horiz-adv-x="460" 
d="M326.5 550.5q44.5 -23.5 70 -66.5t25.5 -98q0 -41 -8.5 -74t-29 -71t-62.5 -102l-123 -186l-59 40l163 240q-42 -26 -99 -26q-46 0 -85 22.5t-62 63t-23 92.5q0 54 24.5 97t68.5 67.5t98 24.5q57 0 101.5 -23.5zM311 296.5q37 34.5 37 93.5q0 55 -32 91t-91 36
q-56 0 -89 -36t-33 -94q0 -57 31.5 -91t85.5 -34t91 34.5z" />
    <glyph glyph-name="uni00B9" unicode="&#xb9;" horiz-adv-x="214" 
d="M20 298v40h60v266l-58 -8l-1 39l113 17v-314h60v-40h-174z" />
    <glyph glyph-name="uni00B2" unicode="&#xb2;" horiz-adv-x="295" 
d="M269 404v-106h-245v37l97 90q47 44 67.5 72.5t20.5 58.5q0 28 -16.5 45t-50.5 17t-53 -21t-19 -59q0 -18 6 -41h-48q-8 26 -8 47q0 53 32.5 86.5t89.5 33.5q56 0 88.5 -29t32.5 -77q0 -43 -25 -77.5t-82 -86.5l-58 -53h125v63h46z" />
    <glyph glyph-name="uni00B3" unicode="&#xb3;" horiz-adv-x="303" 
d="M264 447q19 -25 19 -61q0 -46 -35.5 -73.5t-94.5 -27.5q-49 0 -85 22t-48 59l42 24q12 -28 36 -43.5t57 -15.5t52.5 17t19.5 47q0 32 -25.5 47.5t-81.5 15.5l-1 43q51 0 74 15t23 43q0 27 -18 43t-48 16t-51.5 -15t-34.5 -39l-43 22q16 36 50.5 57t79.5 21
q54 0 86.5 -26.5t32.5 -71.5q0 -29 -16 -50.5t-47 -32.5q38 -11 57 -36z" />
    <glyph glyph-name="uni2074" unicode="&#x2074;" horiz-adv-x="337" 
d="M137 298v40h56v51h-168l-5 35l172 228h51v-224h64v-39h-64v-51h56v-40h-162zM77 428h116v155z" />
    <glyph glyph-name="fraction" unicode="&#x2044;" horiz-adv-x="124" 
d="M-150 -1l373 568h51l-372 -568h-52z" />
    <glyph glyph-name="onehalf" unicode="&#xbd;" horiz-adv-x="708" 
d="M40 219v40h60v266l-58 -8l-1 39l113 17v-314h60v-40h-174zM117 -1l373 568h51l-372 -568h-52zM668 106v-106h-245v37l97 90q47 44 67.5 72.5t20.5 58.5q0 28 -16.5 45t-50.5 17t-53 -21t-19 -59q0 -18 6 -41h-48q-8 26 -8 47q0 53 32.5 86.5t89.5 33.5q56 0 88.5 -29
t32.5 -77q0 -43 -25 -77.5t-82 -86.5l-58 -53h125v63h46z" />
    <glyph glyph-name="onequarter" unicode="&#xbc;" horiz-adv-x="677" 
d="M40 220v40h60v266l-58 -8l-1 39l113 17v-314h60v-40h-174zM118 -1l373 568h51l-372 -568h-52zM467 0v40h56v51h-168l-5 35l172 228h51v-224h64v-39h-64v-51h56v-40h-162zM407 130h116v155z" />
    <glyph glyph-name="threequarters" unicode="&#xbe;" horiz-adv-x="751" 
d="M284 367q19 -25 19 -61q0 -46 -35.5 -73.5t-94.5 -27.5q-49 0 -85 22t-48 59l42 24q12 -28 36 -43.5t57 -15.5t52.5 17t19.5 47q0 32 -25.5 47.5t-81.5 15.5l-1 43q51 0 74 15t23 43q0 27 -18 43t-48 16t-51.5 -15t-34.5 -39l-43 22q16 36 50.5 57t79.5 21
q54 0 86.5 -26.5t32.5 -71.5q0 -29 -16 -50.5t-47 -32.5q38 -11 57 -36zM195 -1l373 568h51l-372 -568h-52zM541 0v40h56v51h-168l-5 35l172 228h51v-224h64v-39h-64v-51h56v-40h-162zM481 130h116v155z" />
    <glyph glyph-name="asterisk" unicode="*" horiz-adv-x="456" 
d="M134 201l-52 38l126 140l-183 43l19 60l173 -81l-21 188h64l-21 -188l173 81l19 -60l-183 -43l126 -140l-52 -38l-94 164z" />
    <glyph glyph-name="backslash" unicode="\" horiz-adv-x="315" 
d="M254 -140l-230 733h61l230 -733h-61z" />
    <glyph glyph-name="periodcentered" unicode="&#xb7;" horiz-adv-x="228" 
d="M75.5 234q-15.5 15 -15.5 36t15.5 35.5t38.5 14.5t38.5 -14.5t15.5 -35.5t-15.5 -36t-38.5 -15t-38.5 15z" />
    <glyph glyph-name="bullet" unicode="&#x2022;" horiz-adv-x="268" 
d="M64 178.5q-28 28.5 -28 65.5q0 39 28 66.5t70 27.5q44 0 71 -26t27 -68q0 -40 -27.5 -67t-70.5 -27q-42 0 -70 28.5z" />
    <glyph glyph-name="colon" unicode=":" horiz-adv-x="234" 
d="M60 0v94h94v-94h-94zM60 299v94h94v-94h-94z" />
    <glyph glyph-name="comma" unicode="," horiz-adv-x="241" 
d="M60 -78q31 5 42.5 21.5t11.5 56.5h-51v95h98v-80q0 -65 -24 -98t-77 -33v38z" />
    <glyph glyph-name="ellipsis" unicode="&#x2026;" horiz-adv-x="582" 
d="M60 0v94h94v-94h-94zM234 0v94h94v-94h-94zM408 0v94h94v-94h-94z" />
    <glyph glyph-name="exclam" unicode="!" horiz-adv-x="177" 
d="M59 153l-14 264v170h77v-170l-14 -264h-49zM45.5 8.5q-15.5 14.5 -15.5 35.5q0 22 15 36.5t38 14.5t38.5 -14.5t15.5 -36.5q0 -21 -15.5 -35.5t-38.5 -14.5q-22 0 -37.5 14.5z" />
    <glyph glyph-name="exclamdown" unicode="&#xa1;" horiz-adv-x="161" 
d="M125.5 428.5q15.5 -14.5 15.5 -35.5q0 -22 -15.5 -36.5t-38.5 -14.5t-38 14.5t-15 36.5q0 21 15.5 35.5t37.5 14.5q23 0 38.5 -14.5zM63 284h49l14 -264v-170h-77v170z" />
    <glyph glyph-name="numbersign" unicode="#" horiz-adv-x="553" 
d="M93 -4l23 176h-81v50h91l20 152h-101v51h111l23 166h59l-23 -166h161l23 166h60l-24 -166h85v-51h-94l-20 -152h104v-50h-114l-23 -176h-60l24 176h-162l-24 -176h-58zM185 222h161l20 152h-161z" />
    <glyph glyph-name="period" unicode="." horiz-adv-x="234" 
d="M60 0v94h94v-94h-94z" />
    <glyph glyph-name="question" unicode="?" horiz-adv-x="383" 
d="M134 158q0 36 9 62.5t24 47.5t46 55q33 37 46.5 65t13.5 63q0 40 -22 61.5t-58 21.5q-40 0 -62.5 -23.5t-24.5 -67.5h-84q4 71 52.5 110.5t117.5 39.5q76 0 122 -39t46 -101q0 -41 -20.5 -72.5t-68.5 -81.5q-37 -38 -48.5 -64.5t-11.5 -76.5v-6h-77v6zM133.5 7.5
q-15.5 14.5 -15.5 36.5t15.5 36.5t38.5 14.5t39 -14.5t16 -36.5t-16 -36.5t-39 -14.5t-38.5 14.5z" />
    <glyph glyph-name="questiondown" unicode="&#xbf;" horiz-adv-x="386" 
d="M254.5 425.5q15.5 -14.5 15.5 -36.5t-15.5 -36.5t-38.5 -14.5t-39 14.5t-16 36.5t16 36.5t39 14.5t38.5 -14.5zM254 275q0 -36 -9 -62.5t-24 -47.5t-46 -55q-33 -37 -46.5 -65t-13.5 -63q0 -40 22 -61.5t58 -21.5q40 0 62.5 23.5t24.5 67.5h84q-4 -71 -52.5 -110.5
t-117.5 -39.5q-76 0 -122 39t-46 101q0 41 20.5 72.5t68.5 81.5q37 38 48.5 64.5t11.5 76.5v6h77v-6z" />
    <glyph glyph-name="quotedbl" unicode="&#x22;" horiz-adv-x="309" 
d="M74 420l-20 210h81l-16 -210h-45zM194 420l-20 210h81l-16 -210h-45z" />
    <glyph glyph-name="quotesingle" unicode="'" horiz-adv-x="189" 
d="M74 420l-20 210h81l-16 -210h-45z" />
    <glyph glyph-name="semicolon" unicode=";" horiz-adv-x="241" 
d="M60 -78q31 5 42.5 21.5t11.5 56.5h-51v95h98v-80q0 -65 -24 -98t-77 -33v38zM60 299v94h94v-94h-94z" />
    <glyph glyph-name="slash" unicode="/" horiz-adv-x="323" 
d="M10 -140l280 733h63l-280 -733h-63z" />
    <glyph glyph-name="underscore" unicode="_" horiz-adv-x="431" 
d="M6 -79v41h419v-41h-419z" />
    <glyph glyph-name="braceleft" unicode="{" horiz-adv-x="283" 
d="M143 -44q-25 21 -30.5 57.5t-5.5 109.5q0 48 -5 74t-21 39.5t-50 13.5v56q33 0 49.5 14t21.5 40.5t5 73.5q0 71 5.5 107.5t30 58t78.5 21.5h37v-51q-39 0 -56.5 -6t-24 -23.5t-6.5 -56.5q0 -77 -4.5 -115t-18.5 -58.5t-45 -32.5q28 -12 42 -31t19.5 -54t5.5 -99
q0 -53 5 -73.5t22 -28t61 -7.5v-50h-36q-54 0 -79 21z" />
    <glyph glyph-name="braceright" unicode="}" horiz-adv-x="284" 
d="M43 -15q44 0 61 7t22 27.5t5 71.5q0 65 5.5 100.5t20 55t42.5 31.5q-31 12 -45.5 32.5t-19 58.5t-4.5 115q0 39 -6.5 56.5t-24 23.5t-56.5 6v51h37q54 0 78.5 -21.5t30 -57.5t5.5 -107q0 -48 5 -74.5t21.5 -40.5t49.5 -14v-56q-33 0 -49.5 -13.5t-21.5 -40t-5 -73.5
q0 -73 -5.5 -109.5t-30 -57.5t-78.5 -21h-37v50z" />
    <glyph glyph-name="bracketleft" unicode="[" horiz-adv-x="282" 
d="M83 -85v692h163v-56h-83v-580h83v-56h-163z" />
    <glyph glyph-name="bracketright" unicode="]" horiz-adv-x="281" 
d="M35 -85v56h83v580h-83v56h163v-692h-163z" />
    <glyph glyph-name="parenleft" unicode="(" horiz-adv-x="277" 
d="M97.5 65.5q-51.5 87.5 -51.5 190.5q0 104 52 191.5t147 125.5l1 -48q-53 -27 -82 -101.5t-29 -165.5q0 -92 29 -167t82 -102l-1 -48q-96 37 -147.5 124.5z" />
    <glyph glyph-name="parenright" unicode=")" horiz-adv-x="277" 
d="M55 -11q53 27 82 102.5t29 166.5t-29 165.5t-82 101.5v48q96 -37 148 -125t52 -192q0 -103 -52 -190.5t-148 -124.5v48z" />
    <glyph glyph-name="emdash" unicode="&#x2014;" horiz-adv-x="744" 
d="M0 206v56h744v-56h-744z" />
    <glyph glyph-name="endash" unicode="&#x2013;" horiz-adv-x="637" 
d="M0 206v56h637v-56h-637z" />
    <glyph glyph-name="figuredash" unicode="&#x2012;" horiz-adv-x="524" 
d="M54 206v56h416v-56h-416z" />
    <glyph glyph-name="uni2015" unicode="&#x2015;" horiz-adv-x="589" 
d="M0 269h589v-48h-589v48z" />
    <glyph glyph-name="hyphen" unicode="-" horiz-adv-x="347" 
d="M54 206v56h239v-56h-239z" />
    <glyph glyph-name="uni2010" unicode="&#x2010;" horiz-adv-x="347" 
d="M54 206v56h239v-56h-239z" />
    <glyph glyph-name="uni00AD" unicode="&#xad;" horiz-adv-x="347" 
d="M54 206v56h239v-56h-239z" />
    <glyph glyph-name="guillemotleft" unicode="&#xab;" horiz-adv-x="435" 
d="M164 94l-145 195l145 195h54l-102 -194l102 -196h-54zM350 94l-146 195l146 195h53l-102 -194l102 -196h-53z" />
    <glyph glyph-name="guillemotright" unicode="&#xbb;" horiz-adv-x="435" 
d="M32 94l102 196l-102 194h53l146 -195l-146 -195h-53zM217 94l102 196l-102 194h54l146 -195l-146 -195h-54z" />
    <glyph glyph-name="guilsinglleft" unicode="&#x2039;" horiz-adv-x="271" 
d="M156 94l-146 195l146 195h53l-102 -194l102 -196h-53z" />
    <glyph glyph-name="guilsinglright" unicode="&#x203a;" horiz-adv-x="271" 
d="M62 94l102 196l-102 194h53l146 -194l-146 -196h-53z" />
    <glyph glyph-name="quotedblbase" unicode="&#x201e;" horiz-adv-x="355" 
d="M40 -78q31 5 42.5 21.5t11.5 56.5h-51v95h98v-80q0 -65 -24 -98t-77 -33v38zM184 -78q31 5 42.5 21.5t11.5 56.5h-51v95h98v-80q0 -65 -24 -98t-77 -33v38z" />
    <glyph glyph-name="quotedblleft" unicode="&#x201c;" horiz-adv-x="355" 
d="M171 553q-31 -5 -42.5 -21.5t-11.5 -56.5h51v-95h-98v80q0 65 24 98t77 33v-38zM315 553q-31 -5 -42.5 -21.5t-11.5 -56.5h51v-95h-98v80q0 65 24 98t77 33v-38z" />
    <glyph glyph-name="quotedblright" unicode="&#x201d;" horiz-adv-x="355" 
d="M40 418q31 5 42.5 21.5t11.5 56.5h-51v95h98v-80q0 -65 -24 -98t-77 -33v38zM184 418q31 5 42.5 21.5t11.5 56.5h-51v95h98v-80q0 -65 -24 -98t-77 -33v38z" />
    <glyph glyph-name="quoteleft" unicode="&#x2018;" horiz-adv-x="211" 
d="M171 553q-31 -5 -42.5 -21.5t-11.5 -56.5h51v-95h-98v80q0 65 24 98t77 33v-38z" />
    <glyph glyph-name="quoteright" unicode="&#x2019;" horiz-adv-x="211" 
d="M40 418q31 5 42.5 21.5t11.5 56.5h-51v95h98v-80q0 -65 -24 -98t-77 -33v38z" />
    <glyph glyph-name="quotesinglbase" unicode="&#x201a;" horiz-adv-x="211" 
d="M40 -78q31 5 42.5 21.5t11.5 56.5h-51v95h98v-80q0 -65 -24 -98t-77 -33v38z" />
    <glyph glyph-name="uni2007" unicode="&#x2007;" horiz-adv-x="536" 
 />
    <glyph glyph-name="uni200A" unicode="&#x200a;" horiz-adv-x="100" 
 />
    <glyph glyph-name="uni2008" unicode="&#x2008;" horiz-adv-x="241" 
 />
    <glyph glyph-name="uni00A0" unicode="&#xa0;" horiz-adv-x="305" 
 />
    <glyph glyph-name="uni2009" unicode="&#x2009;" horiz-adv-x="200" 
 />
    <glyph glyph-name="uni200B" unicode="&#x200b;" 
 />
    <glyph glyph-name="DEL" horiz-adv-x="293" 
 />
    <glyph glyph-name="uni20B5" unicode="&#x20b5;" horiz-adv-x="665" 
d="M373 -10v-79h-60v79q-79 7 -138.5 45.5t-92.5 102t-33 144.5q0 79 32.5 142t92 102t139.5 46v89h60v-89q54 -5 96 -28t67 -59v78h60v-170l-54 -2q-28 58 -69.5 87t-99.5 34v-462q60 5 106.5 37t68.5 95l60 -30q-59 -150 -235 -162zM181.5 126.5q50.5 -62.5 131.5 -74.5
v458q-83 -12 -132.5 -75t-49.5 -152q0 -94 50.5 -156.5z" />
    <glyph glyph-name="cent" unicode="&#xa2;" horiz-adv-x="469" 
d="M335.5 314.5q-25.5 23.5 -62.5 29.5v-294q38 4 65.5 22t53.5 48l31 -45q-55 -72 -150 -83v-81h-60v80q-84 9 -135.5 66.5t-51.5 141.5q0 86 52 142t135 62v80h60v-83q60 -12 89 -55v50h62v-141h-56q-7 37 -32.5 60.5zM133 103.5q30 -40.5 80 -51.5v290q-50 -11 -80 -49
t-30 -92q0 -57 30 -97.5z" />
    <glyph glyph-name="colonmonetary" unicode="&#x20a1;" horiz-adv-x="665" 
d="M368 -10l-18 -79h-62l19 80q-40 4 -76 17l-23 -97h-62l29 124q-60 39 -93 102.5t-33 144.5q0 76 30.5 138t87.5 101.5t133 48.5l21 91h62l-21 -88q44 -3 77 -16l24 104h62l-31 -133q24 -17 42 -43v78h60v-170l-54 -2q-25 51 -61 81l-98 -421q57 7 100.5 39t64.5 92
l60 -30q-60 -152 -240 -162zM321 51l105 451q-36 11 -77 11h-1l-102 -440q31 -17 75 -22zM193 113l91 391q-71 -20 -112 -80t-41 -141q0 -105 62 -170z" />
    </font>
</defs>
</svg>
